%TF.GenerationSoftware,KiCad,Pcbnew,8.0.0*%
%TF.CreationDate,2024-03-30T16:18:15+01:00*%
%TF.ProjectId,schematic-main,73636865-6d61-4746-9963-2d6d61696e2e,rev?*%
%TF.SameCoordinates,Original*%
%TF.FileFunction,Drillmap*%
%TF.FilePolarity,Positive*%
%FSLAX45Y45*%
G04 Gerber Fmt 4.5, Leading zero omitted, Abs format (unit mm)*
G04 Created by KiCad (PCBNEW 8.0.0) date 2024-03-30 16:18:15*
%MOMM*%
%LPD*%
G01*
G04 APERTURE LIST*
%ADD10C,0.050000*%
%ADD11C,0.200000*%
%ADD12C,0.300000*%
%ADD13C,0.320000*%
G04 APERTURE END LIST*
D10*
X18500000Y-5000000D02*
X18500000Y-15000000D01*
X9940000Y-15000000D02*
X8500000Y-15000000D01*
X10850000Y-14390000D02*
X9940000Y-14390000D01*
X18500000Y-15000000D02*
X10850000Y-15000000D01*
X10850000Y-15000000D02*
X10850000Y-14390000D01*
X9940000Y-14390000D02*
X9940000Y-15000000D01*
X8500000Y-5000000D02*
X18500000Y-5000000D01*
X8500000Y-15000000D02*
X8500000Y-5000000D01*
D11*
D12*
X9021290Y-8341575D02*
X9321290Y-8641575D01*
X9321290Y-8341575D02*
X9021290Y-8641575D01*
X9021290Y-9181575D02*
X9321290Y-9481575D01*
X9321290Y-9181575D02*
X9021290Y-9481575D01*
X9047500Y-7440000D02*
X9347500Y-7740000D01*
X9347500Y-7440000D02*
X9047500Y-7740000D01*
X14041250Y-14200000D02*
X14341250Y-14500000D01*
X14341250Y-14200000D02*
X14041250Y-14500000D01*
D13*
X9220000Y-5560000D02*
G75*
G02*
X8900000Y-5560000I-160000J0D01*
G01*
X8900000Y-5560000D02*
G75*
G02*
X9220000Y-5560000I160000J0D01*
G01*
X9220000Y-14440000D02*
G75*
G02*
X8900000Y-14440000I-160000J0D01*
G01*
X8900000Y-14440000D02*
G75*
G02*
X9220000Y-14440000I160000J0D01*
G01*
X18120000Y-5540000D02*
G75*
G02*
X17800000Y-5540000I-160000J0D01*
G01*
X17800000Y-5540000D02*
G75*
G02*
X18120000Y-5540000I160000J0D01*
G01*
X18120000Y-10560000D02*
G75*
G02*
X17800000Y-10560000I-160000J0D01*
G01*
X17800000Y-10560000D02*
G75*
G02*
X18120000Y-10560000I160000J0D01*
G01*
D11*
X8758277Y-15313984D02*
X8758277Y-15113984D01*
X8758277Y-15113984D02*
X8805896Y-15113984D01*
X8805896Y-15113984D02*
X8834467Y-15123508D01*
X8834467Y-15123508D02*
X8853515Y-15142555D01*
X8853515Y-15142555D02*
X8863039Y-15161603D01*
X8863039Y-15161603D02*
X8872563Y-15199698D01*
X8872563Y-15199698D02*
X8872563Y-15228269D01*
X8872563Y-15228269D02*
X8863039Y-15266365D01*
X8863039Y-15266365D02*
X8853515Y-15285412D01*
X8853515Y-15285412D02*
X8834467Y-15304460D01*
X8834467Y-15304460D02*
X8805896Y-15313984D01*
X8805896Y-15313984D02*
X8758277Y-15313984D01*
X8958277Y-15313984D02*
X8958277Y-15180650D01*
X8958277Y-15218746D02*
X8967801Y-15199698D01*
X8967801Y-15199698D02*
X8977324Y-15190174D01*
X8977324Y-15190174D02*
X8996372Y-15180650D01*
X8996372Y-15180650D02*
X9015420Y-15180650D01*
X9082086Y-15313984D02*
X9082086Y-15180650D01*
X9082086Y-15113984D02*
X9072563Y-15123508D01*
X9072563Y-15123508D02*
X9082086Y-15133031D01*
X9082086Y-15133031D02*
X9091610Y-15123508D01*
X9091610Y-15123508D02*
X9082086Y-15113984D01*
X9082086Y-15113984D02*
X9082086Y-15133031D01*
X9205896Y-15313984D02*
X9186848Y-15304460D01*
X9186848Y-15304460D02*
X9177324Y-15285412D01*
X9177324Y-15285412D02*
X9177324Y-15113984D01*
X9310658Y-15313984D02*
X9291610Y-15304460D01*
X9291610Y-15304460D02*
X9282086Y-15285412D01*
X9282086Y-15285412D02*
X9282086Y-15113984D01*
X9539229Y-15313984D02*
X9539229Y-15113984D01*
X9539229Y-15113984D02*
X9605896Y-15256841D01*
X9605896Y-15256841D02*
X9672563Y-15113984D01*
X9672563Y-15113984D02*
X9672563Y-15313984D01*
X9853515Y-15313984D02*
X9853515Y-15209222D01*
X9853515Y-15209222D02*
X9843991Y-15190174D01*
X9843991Y-15190174D02*
X9824944Y-15180650D01*
X9824944Y-15180650D02*
X9786848Y-15180650D01*
X9786848Y-15180650D02*
X9767801Y-15190174D01*
X9853515Y-15304460D02*
X9834467Y-15313984D01*
X9834467Y-15313984D02*
X9786848Y-15313984D01*
X9786848Y-15313984D02*
X9767801Y-15304460D01*
X9767801Y-15304460D02*
X9758277Y-15285412D01*
X9758277Y-15285412D02*
X9758277Y-15266365D01*
X9758277Y-15266365D02*
X9767801Y-15247317D01*
X9767801Y-15247317D02*
X9786848Y-15237793D01*
X9786848Y-15237793D02*
X9834467Y-15237793D01*
X9834467Y-15237793D02*
X9853515Y-15228269D01*
X9948753Y-15180650D02*
X9948753Y-15380650D01*
X9948753Y-15190174D02*
X9967801Y-15180650D01*
X9967801Y-15180650D02*
X10005896Y-15180650D01*
X10005896Y-15180650D02*
X10024944Y-15190174D01*
X10024944Y-15190174D02*
X10034467Y-15199698D01*
X10034467Y-15199698D02*
X10043991Y-15218746D01*
X10043991Y-15218746D02*
X10043991Y-15275888D01*
X10043991Y-15275888D02*
X10034467Y-15294936D01*
X10034467Y-15294936D02*
X10024944Y-15304460D01*
X10024944Y-15304460D02*
X10005896Y-15313984D01*
X10005896Y-15313984D02*
X9967801Y-15313984D01*
X9967801Y-15313984D02*
X9948753Y-15304460D01*
X10129705Y-15294936D02*
X10139229Y-15304460D01*
X10139229Y-15304460D02*
X10129705Y-15313984D01*
X10129705Y-15313984D02*
X10120182Y-15304460D01*
X10120182Y-15304460D02*
X10129705Y-15294936D01*
X10129705Y-15294936D02*
X10129705Y-15313984D01*
X10129705Y-15190174D02*
X10139229Y-15199698D01*
X10139229Y-15199698D02*
X10129705Y-15209222D01*
X10129705Y-15209222D02*
X10120182Y-15199698D01*
X10120182Y-15199698D02*
X10129705Y-15190174D01*
X10129705Y-15190174D02*
X10129705Y-15209222D01*
X8297500Y-15542500D02*
X8497500Y-15742500D01*
X8497500Y-15542500D02*
X8297500Y-15742500D01*
X8739229Y-15533984D02*
X8863039Y-15533984D01*
X8863039Y-15533984D02*
X8796372Y-15610174D01*
X8796372Y-15610174D02*
X8824944Y-15610174D01*
X8824944Y-15610174D02*
X8843991Y-15619698D01*
X8843991Y-15619698D02*
X8853515Y-15629222D01*
X8853515Y-15629222D02*
X8863039Y-15648269D01*
X8863039Y-15648269D02*
X8863039Y-15695888D01*
X8863039Y-15695888D02*
X8853515Y-15714936D01*
X8853515Y-15714936D02*
X8843991Y-15724460D01*
X8843991Y-15724460D02*
X8824944Y-15733984D01*
X8824944Y-15733984D02*
X8767801Y-15733984D01*
X8767801Y-15733984D02*
X8748753Y-15724460D01*
X8748753Y-15724460D02*
X8739229Y-15714936D01*
X8948753Y-15714936D02*
X8958277Y-15724460D01*
X8958277Y-15724460D02*
X8948753Y-15733984D01*
X8948753Y-15733984D02*
X8939229Y-15724460D01*
X8939229Y-15724460D02*
X8948753Y-15714936D01*
X8948753Y-15714936D02*
X8948753Y-15733984D01*
X9082086Y-15533984D02*
X9101134Y-15533984D01*
X9101134Y-15533984D02*
X9120182Y-15543508D01*
X9120182Y-15543508D02*
X9129705Y-15553031D01*
X9129705Y-15553031D02*
X9139229Y-15572079D01*
X9139229Y-15572079D02*
X9148753Y-15610174D01*
X9148753Y-15610174D02*
X9148753Y-15657793D01*
X9148753Y-15657793D02*
X9139229Y-15695888D01*
X9139229Y-15695888D02*
X9129705Y-15714936D01*
X9129705Y-15714936D02*
X9120182Y-15724460D01*
X9120182Y-15724460D02*
X9101134Y-15733984D01*
X9101134Y-15733984D02*
X9082086Y-15733984D01*
X9082086Y-15733984D02*
X9063039Y-15724460D01*
X9063039Y-15724460D02*
X9053515Y-15714936D01*
X9053515Y-15714936D02*
X9043991Y-15695888D01*
X9043991Y-15695888D02*
X9034467Y-15657793D01*
X9034467Y-15657793D02*
X9034467Y-15610174D01*
X9034467Y-15610174D02*
X9043991Y-15572079D01*
X9043991Y-15572079D02*
X9053515Y-15553031D01*
X9053515Y-15553031D02*
X9063039Y-15543508D01*
X9063039Y-15543508D02*
X9082086Y-15533984D01*
X9272563Y-15533984D02*
X9291610Y-15533984D01*
X9291610Y-15533984D02*
X9310658Y-15543508D01*
X9310658Y-15543508D02*
X9320182Y-15553031D01*
X9320182Y-15553031D02*
X9329705Y-15572079D01*
X9329705Y-15572079D02*
X9339229Y-15610174D01*
X9339229Y-15610174D02*
X9339229Y-15657793D01*
X9339229Y-15657793D02*
X9329705Y-15695888D01*
X9329705Y-15695888D02*
X9320182Y-15714936D01*
X9320182Y-15714936D02*
X9310658Y-15724460D01*
X9310658Y-15724460D02*
X9291610Y-15733984D01*
X9291610Y-15733984D02*
X9272563Y-15733984D01*
X9272563Y-15733984D02*
X9253515Y-15724460D01*
X9253515Y-15724460D02*
X9243991Y-15714936D01*
X9243991Y-15714936D02*
X9234467Y-15695888D01*
X9234467Y-15695888D02*
X9224944Y-15657793D01*
X9224944Y-15657793D02*
X9224944Y-15610174D01*
X9224944Y-15610174D02*
X9234467Y-15572079D01*
X9234467Y-15572079D02*
X9243991Y-15553031D01*
X9243991Y-15553031D02*
X9253515Y-15543508D01*
X9253515Y-15543508D02*
X9272563Y-15533984D01*
X9463039Y-15533984D02*
X9482086Y-15533984D01*
X9482086Y-15533984D02*
X9501134Y-15543508D01*
X9501134Y-15543508D02*
X9510658Y-15553031D01*
X9510658Y-15553031D02*
X9520182Y-15572079D01*
X9520182Y-15572079D02*
X9529705Y-15610174D01*
X9529705Y-15610174D02*
X9529705Y-15657793D01*
X9529705Y-15657793D02*
X9520182Y-15695888D01*
X9520182Y-15695888D02*
X9510658Y-15714936D01*
X9510658Y-15714936D02*
X9501134Y-15724460D01*
X9501134Y-15724460D02*
X9482086Y-15733984D01*
X9482086Y-15733984D02*
X9463039Y-15733984D01*
X9463039Y-15733984D02*
X9443991Y-15724460D01*
X9443991Y-15724460D02*
X9434467Y-15714936D01*
X9434467Y-15714936D02*
X9424944Y-15695888D01*
X9424944Y-15695888D02*
X9415420Y-15657793D01*
X9415420Y-15657793D02*
X9415420Y-15610174D01*
X9415420Y-15610174D02*
X9424944Y-15572079D01*
X9424944Y-15572079D02*
X9434467Y-15553031D01*
X9434467Y-15553031D02*
X9443991Y-15543508D01*
X9443991Y-15543508D02*
X9463039Y-15533984D01*
X9615420Y-15733984D02*
X9615420Y-15600650D01*
X9615420Y-15619698D02*
X9624944Y-15610174D01*
X9624944Y-15610174D02*
X9643991Y-15600650D01*
X9643991Y-15600650D02*
X9672563Y-15600650D01*
X9672563Y-15600650D02*
X9691610Y-15610174D01*
X9691610Y-15610174D02*
X9701134Y-15629222D01*
X9701134Y-15629222D02*
X9701134Y-15733984D01*
X9701134Y-15629222D02*
X9710658Y-15610174D01*
X9710658Y-15610174D02*
X9729705Y-15600650D01*
X9729705Y-15600650D02*
X9758277Y-15600650D01*
X9758277Y-15600650D02*
X9777325Y-15610174D01*
X9777325Y-15610174D02*
X9786848Y-15629222D01*
X9786848Y-15629222D02*
X9786848Y-15733984D01*
X9882086Y-15733984D02*
X9882086Y-15600650D01*
X9882086Y-15619698D02*
X9891610Y-15610174D01*
X9891610Y-15610174D02*
X9910658Y-15600650D01*
X9910658Y-15600650D02*
X9939229Y-15600650D01*
X9939229Y-15600650D02*
X9958277Y-15610174D01*
X9958277Y-15610174D02*
X9967801Y-15629222D01*
X9967801Y-15629222D02*
X9967801Y-15733984D01*
X9967801Y-15629222D02*
X9977325Y-15610174D01*
X9977325Y-15610174D02*
X9996372Y-15600650D01*
X9996372Y-15600650D02*
X10024944Y-15600650D01*
X10024944Y-15600650D02*
X10043991Y-15610174D01*
X10043991Y-15610174D02*
X10053515Y-15629222D01*
X10053515Y-15629222D02*
X10053515Y-15733984D01*
X10443991Y-15524460D02*
X10272563Y-15781603D01*
X10701134Y-15533984D02*
X10720182Y-15533984D01*
X10720182Y-15533984D02*
X10739229Y-15543508D01*
X10739229Y-15543508D02*
X10748753Y-15553031D01*
X10748753Y-15553031D02*
X10758277Y-15572079D01*
X10758277Y-15572079D02*
X10767801Y-15610174D01*
X10767801Y-15610174D02*
X10767801Y-15657793D01*
X10767801Y-15657793D02*
X10758277Y-15695888D01*
X10758277Y-15695888D02*
X10748753Y-15714936D01*
X10748753Y-15714936D02*
X10739229Y-15724460D01*
X10739229Y-15724460D02*
X10720182Y-15733984D01*
X10720182Y-15733984D02*
X10701134Y-15733984D01*
X10701134Y-15733984D02*
X10682087Y-15724460D01*
X10682087Y-15724460D02*
X10672563Y-15714936D01*
X10672563Y-15714936D02*
X10663039Y-15695888D01*
X10663039Y-15695888D02*
X10653515Y-15657793D01*
X10653515Y-15657793D02*
X10653515Y-15610174D01*
X10653515Y-15610174D02*
X10663039Y-15572079D01*
X10663039Y-15572079D02*
X10672563Y-15553031D01*
X10672563Y-15553031D02*
X10682087Y-15543508D01*
X10682087Y-15543508D02*
X10701134Y-15533984D01*
X10853515Y-15714936D02*
X10863039Y-15724460D01*
X10863039Y-15724460D02*
X10853515Y-15733984D01*
X10853515Y-15733984D02*
X10843991Y-15724460D01*
X10843991Y-15724460D02*
X10853515Y-15714936D01*
X10853515Y-15714936D02*
X10853515Y-15733984D01*
X11053515Y-15733984D02*
X10939229Y-15733984D01*
X10996372Y-15733984D02*
X10996372Y-15533984D01*
X10996372Y-15533984D02*
X10977325Y-15562555D01*
X10977325Y-15562555D02*
X10958277Y-15581603D01*
X10958277Y-15581603D02*
X10939229Y-15591127D01*
X11243991Y-15733984D02*
X11129706Y-15733984D01*
X11186848Y-15733984D02*
X11186848Y-15533984D01*
X11186848Y-15533984D02*
X11167801Y-15562555D01*
X11167801Y-15562555D02*
X11148753Y-15581603D01*
X11148753Y-15581603D02*
X11129706Y-15591127D01*
X11358277Y-15619698D02*
X11339229Y-15610174D01*
X11339229Y-15610174D02*
X11329706Y-15600650D01*
X11329706Y-15600650D02*
X11320182Y-15581603D01*
X11320182Y-15581603D02*
X11320182Y-15572079D01*
X11320182Y-15572079D02*
X11329706Y-15553031D01*
X11329706Y-15553031D02*
X11339229Y-15543508D01*
X11339229Y-15543508D02*
X11358277Y-15533984D01*
X11358277Y-15533984D02*
X11396372Y-15533984D01*
X11396372Y-15533984D02*
X11415420Y-15543508D01*
X11415420Y-15543508D02*
X11424944Y-15553031D01*
X11424944Y-15553031D02*
X11434467Y-15572079D01*
X11434467Y-15572079D02*
X11434467Y-15581603D01*
X11434467Y-15581603D02*
X11424944Y-15600650D01*
X11424944Y-15600650D02*
X11415420Y-15610174D01*
X11415420Y-15610174D02*
X11396372Y-15619698D01*
X11396372Y-15619698D02*
X11358277Y-15619698D01*
X11358277Y-15619698D02*
X11339229Y-15629222D01*
X11339229Y-15629222D02*
X11329706Y-15638746D01*
X11329706Y-15638746D02*
X11320182Y-15657793D01*
X11320182Y-15657793D02*
X11320182Y-15695888D01*
X11320182Y-15695888D02*
X11329706Y-15714936D01*
X11329706Y-15714936D02*
X11339229Y-15724460D01*
X11339229Y-15724460D02*
X11358277Y-15733984D01*
X11358277Y-15733984D02*
X11396372Y-15733984D01*
X11396372Y-15733984D02*
X11415420Y-15724460D01*
X11415420Y-15724460D02*
X11424944Y-15714936D01*
X11424944Y-15714936D02*
X11434467Y-15695888D01*
X11434467Y-15695888D02*
X11434467Y-15657793D01*
X11434467Y-15657793D02*
X11424944Y-15638746D01*
X11424944Y-15638746D02*
X11415420Y-15629222D01*
X11415420Y-15629222D02*
X11396372Y-15619698D01*
X11624944Y-15733984D02*
X11510658Y-15733984D01*
X11567801Y-15733984D02*
X11567801Y-15533984D01*
X11567801Y-15533984D02*
X11548753Y-15562555D01*
X11548753Y-15562555D02*
X11529706Y-15581603D01*
X11529706Y-15581603D02*
X11510658Y-15591127D01*
X11701134Y-15533984D02*
X11701134Y-15572079D01*
X11777325Y-15533984D02*
X11777325Y-15572079D01*
X12072563Y-15810174D02*
X12063039Y-15800650D01*
X12063039Y-15800650D02*
X12043991Y-15772079D01*
X12043991Y-15772079D02*
X12034468Y-15753031D01*
X12034468Y-15753031D02*
X12024944Y-15724460D01*
X12024944Y-15724460D02*
X12015420Y-15676841D01*
X12015420Y-15676841D02*
X12015420Y-15638746D01*
X12015420Y-15638746D02*
X12024944Y-15591127D01*
X12024944Y-15591127D02*
X12034468Y-15562555D01*
X12034468Y-15562555D02*
X12043991Y-15543508D01*
X12043991Y-15543508D02*
X12063039Y-15514936D01*
X12063039Y-15514936D02*
X12072563Y-15505412D01*
X12234468Y-15600650D02*
X12234468Y-15733984D01*
X12186848Y-15524460D02*
X12139229Y-15667317D01*
X12139229Y-15667317D02*
X12263039Y-15667317D01*
X12491610Y-15733984D02*
X12491610Y-15533984D01*
X12577325Y-15733984D02*
X12577325Y-15629222D01*
X12577325Y-15629222D02*
X12567801Y-15610174D01*
X12567801Y-15610174D02*
X12548753Y-15600650D01*
X12548753Y-15600650D02*
X12520182Y-15600650D01*
X12520182Y-15600650D02*
X12501134Y-15610174D01*
X12501134Y-15610174D02*
X12491610Y-15619698D01*
X12701134Y-15733984D02*
X12682087Y-15724460D01*
X12682087Y-15724460D02*
X12672563Y-15714936D01*
X12672563Y-15714936D02*
X12663039Y-15695888D01*
X12663039Y-15695888D02*
X12663039Y-15638746D01*
X12663039Y-15638746D02*
X12672563Y-15619698D01*
X12672563Y-15619698D02*
X12682087Y-15610174D01*
X12682087Y-15610174D02*
X12701134Y-15600650D01*
X12701134Y-15600650D02*
X12729706Y-15600650D01*
X12729706Y-15600650D02*
X12748753Y-15610174D01*
X12748753Y-15610174D02*
X12758277Y-15619698D01*
X12758277Y-15619698D02*
X12767801Y-15638746D01*
X12767801Y-15638746D02*
X12767801Y-15695888D01*
X12767801Y-15695888D02*
X12758277Y-15714936D01*
X12758277Y-15714936D02*
X12748753Y-15724460D01*
X12748753Y-15724460D02*
X12729706Y-15733984D01*
X12729706Y-15733984D02*
X12701134Y-15733984D01*
X12882087Y-15733984D02*
X12863039Y-15724460D01*
X12863039Y-15724460D02*
X12853515Y-15705412D01*
X12853515Y-15705412D02*
X12853515Y-15533984D01*
X13034468Y-15724460D02*
X13015420Y-15733984D01*
X13015420Y-15733984D02*
X12977325Y-15733984D01*
X12977325Y-15733984D02*
X12958277Y-15724460D01*
X12958277Y-15724460D02*
X12948753Y-15705412D01*
X12948753Y-15705412D02*
X12948753Y-15629222D01*
X12948753Y-15629222D02*
X12958277Y-15610174D01*
X12958277Y-15610174D02*
X12977325Y-15600650D01*
X12977325Y-15600650D02*
X13015420Y-15600650D01*
X13015420Y-15600650D02*
X13034468Y-15610174D01*
X13034468Y-15610174D02*
X13043991Y-15629222D01*
X13043991Y-15629222D02*
X13043991Y-15648269D01*
X13043991Y-15648269D02*
X12948753Y-15667317D01*
X13120182Y-15724460D02*
X13139230Y-15733984D01*
X13139230Y-15733984D02*
X13177325Y-15733984D01*
X13177325Y-15733984D02*
X13196372Y-15724460D01*
X13196372Y-15724460D02*
X13205896Y-15705412D01*
X13205896Y-15705412D02*
X13205896Y-15695888D01*
X13205896Y-15695888D02*
X13196372Y-15676841D01*
X13196372Y-15676841D02*
X13177325Y-15667317D01*
X13177325Y-15667317D02*
X13148753Y-15667317D01*
X13148753Y-15667317D02*
X13129706Y-15657793D01*
X13129706Y-15657793D02*
X13120182Y-15638746D01*
X13120182Y-15638746D02*
X13120182Y-15629222D01*
X13120182Y-15629222D02*
X13129706Y-15610174D01*
X13129706Y-15610174D02*
X13148753Y-15600650D01*
X13148753Y-15600650D02*
X13177325Y-15600650D01*
X13177325Y-15600650D02*
X13196372Y-15610174D01*
X13272563Y-15810174D02*
X13282087Y-15800650D01*
X13282087Y-15800650D02*
X13301134Y-15772079D01*
X13301134Y-15772079D02*
X13310658Y-15753031D01*
X13310658Y-15753031D02*
X13320182Y-15724460D01*
X13320182Y-15724460D02*
X13329706Y-15676841D01*
X13329706Y-15676841D02*
X13329706Y-15638746D01*
X13329706Y-15638746D02*
X13320182Y-15591127D01*
X13320182Y-15591127D02*
X13310658Y-15562555D01*
X13310658Y-15562555D02*
X13301134Y-15543508D01*
X13301134Y-15543508D02*
X13282087Y-15514936D01*
X13282087Y-15514936D02*
X13272563Y-15505412D01*
X13634468Y-15810174D02*
X13624944Y-15800650D01*
X13624944Y-15800650D02*
X13605896Y-15772079D01*
X13605896Y-15772079D02*
X13596372Y-15753031D01*
X13596372Y-15753031D02*
X13586849Y-15724460D01*
X13586849Y-15724460D02*
X13577325Y-15676841D01*
X13577325Y-15676841D02*
X13577325Y-15638746D01*
X13577325Y-15638746D02*
X13586849Y-15591127D01*
X13586849Y-15591127D02*
X13596372Y-15562555D01*
X13596372Y-15562555D02*
X13605896Y-15543508D01*
X13605896Y-15543508D02*
X13624944Y-15514936D01*
X13624944Y-15514936D02*
X13634468Y-15505412D01*
X13710658Y-15600650D02*
X13710658Y-15733984D01*
X13710658Y-15619698D02*
X13720182Y-15610174D01*
X13720182Y-15610174D02*
X13739230Y-15600650D01*
X13739230Y-15600650D02*
X13767801Y-15600650D01*
X13767801Y-15600650D02*
X13786849Y-15610174D01*
X13786849Y-15610174D02*
X13796372Y-15629222D01*
X13796372Y-15629222D02*
X13796372Y-15733984D01*
X13920182Y-15733984D02*
X13901134Y-15724460D01*
X13901134Y-15724460D02*
X13891611Y-15714936D01*
X13891611Y-15714936D02*
X13882087Y-15695888D01*
X13882087Y-15695888D02*
X13882087Y-15638746D01*
X13882087Y-15638746D02*
X13891611Y-15619698D01*
X13891611Y-15619698D02*
X13901134Y-15610174D01*
X13901134Y-15610174D02*
X13920182Y-15600650D01*
X13920182Y-15600650D02*
X13948753Y-15600650D01*
X13948753Y-15600650D02*
X13967801Y-15610174D01*
X13967801Y-15610174D02*
X13977325Y-15619698D01*
X13977325Y-15619698D02*
X13986849Y-15638746D01*
X13986849Y-15638746D02*
X13986849Y-15695888D01*
X13986849Y-15695888D02*
X13977325Y-15714936D01*
X13977325Y-15714936D02*
X13967801Y-15724460D01*
X13967801Y-15724460D02*
X13948753Y-15733984D01*
X13948753Y-15733984D02*
X13920182Y-15733984D01*
X14043992Y-15600650D02*
X14120182Y-15600650D01*
X14072563Y-15533984D02*
X14072563Y-15705412D01*
X14072563Y-15705412D02*
X14082087Y-15724460D01*
X14082087Y-15724460D02*
X14101134Y-15733984D01*
X14101134Y-15733984D02*
X14120182Y-15733984D01*
X14339230Y-15600650D02*
X14339230Y-15800650D01*
X14339230Y-15610174D02*
X14358277Y-15600650D01*
X14358277Y-15600650D02*
X14396373Y-15600650D01*
X14396373Y-15600650D02*
X14415420Y-15610174D01*
X14415420Y-15610174D02*
X14424944Y-15619698D01*
X14424944Y-15619698D02*
X14434468Y-15638746D01*
X14434468Y-15638746D02*
X14434468Y-15695888D01*
X14434468Y-15695888D02*
X14424944Y-15714936D01*
X14424944Y-15714936D02*
X14415420Y-15724460D01*
X14415420Y-15724460D02*
X14396373Y-15733984D01*
X14396373Y-15733984D02*
X14358277Y-15733984D01*
X14358277Y-15733984D02*
X14339230Y-15724460D01*
X14548753Y-15733984D02*
X14529706Y-15724460D01*
X14529706Y-15724460D02*
X14520182Y-15705412D01*
X14520182Y-15705412D02*
X14520182Y-15533984D01*
X14710658Y-15733984D02*
X14710658Y-15629222D01*
X14710658Y-15629222D02*
X14701134Y-15610174D01*
X14701134Y-15610174D02*
X14682087Y-15600650D01*
X14682087Y-15600650D02*
X14643992Y-15600650D01*
X14643992Y-15600650D02*
X14624944Y-15610174D01*
X14710658Y-15724460D02*
X14691611Y-15733984D01*
X14691611Y-15733984D02*
X14643992Y-15733984D01*
X14643992Y-15733984D02*
X14624944Y-15724460D01*
X14624944Y-15724460D02*
X14615420Y-15705412D01*
X14615420Y-15705412D02*
X14615420Y-15686365D01*
X14615420Y-15686365D02*
X14624944Y-15667317D01*
X14624944Y-15667317D02*
X14643992Y-15657793D01*
X14643992Y-15657793D02*
X14691611Y-15657793D01*
X14691611Y-15657793D02*
X14710658Y-15648269D01*
X14777325Y-15600650D02*
X14853515Y-15600650D01*
X14805896Y-15533984D02*
X14805896Y-15705412D01*
X14805896Y-15705412D02*
X14815420Y-15724460D01*
X14815420Y-15724460D02*
X14834468Y-15733984D01*
X14834468Y-15733984D02*
X14853515Y-15733984D01*
X14996373Y-15724460D02*
X14977325Y-15733984D01*
X14977325Y-15733984D02*
X14939230Y-15733984D01*
X14939230Y-15733984D02*
X14920182Y-15724460D01*
X14920182Y-15724460D02*
X14910658Y-15705412D01*
X14910658Y-15705412D02*
X14910658Y-15629222D01*
X14910658Y-15629222D02*
X14920182Y-15610174D01*
X14920182Y-15610174D02*
X14939230Y-15600650D01*
X14939230Y-15600650D02*
X14977325Y-15600650D01*
X14977325Y-15600650D02*
X14996373Y-15610174D01*
X14996373Y-15610174D02*
X15005896Y-15629222D01*
X15005896Y-15629222D02*
X15005896Y-15648269D01*
X15005896Y-15648269D02*
X14910658Y-15667317D01*
X15177325Y-15733984D02*
X15177325Y-15533984D01*
X15177325Y-15724460D02*
X15158277Y-15733984D01*
X15158277Y-15733984D02*
X15120182Y-15733984D01*
X15120182Y-15733984D02*
X15101134Y-15724460D01*
X15101134Y-15724460D02*
X15091611Y-15714936D01*
X15091611Y-15714936D02*
X15082087Y-15695888D01*
X15082087Y-15695888D02*
X15082087Y-15638746D01*
X15082087Y-15638746D02*
X15091611Y-15619698D01*
X15091611Y-15619698D02*
X15101134Y-15610174D01*
X15101134Y-15610174D02*
X15120182Y-15600650D01*
X15120182Y-15600650D02*
X15158277Y-15600650D01*
X15158277Y-15600650D02*
X15177325Y-15610174D01*
X15253515Y-15810174D02*
X15263039Y-15800650D01*
X15263039Y-15800650D02*
X15282087Y-15772079D01*
X15282087Y-15772079D02*
X15291611Y-15753031D01*
X15291611Y-15753031D02*
X15301134Y-15724460D01*
X15301134Y-15724460D02*
X15310658Y-15676841D01*
X15310658Y-15676841D02*
X15310658Y-15638746D01*
X15310658Y-15638746D02*
X15301134Y-15591127D01*
X15301134Y-15591127D02*
X15291611Y-15562555D01*
X15291611Y-15562555D02*
X15282087Y-15543508D01*
X15282087Y-15543508D02*
X15263039Y-15514936D01*
X15263039Y-15514936D02*
X15253515Y-15505412D01*
X8497500Y-15962500D02*
G75*
G02*
X8297500Y-15962500I-100000J0D01*
G01*
X8297500Y-15962500D02*
G75*
G02*
X8497500Y-15962500I100000J0D01*
G01*
X8739229Y-15853984D02*
X8863039Y-15853984D01*
X8863039Y-15853984D02*
X8796372Y-15930174D01*
X8796372Y-15930174D02*
X8824944Y-15930174D01*
X8824944Y-15930174D02*
X8843991Y-15939698D01*
X8843991Y-15939698D02*
X8853515Y-15949222D01*
X8853515Y-15949222D02*
X8863039Y-15968269D01*
X8863039Y-15968269D02*
X8863039Y-16015888D01*
X8863039Y-16015888D02*
X8853515Y-16034936D01*
X8853515Y-16034936D02*
X8843991Y-16044460D01*
X8843991Y-16044460D02*
X8824944Y-16053984D01*
X8824944Y-16053984D02*
X8767801Y-16053984D01*
X8767801Y-16053984D02*
X8748753Y-16044460D01*
X8748753Y-16044460D02*
X8739229Y-16034936D01*
X8948753Y-16034936D02*
X8958277Y-16044460D01*
X8958277Y-16044460D02*
X8948753Y-16053984D01*
X8948753Y-16053984D02*
X8939229Y-16044460D01*
X8939229Y-16044460D02*
X8948753Y-16034936D01*
X8948753Y-16034936D02*
X8948753Y-16053984D01*
X9034467Y-15873031D02*
X9043991Y-15863508D01*
X9043991Y-15863508D02*
X9063039Y-15853984D01*
X9063039Y-15853984D02*
X9110658Y-15853984D01*
X9110658Y-15853984D02*
X9129705Y-15863508D01*
X9129705Y-15863508D02*
X9139229Y-15873031D01*
X9139229Y-15873031D02*
X9148753Y-15892079D01*
X9148753Y-15892079D02*
X9148753Y-15911127D01*
X9148753Y-15911127D02*
X9139229Y-15939698D01*
X9139229Y-15939698D02*
X9024944Y-16053984D01*
X9024944Y-16053984D02*
X9148753Y-16053984D01*
X9272563Y-15853984D02*
X9291610Y-15853984D01*
X9291610Y-15853984D02*
X9310658Y-15863508D01*
X9310658Y-15863508D02*
X9320182Y-15873031D01*
X9320182Y-15873031D02*
X9329705Y-15892079D01*
X9329705Y-15892079D02*
X9339229Y-15930174D01*
X9339229Y-15930174D02*
X9339229Y-15977793D01*
X9339229Y-15977793D02*
X9329705Y-16015888D01*
X9329705Y-16015888D02*
X9320182Y-16034936D01*
X9320182Y-16034936D02*
X9310658Y-16044460D01*
X9310658Y-16044460D02*
X9291610Y-16053984D01*
X9291610Y-16053984D02*
X9272563Y-16053984D01*
X9272563Y-16053984D02*
X9253515Y-16044460D01*
X9253515Y-16044460D02*
X9243991Y-16034936D01*
X9243991Y-16034936D02*
X9234467Y-16015888D01*
X9234467Y-16015888D02*
X9224944Y-15977793D01*
X9224944Y-15977793D02*
X9224944Y-15930174D01*
X9224944Y-15930174D02*
X9234467Y-15892079D01*
X9234467Y-15892079D02*
X9243991Y-15873031D01*
X9243991Y-15873031D02*
X9253515Y-15863508D01*
X9253515Y-15863508D02*
X9272563Y-15853984D01*
X9463039Y-15853984D02*
X9482086Y-15853984D01*
X9482086Y-15853984D02*
X9501134Y-15863508D01*
X9501134Y-15863508D02*
X9510658Y-15873031D01*
X9510658Y-15873031D02*
X9520182Y-15892079D01*
X9520182Y-15892079D02*
X9529705Y-15930174D01*
X9529705Y-15930174D02*
X9529705Y-15977793D01*
X9529705Y-15977793D02*
X9520182Y-16015888D01*
X9520182Y-16015888D02*
X9510658Y-16034936D01*
X9510658Y-16034936D02*
X9501134Y-16044460D01*
X9501134Y-16044460D02*
X9482086Y-16053984D01*
X9482086Y-16053984D02*
X9463039Y-16053984D01*
X9463039Y-16053984D02*
X9443991Y-16044460D01*
X9443991Y-16044460D02*
X9434467Y-16034936D01*
X9434467Y-16034936D02*
X9424944Y-16015888D01*
X9424944Y-16015888D02*
X9415420Y-15977793D01*
X9415420Y-15977793D02*
X9415420Y-15930174D01*
X9415420Y-15930174D02*
X9424944Y-15892079D01*
X9424944Y-15892079D02*
X9434467Y-15873031D01*
X9434467Y-15873031D02*
X9443991Y-15863508D01*
X9443991Y-15863508D02*
X9463039Y-15853984D01*
X9615420Y-16053984D02*
X9615420Y-15920650D01*
X9615420Y-15939698D02*
X9624944Y-15930174D01*
X9624944Y-15930174D02*
X9643991Y-15920650D01*
X9643991Y-15920650D02*
X9672563Y-15920650D01*
X9672563Y-15920650D02*
X9691610Y-15930174D01*
X9691610Y-15930174D02*
X9701134Y-15949222D01*
X9701134Y-15949222D02*
X9701134Y-16053984D01*
X9701134Y-15949222D02*
X9710658Y-15930174D01*
X9710658Y-15930174D02*
X9729705Y-15920650D01*
X9729705Y-15920650D02*
X9758277Y-15920650D01*
X9758277Y-15920650D02*
X9777325Y-15930174D01*
X9777325Y-15930174D02*
X9786848Y-15949222D01*
X9786848Y-15949222D02*
X9786848Y-16053984D01*
X9882086Y-16053984D02*
X9882086Y-15920650D01*
X9882086Y-15939698D02*
X9891610Y-15930174D01*
X9891610Y-15930174D02*
X9910658Y-15920650D01*
X9910658Y-15920650D02*
X9939229Y-15920650D01*
X9939229Y-15920650D02*
X9958277Y-15930174D01*
X9958277Y-15930174D02*
X9967801Y-15949222D01*
X9967801Y-15949222D02*
X9967801Y-16053984D01*
X9967801Y-15949222D02*
X9977325Y-15930174D01*
X9977325Y-15930174D02*
X9996372Y-15920650D01*
X9996372Y-15920650D02*
X10024944Y-15920650D01*
X10024944Y-15920650D02*
X10043991Y-15930174D01*
X10043991Y-15930174D02*
X10053515Y-15949222D01*
X10053515Y-15949222D02*
X10053515Y-16053984D01*
X10443991Y-15844460D02*
X10272563Y-16101603D01*
X10701134Y-15853984D02*
X10720182Y-15853984D01*
X10720182Y-15853984D02*
X10739229Y-15863508D01*
X10739229Y-15863508D02*
X10748753Y-15873031D01*
X10748753Y-15873031D02*
X10758277Y-15892079D01*
X10758277Y-15892079D02*
X10767801Y-15930174D01*
X10767801Y-15930174D02*
X10767801Y-15977793D01*
X10767801Y-15977793D02*
X10758277Y-16015888D01*
X10758277Y-16015888D02*
X10748753Y-16034936D01*
X10748753Y-16034936D02*
X10739229Y-16044460D01*
X10739229Y-16044460D02*
X10720182Y-16053984D01*
X10720182Y-16053984D02*
X10701134Y-16053984D01*
X10701134Y-16053984D02*
X10682087Y-16044460D01*
X10682087Y-16044460D02*
X10672563Y-16034936D01*
X10672563Y-16034936D02*
X10663039Y-16015888D01*
X10663039Y-16015888D02*
X10653515Y-15977793D01*
X10653515Y-15977793D02*
X10653515Y-15930174D01*
X10653515Y-15930174D02*
X10663039Y-15892079D01*
X10663039Y-15892079D02*
X10672563Y-15873031D01*
X10672563Y-15873031D02*
X10682087Y-15863508D01*
X10682087Y-15863508D02*
X10701134Y-15853984D01*
X10853515Y-16034936D02*
X10863039Y-16044460D01*
X10863039Y-16044460D02*
X10853515Y-16053984D01*
X10853515Y-16053984D02*
X10843991Y-16044460D01*
X10843991Y-16044460D02*
X10853515Y-16034936D01*
X10853515Y-16034936D02*
X10853515Y-16053984D01*
X11053515Y-16053984D02*
X10939229Y-16053984D01*
X10996372Y-16053984D02*
X10996372Y-15853984D01*
X10996372Y-15853984D02*
X10977325Y-15882555D01*
X10977325Y-15882555D02*
X10958277Y-15901603D01*
X10958277Y-15901603D02*
X10939229Y-15911127D01*
X11129706Y-15873031D02*
X11139229Y-15863508D01*
X11139229Y-15863508D02*
X11158277Y-15853984D01*
X11158277Y-15853984D02*
X11205896Y-15853984D01*
X11205896Y-15853984D02*
X11224944Y-15863508D01*
X11224944Y-15863508D02*
X11234467Y-15873031D01*
X11234467Y-15873031D02*
X11243991Y-15892079D01*
X11243991Y-15892079D02*
X11243991Y-15911127D01*
X11243991Y-15911127D02*
X11234467Y-15939698D01*
X11234467Y-15939698D02*
X11120182Y-16053984D01*
X11120182Y-16053984D02*
X11243991Y-16053984D01*
X11415420Y-15853984D02*
X11377325Y-15853984D01*
X11377325Y-15853984D02*
X11358277Y-15863508D01*
X11358277Y-15863508D02*
X11348753Y-15873031D01*
X11348753Y-15873031D02*
X11329706Y-15901603D01*
X11329706Y-15901603D02*
X11320182Y-15939698D01*
X11320182Y-15939698D02*
X11320182Y-16015888D01*
X11320182Y-16015888D02*
X11329706Y-16034936D01*
X11329706Y-16034936D02*
X11339229Y-16044460D01*
X11339229Y-16044460D02*
X11358277Y-16053984D01*
X11358277Y-16053984D02*
X11396372Y-16053984D01*
X11396372Y-16053984D02*
X11415420Y-16044460D01*
X11415420Y-16044460D02*
X11424944Y-16034936D01*
X11424944Y-16034936D02*
X11434467Y-16015888D01*
X11434467Y-16015888D02*
X11434467Y-15968269D01*
X11434467Y-15968269D02*
X11424944Y-15949222D01*
X11424944Y-15949222D02*
X11415420Y-15939698D01*
X11415420Y-15939698D02*
X11396372Y-15930174D01*
X11396372Y-15930174D02*
X11358277Y-15930174D01*
X11358277Y-15930174D02*
X11339229Y-15939698D01*
X11339229Y-15939698D02*
X11329706Y-15949222D01*
X11329706Y-15949222D02*
X11320182Y-15968269D01*
X11558277Y-15853984D02*
X11577325Y-15853984D01*
X11577325Y-15853984D02*
X11596372Y-15863508D01*
X11596372Y-15863508D02*
X11605896Y-15873031D01*
X11605896Y-15873031D02*
X11615420Y-15892079D01*
X11615420Y-15892079D02*
X11624944Y-15930174D01*
X11624944Y-15930174D02*
X11624944Y-15977793D01*
X11624944Y-15977793D02*
X11615420Y-16015888D01*
X11615420Y-16015888D02*
X11605896Y-16034936D01*
X11605896Y-16034936D02*
X11596372Y-16044460D01*
X11596372Y-16044460D02*
X11577325Y-16053984D01*
X11577325Y-16053984D02*
X11558277Y-16053984D01*
X11558277Y-16053984D02*
X11539229Y-16044460D01*
X11539229Y-16044460D02*
X11529706Y-16034936D01*
X11529706Y-16034936D02*
X11520182Y-16015888D01*
X11520182Y-16015888D02*
X11510658Y-15977793D01*
X11510658Y-15977793D02*
X11510658Y-15930174D01*
X11510658Y-15930174D02*
X11520182Y-15892079D01*
X11520182Y-15892079D02*
X11529706Y-15873031D01*
X11529706Y-15873031D02*
X11539229Y-15863508D01*
X11539229Y-15863508D02*
X11558277Y-15853984D01*
X11701134Y-15853984D02*
X11701134Y-15892079D01*
X11777325Y-15853984D02*
X11777325Y-15892079D01*
X12072563Y-16130174D02*
X12063039Y-16120650D01*
X12063039Y-16120650D02*
X12043991Y-16092079D01*
X12043991Y-16092079D02*
X12034468Y-16073031D01*
X12034468Y-16073031D02*
X12024944Y-16044460D01*
X12024944Y-16044460D02*
X12015420Y-15996841D01*
X12015420Y-15996841D02*
X12015420Y-15958746D01*
X12015420Y-15958746D02*
X12024944Y-15911127D01*
X12024944Y-15911127D02*
X12034468Y-15882555D01*
X12034468Y-15882555D02*
X12043991Y-15863508D01*
X12043991Y-15863508D02*
X12063039Y-15834936D01*
X12063039Y-15834936D02*
X12072563Y-15825412D01*
X12234468Y-15920650D02*
X12234468Y-16053984D01*
X12186848Y-15844460D02*
X12139229Y-15987317D01*
X12139229Y-15987317D02*
X12263039Y-15987317D01*
X12491610Y-16053984D02*
X12491610Y-15853984D01*
X12577325Y-16053984D02*
X12577325Y-15949222D01*
X12577325Y-15949222D02*
X12567801Y-15930174D01*
X12567801Y-15930174D02*
X12548753Y-15920650D01*
X12548753Y-15920650D02*
X12520182Y-15920650D01*
X12520182Y-15920650D02*
X12501134Y-15930174D01*
X12501134Y-15930174D02*
X12491610Y-15939698D01*
X12701134Y-16053984D02*
X12682087Y-16044460D01*
X12682087Y-16044460D02*
X12672563Y-16034936D01*
X12672563Y-16034936D02*
X12663039Y-16015888D01*
X12663039Y-16015888D02*
X12663039Y-15958746D01*
X12663039Y-15958746D02*
X12672563Y-15939698D01*
X12672563Y-15939698D02*
X12682087Y-15930174D01*
X12682087Y-15930174D02*
X12701134Y-15920650D01*
X12701134Y-15920650D02*
X12729706Y-15920650D01*
X12729706Y-15920650D02*
X12748753Y-15930174D01*
X12748753Y-15930174D02*
X12758277Y-15939698D01*
X12758277Y-15939698D02*
X12767801Y-15958746D01*
X12767801Y-15958746D02*
X12767801Y-16015888D01*
X12767801Y-16015888D02*
X12758277Y-16034936D01*
X12758277Y-16034936D02*
X12748753Y-16044460D01*
X12748753Y-16044460D02*
X12729706Y-16053984D01*
X12729706Y-16053984D02*
X12701134Y-16053984D01*
X12882087Y-16053984D02*
X12863039Y-16044460D01*
X12863039Y-16044460D02*
X12853515Y-16025412D01*
X12853515Y-16025412D02*
X12853515Y-15853984D01*
X13034468Y-16044460D02*
X13015420Y-16053984D01*
X13015420Y-16053984D02*
X12977325Y-16053984D01*
X12977325Y-16053984D02*
X12958277Y-16044460D01*
X12958277Y-16044460D02*
X12948753Y-16025412D01*
X12948753Y-16025412D02*
X12948753Y-15949222D01*
X12948753Y-15949222D02*
X12958277Y-15930174D01*
X12958277Y-15930174D02*
X12977325Y-15920650D01*
X12977325Y-15920650D02*
X13015420Y-15920650D01*
X13015420Y-15920650D02*
X13034468Y-15930174D01*
X13034468Y-15930174D02*
X13043991Y-15949222D01*
X13043991Y-15949222D02*
X13043991Y-15968269D01*
X13043991Y-15968269D02*
X12948753Y-15987317D01*
X13120182Y-16044460D02*
X13139230Y-16053984D01*
X13139230Y-16053984D02*
X13177325Y-16053984D01*
X13177325Y-16053984D02*
X13196372Y-16044460D01*
X13196372Y-16044460D02*
X13205896Y-16025412D01*
X13205896Y-16025412D02*
X13205896Y-16015888D01*
X13205896Y-16015888D02*
X13196372Y-15996841D01*
X13196372Y-15996841D02*
X13177325Y-15987317D01*
X13177325Y-15987317D02*
X13148753Y-15987317D01*
X13148753Y-15987317D02*
X13129706Y-15977793D01*
X13129706Y-15977793D02*
X13120182Y-15958746D01*
X13120182Y-15958746D02*
X13120182Y-15949222D01*
X13120182Y-15949222D02*
X13129706Y-15930174D01*
X13129706Y-15930174D02*
X13148753Y-15920650D01*
X13148753Y-15920650D02*
X13177325Y-15920650D01*
X13177325Y-15920650D02*
X13196372Y-15930174D01*
X13272563Y-16130174D02*
X13282087Y-16120650D01*
X13282087Y-16120650D02*
X13301134Y-16092079D01*
X13301134Y-16092079D02*
X13310658Y-16073031D01*
X13310658Y-16073031D02*
X13320182Y-16044460D01*
X13320182Y-16044460D02*
X13329706Y-15996841D01*
X13329706Y-15996841D02*
X13329706Y-15958746D01*
X13329706Y-15958746D02*
X13320182Y-15911127D01*
X13320182Y-15911127D02*
X13310658Y-15882555D01*
X13310658Y-15882555D02*
X13301134Y-15863508D01*
X13301134Y-15863508D02*
X13282087Y-15834936D01*
X13282087Y-15834936D02*
X13272563Y-15825412D01*
X13634468Y-16130174D02*
X13624944Y-16120650D01*
X13624944Y-16120650D02*
X13605896Y-16092079D01*
X13605896Y-16092079D02*
X13596372Y-16073031D01*
X13596372Y-16073031D02*
X13586849Y-16044460D01*
X13586849Y-16044460D02*
X13577325Y-15996841D01*
X13577325Y-15996841D02*
X13577325Y-15958746D01*
X13577325Y-15958746D02*
X13586849Y-15911127D01*
X13586849Y-15911127D02*
X13596372Y-15882555D01*
X13596372Y-15882555D02*
X13605896Y-15863508D01*
X13605896Y-15863508D02*
X13624944Y-15834936D01*
X13624944Y-15834936D02*
X13634468Y-15825412D01*
X13710658Y-15920650D02*
X13710658Y-16053984D01*
X13710658Y-15939698D02*
X13720182Y-15930174D01*
X13720182Y-15930174D02*
X13739230Y-15920650D01*
X13739230Y-15920650D02*
X13767801Y-15920650D01*
X13767801Y-15920650D02*
X13786849Y-15930174D01*
X13786849Y-15930174D02*
X13796372Y-15949222D01*
X13796372Y-15949222D02*
X13796372Y-16053984D01*
X13920182Y-16053984D02*
X13901134Y-16044460D01*
X13901134Y-16044460D02*
X13891611Y-16034936D01*
X13891611Y-16034936D02*
X13882087Y-16015888D01*
X13882087Y-16015888D02*
X13882087Y-15958746D01*
X13882087Y-15958746D02*
X13891611Y-15939698D01*
X13891611Y-15939698D02*
X13901134Y-15930174D01*
X13901134Y-15930174D02*
X13920182Y-15920650D01*
X13920182Y-15920650D02*
X13948753Y-15920650D01*
X13948753Y-15920650D02*
X13967801Y-15930174D01*
X13967801Y-15930174D02*
X13977325Y-15939698D01*
X13977325Y-15939698D02*
X13986849Y-15958746D01*
X13986849Y-15958746D02*
X13986849Y-16015888D01*
X13986849Y-16015888D02*
X13977325Y-16034936D01*
X13977325Y-16034936D02*
X13967801Y-16044460D01*
X13967801Y-16044460D02*
X13948753Y-16053984D01*
X13948753Y-16053984D02*
X13920182Y-16053984D01*
X14043992Y-15920650D02*
X14120182Y-15920650D01*
X14072563Y-15853984D02*
X14072563Y-16025412D01*
X14072563Y-16025412D02*
X14082087Y-16044460D01*
X14082087Y-16044460D02*
X14101134Y-16053984D01*
X14101134Y-16053984D02*
X14120182Y-16053984D01*
X14339230Y-15920650D02*
X14339230Y-16120650D01*
X14339230Y-15930174D02*
X14358277Y-15920650D01*
X14358277Y-15920650D02*
X14396373Y-15920650D01*
X14396373Y-15920650D02*
X14415420Y-15930174D01*
X14415420Y-15930174D02*
X14424944Y-15939698D01*
X14424944Y-15939698D02*
X14434468Y-15958746D01*
X14434468Y-15958746D02*
X14434468Y-16015888D01*
X14434468Y-16015888D02*
X14424944Y-16034936D01*
X14424944Y-16034936D02*
X14415420Y-16044460D01*
X14415420Y-16044460D02*
X14396373Y-16053984D01*
X14396373Y-16053984D02*
X14358277Y-16053984D01*
X14358277Y-16053984D02*
X14339230Y-16044460D01*
X14548753Y-16053984D02*
X14529706Y-16044460D01*
X14529706Y-16044460D02*
X14520182Y-16025412D01*
X14520182Y-16025412D02*
X14520182Y-15853984D01*
X14710658Y-16053984D02*
X14710658Y-15949222D01*
X14710658Y-15949222D02*
X14701134Y-15930174D01*
X14701134Y-15930174D02*
X14682087Y-15920650D01*
X14682087Y-15920650D02*
X14643992Y-15920650D01*
X14643992Y-15920650D02*
X14624944Y-15930174D01*
X14710658Y-16044460D02*
X14691611Y-16053984D01*
X14691611Y-16053984D02*
X14643992Y-16053984D01*
X14643992Y-16053984D02*
X14624944Y-16044460D01*
X14624944Y-16044460D02*
X14615420Y-16025412D01*
X14615420Y-16025412D02*
X14615420Y-16006365D01*
X14615420Y-16006365D02*
X14624944Y-15987317D01*
X14624944Y-15987317D02*
X14643992Y-15977793D01*
X14643992Y-15977793D02*
X14691611Y-15977793D01*
X14691611Y-15977793D02*
X14710658Y-15968269D01*
X14777325Y-15920650D02*
X14853515Y-15920650D01*
X14805896Y-15853984D02*
X14805896Y-16025412D01*
X14805896Y-16025412D02*
X14815420Y-16044460D01*
X14815420Y-16044460D02*
X14834468Y-16053984D01*
X14834468Y-16053984D02*
X14853515Y-16053984D01*
X14996373Y-16044460D02*
X14977325Y-16053984D01*
X14977325Y-16053984D02*
X14939230Y-16053984D01*
X14939230Y-16053984D02*
X14920182Y-16044460D01*
X14920182Y-16044460D02*
X14910658Y-16025412D01*
X14910658Y-16025412D02*
X14910658Y-15949222D01*
X14910658Y-15949222D02*
X14920182Y-15930174D01*
X14920182Y-15930174D02*
X14939230Y-15920650D01*
X14939230Y-15920650D02*
X14977325Y-15920650D01*
X14977325Y-15920650D02*
X14996373Y-15930174D01*
X14996373Y-15930174D02*
X15005896Y-15949222D01*
X15005896Y-15949222D02*
X15005896Y-15968269D01*
X15005896Y-15968269D02*
X14910658Y-15987317D01*
X15177325Y-16053984D02*
X15177325Y-15853984D01*
X15177325Y-16044460D02*
X15158277Y-16053984D01*
X15158277Y-16053984D02*
X15120182Y-16053984D01*
X15120182Y-16053984D02*
X15101134Y-16044460D01*
X15101134Y-16044460D02*
X15091611Y-16034936D01*
X15091611Y-16034936D02*
X15082087Y-16015888D01*
X15082087Y-16015888D02*
X15082087Y-15958746D01*
X15082087Y-15958746D02*
X15091611Y-15939698D01*
X15091611Y-15939698D02*
X15101134Y-15930174D01*
X15101134Y-15930174D02*
X15120182Y-15920650D01*
X15120182Y-15920650D02*
X15158277Y-15920650D01*
X15158277Y-15920650D02*
X15177325Y-15930174D01*
X15253515Y-16130174D02*
X15263039Y-16120650D01*
X15263039Y-16120650D02*
X15282087Y-16092079D01*
X15282087Y-16092079D02*
X15291611Y-16073031D01*
X15291611Y-16073031D02*
X15301134Y-16044460D01*
X15301134Y-16044460D02*
X15310658Y-15996841D01*
X15310658Y-15996841D02*
X15310658Y-15958746D01*
X15310658Y-15958746D02*
X15301134Y-15911127D01*
X15301134Y-15911127D02*
X15291611Y-15882555D01*
X15291611Y-15882555D02*
X15282087Y-15863508D01*
X15282087Y-15863508D02*
X15263039Y-15834936D01*
X15263039Y-15834936D02*
X15253515Y-15825412D01*
M02*
