M48
; DRILL file {KiCad 8.0.0} date 2024-03-30T16:18:12+0100
; FORMAT={-:-/ absolute / metric / decimal}
; #@! TF.CreationDate,2024-03-30T16:18:12+01:00
; #@! TF.GenerationSoftware,Kicad,Pcbnew,8.0.0
; #@! TF.FileFunction,Plated,1,2,PTH
FMAT,2
METRIC
; #@! TA.AperFunction,Plated,PTH,ViaDrill
T1C0.300
; #@! TA.AperFunction,Plated,PTH,ViaDrill
T2C0.400
; #@! TA.AperFunction,Plated,PTH,ViaDrill
T3C0.600
; #@! TA.AperFunction,Plated,PTH,ComponentDrill
T4C0.780
; #@! TA.AperFunction,Plated,PTH,ViaDrill
T5C0.800
; #@! TA.AperFunction,Plated,PTH,ComponentDrill
T6C1.000
; #@! TA.AperFunction,Plated,PTH,ComponentDrill
T7C1.520
; #@! TA.AperFunction,Plated,PTH,ComponentDrill
T8C1.700
; #@! TA.AperFunction,Plated,PTH,ComponentDrill
T9C1.800
; #@! TA.AperFunction,Plated,PTH,ComponentDrill
T10C1.900
; #@! TA.AperFunction,Plated,PTH,ComponentDrill
T11C2.700
%
G90
G05
T1
X93.4Y-120.2
X93.6Y-116.0
X95.2Y-125.2
X102.9Y-114.7
X103.8Y-138.2
X103.9Y-115.3
X104.9Y-115.9
X106.7Y-130.3
X107.015Y-116.094
X107.715Y-116.517
X115.95Y-99.05
X117.8Y-125.0
X118.284Y-121.074
X119.6Y-120.8
X119.6Y-127.8
X126.0Y-98.6
X126.5Y-77.6
X127.7Y-77.7
X143.8Y-81.2
T2
X101.6Y-136.0
X101.737Y-132.737
X104.8Y-118.1
X104.8Y-119.1
X104.8Y-120.0
X105.7Y-118.1
X105.7Y-119.1
X105.7Y-120.0
X106.7Y-141.84
X108.207Y-111.307
X111.0Y-130.6
X115.3Y-96.0
X117.0Y-130.0
X117.8Y-108.2
X118.1Y-112.3
X119.2Y-113.2
X120.2Y-89.53
X121.4Y-92.93
X122.2Y-107.8
X129.05Y-83.15
X131.0Y-101.8
X131.6Y-68.7
X132.618Y-69.1
X134.6Y-93.3
X136.2Y-92.3
X138.2Y-92.4
X143.8Y-78.8
X147.8Y-87.8
X154.045Y-83.155
X156.7Y-80.8
X158.5Y-82.3
X172.2Y-80.8
X172.8Y-73.2
T3
X85.8Y-116.6
X86.4Y-122.2
X87.2Y-127.5
X87.3Y-117.2
X97.1Y-142.1
X108.8Y-135.1
X108.8Y-136.6
X110.3Y-135.2
X110.6Y-113.5
X110.7Y-115.2
X110.8Y-116.9
X112.2Y-113.5
X112.3Y-115.2
X112.4Y-116.9
X113.8Y-113.6
X113.9Y-115.3
X114.0Y-117.0
X115.9Y-139.2
X117.6Y-139.1
X119.3Y-139.0
T4
X117.96Y-58.5
X120.5Y-58.5
X123.04Y-58.5
T5
X86.4Y-51.3
X86.4Y-53.1
X86.4Y-58.1
X86.4Y-59.9
X86.9Y-144.4
X86.9Y-146.2
X87.0Y-142.6
X87.0Y-148.2
X88.2Y-51.3
X88.2Y-53.1
X88.2Y-58.1
X88.2Y-59.9
X89.2Y-148.6
X90.5Y-63.2
X91.0Y-148.6
X91.9Y-51.3
X91.9Y-53.1
X92.3Y-63.2
X93.1Y-148.4
X93.2Y-79.8
X93.2Y-81.6
X93.7Y-51.3
X93.7Y-53.1
X94.1Y-63.2
X94.5Y-122.1
X94.9Y-97.3
X94.9Y-99.1
X94.9Y-148.4
X95.0Y-79.8
X95.0Y-81.6
X95.2Y-112.7
X96.4Y-70.7
X96.4Y-72.5
X96.7Y-97.3
X96.7Y-99.1
X96.8Y-79.8
X96.8Y-81.6
X97.1Y-115.7
X97.2Y-112.7
X98.2Y-70.7
X98.2Y-72.5
X98.5Y-97.3
X98.5Y-99.1
X98.6Y-79.8
X98.6Y-81.6
X99.0Y-60.8
X99.1Y-115.7
X100.0Y-70.7
X100.0Y-72.5
X100.3Y-97.3
X100.3Y-99.1
X100.4Y-79.8
X100.4Y-81.6
X101.8Y-70.7
X101.8Y-72.5
X102.1Y-97.3
X102.1Y-99.1
X103.6Y-70.7
X103.6Y-72.5
X105.3Y-103.2
X105.3Y-105.2
X108.7Y-70.8
X110.5Y-70.8
X110.8Y-126.2
X112.3Y-70.8
X114.051Y-128.051
X114.1Y-70.8
X115.6Y-102.7
X115.6Y-104.5
X115.9Y-70.8
X120.7Y-79.0
X120.7Y-80.8
X121.6Y-62.4
X121.6Y-64.2
X121.6Y-85.3
X121.6Y-87.1
X122.1Y-68.2
X122.5Y-78.9
X122.5Y-80.8
X122.5Y-82.6
X123.4Y-62.4
X123.4Y-64.2
X123.4Y-87.1
X125.2Y-62.4
X125.2Y-64.2
X125.7Y-67.9
X128.0Y-139.7
X129.3Y-97.7
X129.8Y-139.7
X130.3Y-80.0
X131.4Y-106.2
X131.4Y-108.0
X131.4Y-109.8
X131.8Y-61.8
X133.2Y-106.2
X133.2Y-108.0
X133.2Y-109.8
X136.0Y-134.5
X136.0Y-136.3
X136.0Y-138.1
X136.2Y-66.4
X137.0Y-61.8
X137.5Y-76.6
X137.8Y-134.5
X137.8Y-136.3
X137.8Y-138.1
X138.7Y-85.0
X145.4Y-111.8
X145.8Y-129.7
X145.8Y-131.5
X147.6Y-129.7
X147.6Y-131.5
X149.8Y-108.6
X149.8Y-110.4
X151.6Y-108.6
X151.6Y-110.4
X154.2Y-139.3
X154.5Y-115.9
X155.2Y-61.5
X155.2Y-63.3
X155.8Y-82.5
X156.0Y-139.3
X156.3Y-115.9
X157.0Y-61.5
X157.0Y-63.3
X158.8Y-61.5
X158.8Y-63.3
X160.6Y-61.5
X160.6Y-63.3
X161.2Y-124.0
X162.8Y-61.5
X162.8Y-63.3
X164.6Y-61.5
X164.6Y-63.3
X166.39Y-103.71
X166.4Y-61.5
X166.4Y-63.3
X167.2Y-54.4
X168.2Y-61.5
X168.2Y-63.3
X169.2Y-54.4
X169.2Y-56.2
X170.0Y-61.5
X170.0Y-63.3
X172.2Y-51.6
X172.2Y-53.4
X172.2Y-55.2
X172.2Y-57.4
X172.2Y-59.2
X172.2Y-61.0
X172.3Y-98.9
X172.3Y-100.7
X174.0Y-51.6
X174.0Y-53.4
X174.0Y-55.2
X174.0Y-57.4
X174.0Y-59.2
X174.0Y-61.0
X174.1Y-98.9
X174.1Y-100.7
X174.4Y-121.8
X175.9Y-98.9
X175.9Y-100.7
X176.2Y-61.2
X176.2Y-63.0
X177.6Y-75.2
X177.6Y-77.0
X177.6Y-78.8
X177.6Y-80.8
X177.6Y-82.6
X177.6Y-84.4
X177.6Y-86.2
X177.6Y-88.0
X177.7Y-98.9
X177.7Y-100.7
X178.0Y-61.2
X178.0Y-63.0
X179.4Y-75.2
X179.4Y-77.0
X179.4Y-78.8
X179.4Y-80.8
X179.4Y-82.6
X179.4Y-84.4
X179.4Y-86.2
X179.4Y-88.0
X179.5Y-98.9
X179.5Y-100.7
X179.8Y-61.2
X179.8Y-63.0
X181.2Y-75.2
X181.2Y-77.0
X181.2Y-78.8
X181.2Y-80.8
X181.2Y-82.6
X181.2Y-84.4
X181.2Y-86.2
X181.2Y-88.0
X181.3Y-98.9
X181.3Y-100.7
X181.6Y-61.2
X181.6Y-63.0
X182.8Y-146.4
X182.8Y-148.2
X183.1Y-98.9
X183.1Y-100.7
X183.4Y-61.2
X183.4Y-63.0
T6
X87.0Y-131.6
X87.0Y-136.6
X87.4Y-65.0
X87.4Y-69.6
X97.2Y-123.2
X97.2Y-127.0
X97.2Y-130.8
X97.6Y-102.6
X101.2Y-128.4
X101.4Y-102.6
X108.9Y-58.9
X112.6Y-58.9
X118.8Y-134.6
X122.468Y-123.2
X122.9Y-140.137
X126.35Y-87.15
X127.468Y-123.2
X130.15Y-87.2
X133.9Y-140.137
X134.0Y-87.7
X137.9Y-87.7
X140.9Y-55.8
X140.9Y-60.8
X151.568Y-105.6
X156.568Y-105.6
X157.6Y-124.075
X162.2Y-121.2
X168.7Y-111.8
X178.2Y-128.4
T7
X98.28Y-144.24
X109.52Y-144.24
T8
X125.9Y-135.137
X130.9Y-135.137
X155.9Y-69.3
X155.9Y-94.3
X160.9Y-69.3
X160.9Y-94.3
X165.9Y-69.3
X165.9Y-94.3
X170.9Y-69.3
X170.9Y-94.3
X175.9Y-69.3
X175.9Y-94.3
X180.9Y-69.3
X180.9Y-94.3
T9
X99.013Y-84.916
X99.013Y-89.116
X99.013Y-93.316
X99.275Y-75.9
X104.775Y-75.9
X141.912Y-130.7
X141.912Y-136.2
X148.75Y-139.838
X162.25Y-139.838
X169.25Y-139.838
X182.75Y-139.838
T10
X98.28Y-148.24
X109.52Y-148.24
T11
X151.9Y-133.838
X159.1Y-133.838
X172.4Y-133.838
X179.6Y-133.838
M30
