%TF.GenerationSoftware,KiCad,Pcbnew,8.0.0*%
%TF.CreationDate,2024-03-30T16:18:17+01:00*%
%TF.ProjectId,schematic-main,73636865-6d61-4746-9963-2d6d61696e2e,rev?*%
%TF.SameCoordinates,Original*%
%TF.FileFunction,Copper,L2,Bot*%
%TF.FilePolarity,Positive*%
%FSLAX46Y46*%
G04 Gerber Fmt 4.6, Leading zero omitted, Abs format (unit mm)*
G04 Created by KiCad (PCBNEW 8.0.0) date 2024-03-30 16:18:17*
%MOMM*%
%LPD*%
G01*
G04 APERTURE LIST*
G04 Aperture macros list*
%AMRoundRect*
0 Rectangle with rounded corners*
0 $1 Rounding radius*
0 $2 $3 $4 $5 $6 $7 $8 $9 X,Y pos of 4 corners*
0 Add a 4 corners polygon primitive as box body*
4,1,4,$2,$3,$4,$5,$6,$7,$8,$9,$2,$3,0*
0 Add four circle primitives for the rounded corners*
1,1,$1+$1,$2,$3*
1,1,$1+$1,$4,$5*
1,1,$1+$1,$6,$7*
1,1,$1+$1,$8,$9*
0 Add four rect primitives between the rounded corners*
20,1,$1+$1,$2,$3,$4,$5,0*
20,1,$1+$1,$4,$5,$6,$7,0*
20,1,$1+$1,$6,$7,$8,$9,0*
20,1,$1+$1,$8,$9,$2,$3,0*%
G04 Aperture macros list end*
%TA.AperFunction,ComponentPad*%
%ADD10R,1.700000X1.700000*%
%TD*%
%TA.AperFunction,ComponentPad*%
%ADD11R,2.000000X2.000000*%
%TD*%
%TA.AperFunction,ComponentPad*%
%ADD12C,2.000000*%
%TD*%
%TA.AperFunction,ComponentPad*%
%ADD13C,5.000000*%
%TD*%
%TA.AperFunction,ComponentPad*%
%ADD14C,2.700000*%
%TD*%
%TA.AperFunction,ComponentPad*%
%ADD15R,2.300000X2.300000*%
%TD*%
%TA.AperFunction,ComponentPad*%
%ADD16C,2.300000*%
%TD*%
%TA.AperFunction,SMDPad,CuDef*%
%ADD17RoundRect,0.250000X-1.425000X0.362500X-1.425000X-0.362500X1.425000X-0.362500X1.425000X0.362500X0*%
%TD*%
%TA.AperFunction,ComponentPad*%
%ADD18C,2.280000*%
%TD*%
%TA.AperFunction,ComponentPad*%
%ADD19C,2.850000*%
%TD*%
%TA.AperFunction,ComponentPad*%
%ADD20RoundRect,0.250001X1.599999X-1.099999X1.599999X1.099999X-1.599999X1.099999X-1.599999X-1.099999X0*%
%TD*%
%TA.AperFunction,ComponentPad*%
%ADD21O,3.700000X2.700000*%
%TD*%
%TA.AperFunction,ComponentPad*%
%ADD22R,2.000000X4.000000*%
%TD*%
%TA.AperFunction,ComponentPad*%
%ADD23R,4.000000X4.000000*%
%TD*%
%TA.AperFunction,ComponentPad*%
%ADD24C,1.500000*%
%TD*%
%TA.AperFunction,ComponentPad*%
%ADD25C,3.000000*%
%TD*%
%TA.AperFunction,ComponentPad*%
%ADD26RoundRect,0.250001X1.099999X1.599999X-1.099999X1.599999X-1.099999X-1.599999X1.099999X-1.599999X0*%
%TD*%
%TA.AperFunction,ComponentPad*%
%ADD27O,2.700000X3.700000*%
%TD*%
%TA.AperFunction,SMDPad,CuDef*%
%ADD28RoundRect,0.250000X-0.325000X-0.650000X0.325000X-0.650000X0.325000X0.650000X-0.325000X0.650000X0*%
%TD*%
%TA.AperFunction,ViaPad*%
%ADD29C,1.600000*%
%TD*%
%TA.AperFunction,ViaPad*%
%ADD30C,1.200000*%
%TD*%
%TA.AperFunction,ViaPad*%
%ADD31C,0.800000*%
%TD*%
%TA.AperFunction,ViaPad*%
%ADD32C,0.600000*%
%TD*%
%TA.AperFunction,Conductor*%
%ADD33C,0.800000*%
%TD*%
%TA.AperFunction,Conductor*%
%ADD34C,1.500000*%
%TD*%
%TA.AperFunction,Conductor*%
%ADD35C,1.000000*%
%TD*%
%TA.AperFunction,Conductor*%
%ADD36C,5.000000*%
%TD*%
%TA.AperFunction,Conductor*%
%ADD37C,2.000000*%
%TD*%
%TA.AperFunction,Conductor*%
%ADD38C,3.000000*%
%TD*%
%TA.AperFunction,Conductor*%
%ADD39C,0.400000*%
%TD*%
%TA.AperFunction,Conductor*%
%ADD40C,0.500000*%
%TD*%
%TA.AperFunction,Conductor*%
%ADD41C,6.000000*%
%TD*%
G04 APERTURE END LIST*
D10*
%TO.P,TP3,1,1*%
%TO.N,+12V*%
X112600000Y-58900000D03*
%TD*%
%TO.P,D_P_W,1,1*%
%TO.N,Net-(R43-Pad1)*%
X87000000Y-131600000D03*
%TD*%
%TO.P,D_Pot_A,1,1*%
%TO.N,Net-(R52-Pad1)*%
X87000000Y-136600000D03*
%TD*%
D11*
%TO.P,C45,1*%
%TO.N,/Converter/SC_c1*%
X156567677Y-105600000D03*
D12*
%TO.P,C45,2*%
%TO.N,GND*%
X151567677Y-105600000D03*
%TD*%
D10*
%TO.P,TP5,1,1*%
%TO.N,+5V*%
X140900000Y-60800000D03*
%TD*%
%TO.P,I/O3,1,1*%
%TO.N,Net-(R22-Pad1)*%
X97200000Y-130800000D03*
%TD*%
%TO.P,TP_SC,1,1*%
%TO.N,/Converter/MC_c1*%
X178200000Y-128400000D03*
%TD*%
D13*
%TO.P,J6,1,Pin_1*%
%TO.N,/Converter/MC_c1*%
X179600000Y-133837500D03*
D14*
%TO.P,J6,2,Pin_2*%
%TO.N,GND*%
X182750000Y-139837500D03*
D13*
X172400000Y-133837500D03*
D14*
X169250000Y-139837500D03*
%TD*%
D12*
%TO.P,PS1,1,VIN+*%
%TO.N,+12V*%
X117960000Y-58500000D03*
%TO.P,PS1,2,GND*%
%TO.N,GND*%
X120500000Y-58500000D03*
%TO.P,PS1,3,VOUT+*%
%TO.N,+5V*%
X123040000Y-58500000D03*
%TD*%
D10*
%TO.P,TP22,1,1*%
%TO.N,Net-(IC7-IN)*%
X137900000Y-87700000D03*
%TD*%
%TO.P,I/O4,1,1*%
%TO.N,Net-(R23-Pad1)*%
X101200000Y-128400000D03*
%TD*%
%TO.P,TP17,1,1*%
%TO.N,Net-(IC6-EN)*%
X126350000Y-87150000D03*
%TD*%
D13*
%TO.P,J5,1,Pin_1*%
%TO.N,/Converter/MC_c2*%
X159100000Y-133837500D03*
D14*
%TO.P,J5,2,Pin_2*%
%TO.N,GND*%
X162250000Y-139837500D03*
D13*
X151900000Y-133837500D03*
D14*
X148750000Y-139837500D03*
%TD*%
D10*
%TO.P,5V,1,1*%
%TO.N,+5V*%
X140900000Y-55800000D03*
%TD*%
D15*
%TO.P,J2,1,Pin_1*%
%TO.N,/IO/CANH*%
X99012900Y-93315750D03*
D16*
%TO.P,J2,2,Pin_2*%
%TO.N,/IO/CANL*%
X99012900Y-89115750D03*
%TO.P,J2,3,Pin_3*%
%TO.N,GND*%
X99012900Y-84915750D03*
%TD*%
D10*
%TO.P,FC_C,1,1*%
%TO.N,/Converter/FC_c_MCU*%
X157600000Y-124075000D03*
%TD*%
%TO.P,TP1,1,1*%
%TO.N,GND*%
X97600000Y-102600000D03*
%TD*%
D17*
%TO.P,R35,1*%
%TO.N,/Converter/Bootstrap_B*%
X165400000Y-103737500D03*
%TO.P,R35,2*%
%TO.N,Net-(C43-Pad2)*%
X165400000Y-109662500D03*
%TD*%
D11*
%TO.P,C32,1*%
%TO.N,/Converter/FC_c1*%
X127467677Y-123200000D03*
D12*
%TO.P,C32,2*%
%TO.N,GND*%
X122467677Y-123200000D03*
%TD*%
D18*
%TO.P,P1,A1,GND*%
%TO.N,GND*%
X98280000Y-144240000D03*
D19*
X98280000Y-148240000D03*
D18*
X109520000Y-144240000D03*
D19*
X109520000Y-148240000D03*
%TD*%
D10*
%TO.P,TP8,1,1*%
%TO.N,+3.3V*%
X87400000Y-69600000D03*
%TD*%
%TO.P,TP18,1,1*%
%TO.N,Net-(IC6-IN)*%
X130150000Y-87200000D03*
%TD*%
%TO.P,MC_C,1,1*%
%TO.N,/Converter/MC_c_MCU*%
X168700000Y-111800000D03*
%TD*%
D20*
%TO.P,J1,1,Pin_1*%
%TO.N,GND*%
X99275000Y-75900000D03*
D21*
%TO.P,J1,2,Pin_2*%
%TO.N,/Power /Vin*%
X104775000Y-75900000D03*
%TD*%
D10*
%TO.P,3.3V,1,1*%
%TO.N,+3.3V*%
X87400000Y-65000000D03*
%TD*%
%TO.P,I/O2,1,1*%
%TO.N,Net-(R21-Pad1)*%
X97200000Y-127000000D03*
%TD*%
%TO.P,TP_FC,1,1*%
%TO.N,/Converter/FC+*%
X118800000Y-134600000D03*
%TD*%
D22*
%TO.P,L3,1,1*%
%TO.N,/Converter/Bootstrap_A*%
X180900000Y-69300000D03*
X175900000Y-69300000D03*
X170900000Y-69300000D03*
D23*
X165900000Y-69300000D03*
X160900000Y-69300000D03*
X155900000Y-69300000D03*
D22*
%TO.P,L3,2,2*%
%TO.N,/Converter/Bootstrap_B*%
X180900000Y-94300000D03*
X175900000Y-94300000D03*
X170900000Y-94300000D03*
D23*
X165900000Y-94300000D03*
X160900000Y-94300000D03*
X155900000Y-94300000D03*
%TD*%
D10*
%TO.P,12V,1,1*%
%TO.N,+12V*%
X108900000Y-58900000D03*
%TD*%
D24*
%TO.P,J3,1,Pin_1*%
%TO.N,GND*%
X133900000Y-140137500D03*
D25*
X130900000Y-135137500D03*
D24*
X122900000Y-140137500D03*
D25*
%TO.P,J3,2,Pin_2*%
%TO.N,/Converter/FC+*%
X125900000Y-135137500D03*
%TD*%
D10*
%TO.P,SC_C,1,1*%
%TO.N,/Converter/SC_c_MCU*%
X162200000Y-121200000D03*
%TD*%
D26*
%TO.P,J4,1,Pin_1*%
%TO.N,/Converter/MC_c1*%
X141912500Y-136200000D03*
D27*
%TO.P,J4,2,Pin_2*%
%TO.N,GND*%
X141912500Y-130700000D03*
%TD*%
D10*
%TO.P,TP21,1,1*%
%TO.N,Net-(IC7-EN)*%
X134000000Y-87700000D03*
%TD*%
%TO.P,I/O1,1,1*%
%TO.N,Net-(R20-Pad1)*%
X97200000Y-123200000D03*
%TD*%
%TO.P,TP2,1,1*%
%TO.N,GND*%
X101400000Y-102600000D03*
%TD*%
D28*
%TO.P,C43,1*%
%TO.N,/Converter/FC_c2*%
X157625000Y-113200000D03*
%TO.P,C43,2*%
%TO.N,Net-(C43-Pad2)*%
X160575000Y-113200000D03*
%TD*%
D17*
%TO.P,R36,1*%
%TO.N,GND*%
X169000000Y-83337500D03*
%TO.P,R36,2*%
%TO.N,Net-(C44-Pad2)*%
X169000000Y-89262500D03*
%TD*%
D28*
%TO.P,C44,1*%
%TO.N,/Converter/Bootstrap_B*%
X162525000Y-88600000D03*
%TO.P,C44,2*%
%TO.N,Net-(C44-Pad2)*%
X165475000Y-88600000D03*
%TD*%
D29*
%TO.N,GND*%
X137000000Y-61800000D03*
X131800000Y-61800000D03*
D30*
X87200000Y-127500000D03*
X86400000Y-122200000D03*
D29*
X129800000Y-139700000D03*
X128000000Y-139700000D03*
X182800000Y-148200000D03*
X182800000Y-146400000D03*
X156300000Y-115900000D03*
X154500000Y-115900000D03*
%TO.N,/Converter/FC_c2*%
X145400000Y-111800000D03*
%TO.N,/Converter/Bootstrap_B*%
X166389554Y-103710446D03*
%TO.N,/VBUS*%
X99000000Y-60800000D03*
D30*
X97100000Y-142100000D03*
D31*
X106700000Y-141840000D03*
D30*
%TO.N,GND*%
X119300000Y-139000000D03*
X108800000Y-135100000D03*
D29*
X156000000Y-139300000D03*
X179500000Y-98900000D03*
X177600000Y-77000000D03*
X158800000Y-63300000D03*
X175900000Y-100700000D03*
X87000000Y-148200000D03*
X177600000Y-84400000D03*
D30*
X108800000Y-136600000D03*
D29*
X170000000Y-61500000D03*
X110800000Y-126200000D03*
X98600000Y-79800000D03*
D30*
X115900000Y-139200000D03*
D29*
X122500000Y-80800000D03*
X91900000Y-51300000D03*
X181200000Y-86200000D03*
X133200000Y-108000000D03*
X136000000Y-136300000D03*
D31*
X104800000Y-119100000D03*
D29*
X123400000Y-62400000D03*
D30*
X113900000Y-115300000D03*
D29*
X137800000Y-138100000D03*
X96800000Y-81600000D03*
X86400000Y-51300000D03*
X91000000Y-148600000D03*
D31*
X104800000Y-120000000D03*
D29*
X145800000Y-131500000D03*
X93200000Y-81600000D03*
X95200000Y-112700000D03*
X86900000Y-146200000D03*
X174100000Y-98900000D03*
X91900000Y-53100000D03*
D30*
X110800000Y-116900000D03*
D29*
X181300000Y-100700000D03*
X131400000Y-106200000D03*
X172200000Y-59200000D03*
X98500000Y-99100000D03*
X181200000Y-78800000D03*
X179400000Y-75200000D03*
X164600000Y-61500000D03*
X183100000Y-98900000D03*
X172200000Y-57400000D03*
X122500000Y-82600000D03*
X176200000Y-63000000D03*
X179400000Y-78800000D03*
X160600000Y-61500000D03*
X102100000Y-97300000D03*
X94900000Y-97300000D03*
X86400000Y-59900000D03*
X105300000Y-105200000D03*
X149800000Y-110400000D03*
X133200000Y-109800000D03*
X102100000Y-99100000D03*
X179400000Y-88000000D03*
D30*
X110300000Y-135200000D03*
D29*
X121600000Y-62400000D03*
X105300000Y-103200000D03*
X164600000Y-63300000D03*
X103600000Y-72500000D03*
X93700000Y-51300000D03*
X131400000Y-108000000D03*
X137800000Y-136300000D03*
X174000000Y-55200000D03*
X100000000Y-70700000D03*
X172200000Y-61000000D03*
X94900000Y-99100000D03*
X174000000Y-61000000D03*
D31*
X104800000Y-118100000D03*
D29*
X172300000Y-100700000D03*
X179500000Y-100700000D03*
X86900000Y-144400000D03*
X101800000Y-72500000D03*
D30*
X87300000Y-117200000D03*
X110700000Y-115200000D03*
D29*
X162800000Y-61500000D03*
X183400000Y-63000000D03*
D30*
X114000000Y-117000000D03*
D32*
X143800000Y-81200000D03*
D29*
X99100000Y-115700000D03*
X114100000Y-70800000D03*
X100400000Y-81600000D03*
X121600000Y-64200000D03*
X181200000Y-82600000D03*
X158800000Y-61500000D03*
X181200000Y-75200000D03*
X179800000Y-61200000D03*
X97100000Y-115700000D03*
X179400000Y-80800000D03*
X181300000Y-98900000D03*
X120700000Y-80800000D03*
X177600000Y-88000000D03*
X136000000Y-138100000D03*
X100300000Y-97300000D03*
X94900000Y-148400000D03*
X123400000Y-87100000D03*
X178000000Y-63000000D03*
D31*
X101737500Y-132737500D03*
D29*
X125200000Y-64200000D03*
D30*
X117600000Y-139100000D03*
D29*
X162800000Y-63300000D03*
X98600000Y-81600000D03*
X96700000Y-97300000D03*
X87000000Y-142600000D03*
X88200000Y-58100000D03*
X122500000Y-78900000D03*
X103600000Y-70700000D03*
X96700000Y-99100000D03*
X177600000Y-86200000D03*
X123400000Y-64200000D03*
X174400000Y-121800000D03*
D30*
X112300000Y-115200000D03*
D29*
X101800000Y-70700000D03*
X115600000Y-104500000D03*
X168200000Y-63300000D03*
X96400000Y-72500000D03*
X155200000Y-61500000D03*
X179400000Y-84400000D03*
X147600000Y-129700000D03*
X172300000Y-98900000D03*
X136200000Y-66400000D03*
X181200000Y-84400000D03*
X96800000Y-79800000D03*
D30*
X110600000Y-113500000D03*
D29*
X110500000Y-70800000D03*
X174000000Y-57400000D03*
X125200000Y-62400000D03*
X100000000Y-72500000D03*
D30*
X113800000Y-113600000D03*
D29*
X115900000Y-70800000D03*
X181600000Y-63000000D03*
X174000000Y-59200000D03*
D30*
X112200000Y-113500000D03*
D29*
X179400000Y-82600000D03*
X181200000Y-88000000D03*
X174100000Y-100700000D03*
X174000000Y-51600000D03*
X95000000Y-79800000D03*
X157000000Y-63300000D03*
D30*
X85800000Y-116600000D03*
D29*
X177600000Y-80800000D03*
X181200000Y-80800000D03*
X136000000Y-134500000D03*
X166400000Y-61500000D03*
X98500000Y-97300000D03*
X121600000Y-85300000D03*
X112300000Y-70800000D03*
X172200000Y-51600000D03*
X183100000Y-100700000D03*
X138700000Y-85000000D03*
X160600000Y-63300000D03*
X177600000Y-75200000D03*
X181600000Y-61200000D03*
X88200000Y-59900000D03*
X97200000Y-112700000D03*
X154200000Y-139300000D03*
X115600000Y-102700000D03*
X88200000Y-53100000D03*
X133200000Y-106200000D03*
X166400000Y-63300000D03*
X95000000Y-81600000D03*
X179800000Y-63000000D03*
X93100000Y-148400000D03*
X100300000Y-99100000D03*
X177700000Y-100700000D03*
X151600000Y-108600000D03*
X86400000Y-53100000D03*
X86400000Y-58100000D03*
X147600000Y-131500000D03*
X177600000Y-82600000D03*
D30*
X112400000Y-116900000D03*
D29*
X177700000Y-98900000D03*
X174000000Y-53400000D03*
X151600000Y-110400000D03*
X89200000Y-148600000D03*
D31*
X105700000Y-119100000D03*
D29*
X129300000Y-97700000D03*
X170000000Y-63300000D03*
X176200000Y-61200000D03*
X178000000Y-61200000D03*
X93200000Y-79800000D03*
X177600000Y-78800000D03*
X179400000Y-77000000D03*
X120700000Y-79000000D03*
D31*
X105700000Y-120000000D03*
D29*
X121600000Y-87100000D03*
X130300000Y-80000000D03*
X155200000Y-63300000D03*
X108700000Y-70800000D03*
X175900000Y-98900000D03*
X98200000Y-72500000D03*
X181200000Y-77000000D03*
X137800000Y-134500000D03*
X172200000Y-53400000D03*
X96400000Y-70700000D03*
X88200000Y-51300000D03*
X179400000Y-86200000D03*
X149800000Y-108600000D03*
X93700000Y-53100000D03*
X183400000Y-61200000D03*
X172200000Y-55200000D03*
D31*
X105700000Y-118100000D03*
D29*
X157000000Y-61500000D03*
X100400000Y-79800000D03*
X145800000Y-129700000D03*
X131400000Y-109800000D03*
X168200000Y-61500000D03*
X98200000Y-70700000D03*
%TO.N,+12V*%
X122100000Y-68200000D03*
D31*
%TO.N,/Converter/SC_c1*%
X147800000Y-87800000D03*
X131000000Y-101800000D03*
%TO.N,+3.3V*%
X122200000Y-107800000D03*
D29*
X90500000Y-63200000D03*
D31*
X101600000Y-136000000D03*
X108207107Y-111307107D03*
D29*
X94100000Y-63200000D03*
X167200000Y-54400000D03*
X114051471Y-128051471D03*
D31*
X117800000Y-108200000D03*
D29*
X169200000Y-56200000D03*
D32*
X103800000Y-138200000D03*
D29*
X169200000Y-54400000D03*
X94500000Y-122100000D03*
D31*
X121400000Y-92930000D03*
X120200000Y-89530000D03*
D29*
X92300000Y-63200000D03*
D32*
%TO.N,/IO/SC_Voltage_MCU*%
X107014870Y-116094483D03*
X126000000Y-98600000D03*
%TO.N,/IO/FC_Voltage_MCU*%
X115950000Y-99050000D03*
X107714870Y-116516678D03*
%TO.N,/MCU/RESET*%
X102900000Y-114700000D03*
X93600000Y-116000000D03*
%TO.N,/MCU/BOOT*%
X93400000Y-120200000D03*
X103900000Y-115300000D03*
%TO.N,/MCU/MCU_TEST*%
X95200000Y-125200000D03*
X104900000Y-115900000D03*
D31*
%TO.N,/Converter/Low_mosfet_A*%
X156700000Y-80800000D03*
D29*
X125700000Y-67900000D03*
D31*
X172200000Y-80800000D03*
X172800000Y-73200000D03*
%TO.N,/Converter/FC_c2*%
X115300000Y-96000000D03*
X134600000Y-93300000D03*
%TO.N,/Converter/Converter_PWM_B_MCU*%
X138200000Y-92400000D03*
X119200000Y-113200000D03*
%TO.N,Net-(IC6-EN)*%
X131600000Y-68700000D03*
%TO.N,Net-(IC6-IN)*%
X132617902Y-69100000D03*
D29*
%TO.N,+5V*%
X161200000Y-124000000D03*
D31*
%TO.N,/Converter/High_mosfet_B*%
X143800000Y-78800000D03*
X154045406Y-83154594D03*
%TO.N,/Converter/Low_mosfet_B*%
X158500000Y-82300000D03*
X129050000Y-83150000D03*
D32*
%TO.N,Net-(IC7-EN)*%
X126500000Y-77600000D03*
%TO.N,Net-(IC7-IN)*%
X127700000Y-77700000D03*
D29*
%TO.N,/Converter/Bootstrap_B*%
X137500000Y-76600000D03*
X155800000Y-82500000D03*
D32*
%TO.N,/Converter/MC_c_MCU*%
X117800000Y-125000000D03*
D31*
%TO.N,/IO/SDA_D_Pot_i2c_MCU*%
X111000000Y-130600000D03*
D32*
X118283665Y-121073616D03*
D31*
%TO.N,/IO/SCL_D_Pot_i2c_MCU*%
X117000000Y-130000000D03*
D32*
X119600000Y-120800000D03*
%TO.N,/Converter/SC_c_MCU*%
X119600000Y-127800000D03*
%TO.N,/Converter/FC_c_MCU*%
X106700000Y-130300000D03*
D31*
%TO.N,/Converter/Converter_ON_B_MCU*%
X136200000Y-92300000D03*
X118100000Y-112300000D03*
%TD*%
D33*
%TO.N,/Converter/Bootstrap_B*%
X155300000Y-82000000D02*
X155800000Y-82500000D01*
X152700000Y-82000000D02*
X155300000Y-82000000D01*
X137500000Y-76600000D02*
X139000000Y-75100000D01*
X139000000Y-75100000D02*
X145800000Y-75100000D01*
X145800000Y-75100000D02*
X152700000Y-82000000D01*
D34*
%TO.N,+5V*%
X138300000Y-127000000D02*
X158200000Y-127000000D01*
X114000000Y-136400000D02*
X121000000Y-136400000D01*
X158200000Y-127000000D02*
X161200000Y-124000000D01*
X134100000Y-131200000D02*
X138300000Y-127000000D01*
X126200000Y-131200000D02*
X134100000Y-131200000D01*
X121000000Y-136400000D02*
X126200000Y-131200000D01*
X110600000Y-139800000D02*
X114000000Y-136400000D01*
X97200000Y-139800000D02*
X110600000Y-139800000D01*
X91600000Y-134200000D02*
X97200000Y-139800000D01*
D35*
%TO.N,/VBUS*%
X99000000Y-61425000D02*
X99000000Y-60800000D01*
X86400000Y-74025000D02*
X99000000Y-61425000D01*
X86400000Y-109400000D02*
X86400000Y-74025000D01*
X89000000Y-135200000D02*
X89000000Y-112000000D01*
X95900000Y-142100000D02*
X89000000Y-135200000D01*
X97100000Y-142100000D02*
X95900000Y-142100000D01*
D33*
X97959268Y-142100000D02*
X98219268Y-141840000D01*
X97100000Y-142100000D02*
X97959268Y-142100000D01*
D35*
X89000000Y-112000000D02*
X86400000Y-109400000D01*
D33*
X98219268Y-141840000D02*
X106700000Y-141840000D01*
D36*
%TO.N,GND*%
X172400000Y-104700000D02*
X172400000Y-133837500D01*
X167910446Y-100210446D02*
X172400000Y-104700000D01*
X161189554Y-100210446D02*
X167910446Y-100210446D01*
X160800000Y-100600000D02*
X161189554Y-100210446D01*
X151600000Y-100600000D02*
X160800000Y-100600000D01*
D34*
%TO.N,/Converter/FC_c2*%
X156975000Y-113850000D02*
X157625000Y-113200000D01*
X147450000Y-113850000D02*
X156975000Y-113850000D01*
X145400000Y-111800000D02*
X147450000Y-113850000D01*
%TO.N,Net-(C43-Pad2)*%
X164112500Y-109662500D02*
X160575000Y-113200000D01*
X165400000Y-109662500D02*
X164112500Y-109662500D01*
D33*
%TO.N,/Converter/Bootstrap_B*%
X166362500Y-103737500D02*
X166389554Y-103710446D01*
X165400000Y-103737500D02*
X166362500Y-103737500D01*
D36*
%TO.N,GND*%
X151567677Y-110367677D02*
X151600000Y-110400000D01*
X151567677Y-105600000D02*
X151567677Y-110367677D01*
D37*
X110000000Y-147200000D02*
X110000000Y-148240000D01*
D36*
X176000000Y-84600000D02*
X179400000Y-88000000D01*
X130900000Y-135137500D02*
X135862500Y-135137500D01*
X173600000Y-63000000D02*
X178400000Y-63000000D01*
X148800000Y-97800000D02*
X148800000Y-91800000D01*
X112300000Y-118550252D02*
X109850252Y-121000000D01*
X157800000Y-77000000D02*
X165400000Y-84600000D01*
X151600000Y-101600000D02*
X151567677Y-101632323D01*
X122800000Y-122767677D02*
X122467677Y-123100000D01*
D33*
X109520000Y-143787208D02*
X108772792Y-143040000D01*
D34*
X173400000Y-63200000D02*
X173600000Y-63000000D01*
D35*
X105700000Y-120000000D02*
X104800000Y-120000000D01*
X104800000Y-120000000D02*
X104800000Y-118100000D01*
D36*
X134400000Y-106200000D02*
X149000000Y-91600000D01*
X123600000Y-117000000D02*
X122800000Y-117800000D01*
X122800000Y-117800000D02*
X122800000Y-122767677D01*
X157500000Y-88000000D02*
X163150000Y-82350000D01*
D33*
X108772792Y-143040000D02*
X99027208Y-143040000D01*
D36*
X131400000Y-109200000D02*
X131400000Y-106200000D01*
X154800000Y-77000000D02*
X157800000Y-77000000D01*
D35*
X104800000Y-119100000D02*
X105700000Y-119100000D01*
D36*
X97428650Y-102600000D02*
X102862900Y-97165750D01*
D34*
X147459189Y-85550000D02*
X151150000Y-89240811D01*
D36*
X109850252Y-121000000D02*
X107000000Y-121000000D01*
X173300000Y-134737500D02*
X172400000Y-133837500D01*
X97100000Y-115700000D02*
X97100000Y-103100000D01*
X151600000Y-100600000D02*
X148800000Y-97800000D01*
D35*
X105600000Y-136600000D02*
X101737500Y-132737500D01*
D36*
X123600000Y-117000000D02*
X131400000Y-109200000D01*
X109850252Y-121000000D02*
X109850252Y-124050252D01*
X151900000Y-135215065D02*
X160572435Y-143887500D01*
X97100000Y-103100000D02*
X97600000Y-102600000D01*
X99275000Y-83933127D02*
X99275000Y-75900000D01*
D33*
X98280000Y-143787208D02*
X98280000Y-148240000D01*
D36*
X112300000Y-115200000D02*
X112300000Y-118550252D01*
X139775000Y-131225000D02*
X141500000Y-131225000D01*
X101400000Y-102600000D02*
X97428650Y-102600000D01*
D34*
X177050000Y-75200000D02*
X173400000Y-71550000D01*
D36*
X110600000Y-113500000D02*
X110800000Y-113700000D01*
X110800000Y-113700000D02*
X110800000Y-116900000D01*
X173600000Y-63000000D02*
X153800000Y-63000000D01*
X141500000Y-131225000D02*
X149287500Y-131225000D01*
X149287500Y-131225000D02*
X151900000Y-133837500D01*
X165400000Y-84600000D02*
X176000000Y-84600000D01*
X109850252Y-124050252D02*
X111000000Y-125200000D01*
D35*
X108800000Y-136600000D02*
X105600000Y-136600000D01*
D33*
X99027208Y-143040000D02*
X98280000Y-143787208D01*
D34*
X139250000Y-85550000D02*
X147459189Y-85550000D01*
X151150000Y-89240811D02*
X151150000Y-89450000D01*
D36*
X102862900Y-87521027D02*
X99275000Y-83933127D01*
X114000000Y-117000000D02*
X114000000Y-113800000D01*
X150000000Y-66800000D02*
X150000000Y-72200000D01*
D35*
X105700000Y-120000000D02*
X105700000Y-118100000D01*
D36*
X97600000Y-102600000D02*
X101400000Y-102600000D01*
X160572435Y-143887500D02*
X170927565Y-143887500D01*
X151900000Y-133837500D02*
X151900000Y-135215065D01*
X153800000Y-63000000D02*
X150000000Y-66800000D01*
X130900000Y-137258820D02*
X121158820Y-147000000D01*
X102862900Y-97165750D02*
X102862900Y-87521027D01*
X114000000Y-117000000D02*
X123600000Y-117000000D01*
X152600000Y-88000000D02*
X157500000Y-88000000D01*
D33*
X109520000Y-148240000D02*
X109520000Y-143787208D01*
D36*
X135862500Y-135137500D02*
X139775000Y-131225000D01*
X173300000Y-141515065D02*
X173300000Y-134737500D01*
X130900000Y-135137500D02*
X130900000Y-137258820D01*
D37*
X110200000Y-147000000D02*
X110000000Y-147200000D01*
D34*
X177600000Y-75200000D02*
X177050000Y-75200000D01*
D36*
X150000000Y-72200000D02*
X154800000Y-77000000D01*
D34*
X173400000Y-71550000D02*
X173400000Y-63200000D01*
D36*
X151567677Y-101632323D02*
X151567677Y-105600000D01*
X170927565Y-143887500D02*
X173300000Y-141515065D01*
D34*
X138700000Y-85000000D02*
X139250000Y-85550000D01*
D36*
X121158820Y-147000000D02*
X111800000Y-147000000D01*
X149000000Y-91600000D02*
X152600000Y-88000000D01*
D37*
X111800000Y-147000000D02*
X110200000Y-147000000D01*
D34*
X179400000Y-75200000D02*
X179400000Y-75000000D01*
D36*
X131400000Y-106200000D02*
X134400000Y-106200000D01*
X151600000Y-100600000D02*
X151600000Y-101600000D01*
D35*
X105700000Y-119100000D02*
X105700000Y-120000000D01*
D36*
X178400000Y-63000000D02*
X181600000Y-63000000D01*
X148800000Y-91800000D02*
X149000000Y-91600000D01*
D37*
%TO.N,+12V*%
X117960000Y-64060000D02*
X117960000Y-58500000D01*
X122100000Y-68200000D02*
X117960000Y-64060000D01*
D33*
%TO.N,/Converter/SC_c1*%
X146800000Y-87800000D02*
X147800000Y-87800000D01*
X132800000Y-101800000D02*
X146800000Y-87800000D01*
X131000000Y-101800000D02*
X132800000Y-101800000D01*
D34*
%TO.N,+3.3V*%
X94400000Y-133800000D02*
X96600000Y-136000000D01*
D38*
X164600000Y-54400000D02*
X162420000Y-52220000D01*
D34*
X114051471Y-128051471D02*
X113302942Y-128800000D01*
D33*
X109799894Y-109714320D02*
X108207107Y-111307107D01*
D34*
X93800000Y-133000000D02*
X94400000Y-133600000D01*
D38*
X167200000Y-54400000D02*
X164600000Y-54400000D01*
D34*
X98000000Y-133600000D02*
X94400000Y-133600000D01*
D38*
X94100000Y-63200000D02*
X90500000Y-63200000D01*
D39*
X121400000Y-92930000D02*
X121400000Y-90730000D01*
D33*
X117800000Y-108200000D02*
X116285680Y-109714320D01*
D34*
X94400000Y-133600000D02*
X94400000Y-133800000D01*
X100800000Y-130800000D02*
X98000000Y-133600000D01*
X104000000Y-130800000D02*
X100800000Y-130800000D01*
D37*
X169200000Y-56200000D02*
X169200000Y-54400000D01*
D38*
X91700000Y-63200000D02*
X91100000Y-63200000D01*
D33*
X118200000Y-107800000D02*
X117800000Y-108200000D01*
X122200000Y-107800000D02*
X118200000Y-107800000D01*
D39*
X121400000Y-90730000D02*
X120200000Y-89530000D01*
D38*
X97980000Y-52220000D02*
X96400000Y-53800000D01*
X162420000Y-52220000D02*
X97980000Y-52220000D01*
D34*
X96600000Y-136000000D02*
X101600000Y-136000000D01*
D38*
X169200000Y-54400000D02*
X167200000Y-54400000D01*
D33*
X116285680Y-109714320D02*
X109799894Y-109714320D01*
D34*
X106000000Y-128800000D02*
X104000000Y-130800000D01*
D38*
X96400000Y-53800000D02*
X96400000Y-59400000D01*
X96400000Y-59400000D02*
X92600000Y-63200000D01*
D34*
X94500000Y-122100000D02*
X93800000Y-122800000D01*
X113302942Y-128800000D02*
X106000000Y-128800000D01*
D38*
X92600000Y-63200000D02*
X92300000Y-63200000D01*
D33*
X101600000Y-136000000D02*
X103800000Y-138200000D01*
D34*
X93800000Y-122800000D02*
X93800000Y-133000000D01*
D40*
%TO.N,/IO/SC_Voltage_MCU*%
X107014870Y-115514870D02*
X105600000Y-114100000D01*
D33*
X115100000Y-97900000D02*
X125300000Y-97900000D01*
D40*
X107014870Y-116094483D02*
X107014870Y-115514870D01*
D33*
X105600000Y-107400000D02*
X115100000Y-97900000D01*
D40*
X105600000Y-114100000D02*
X105600000Y-113585786D01*
D33*
X125300000Y-97900000D02*
X126000000Y-98600000D01*
X105600000Y-113585786D02*
X105600000Y-107400000D01*
D39*
%TO.N,/IO/FC_Voltage_MCU*%
X107714870Y-114314870D02*
X107000000Y-113600000D01*
X107714870Y-116516678D02*
X107714870Y-114314870D01*
D33*
X115950000Y-99050000D02*
X107000000Y-108000000D01*
X107000000Y-108000000D02*
X107000000Y-113600000D01*
D39*
%TO.N,/MCU/RESET*%
X93600000Y-116000000D02*
X93600000Y-118400000D01*
X94400000Y-119200000D02*
X98400000Y-119200000D01*
X98400000Y-119200000D02*
X102900000Y-114700000D01*
X93600000Y-118400000D02*
X94400000Y-119200000D01*
%TO.N,/MCU/BOOT*%
X103900000Y-115300000D02*
X99000000Y-120200000D01*
X99000000Y-120200000D02*
X93400000Y-120200000D01*
%TO.N,/MCU/MCU_TEST*%
X95200000Y-125200000D02*
X97700000Y-125200000D01*
X97700000Y-125200000D02*
X99400000Y-123500000D01*
X99400000Y-123500000D02*
X99400000Y-121400000D01*
X99400000Y-121400000D02*
X104900000Y-115900000D01*
D35*
%TO.N,/Converter/Low_mosfet_A*%
X129500000Y-64100000D02*
X136900000Y-64100000D01*
X172800000Y-73200000D02*
X172200000Y-73800000D01*
X172200000Y-73800000D02*
X172200000Y-80800000D01*
X153600000Y-80800000D02*
X156700000Y-80800000D01*
X136900000Y-64100000D02*
X153600000Y-80800000D01*
X125700000Y-67900000D02*
X129500000Y-64100000D01*
D33*
%TO.N,/Converter/FC_c2*%
X134600000Y-93300000D02*
X131700000Y-96200000D01*
X115500000Y-96200000D02*
X115300000Y-96000000D01*
X131700000Y-96200000D02*
X115500000Y-96200000D01*
%TO.N,/Converter/Converter_PWM_B_MCU*%
X124200001Y-108628427D02*
X119628428Y-113200000D01*
X124200001Y-106899999D02*
X124200001Y-108628427D01*
X138200000Y-92900000D02*
X124200001Y-106899999D01*
X138200000Y-92400000D02*
X138200000Y-92900000D01*
X119628428Y-113200000D02*
X119200000Y-113200000D01*
D40*
%TO.N,Net-(IC6-EN)*%
X126350000Y-87150000D02*
X126400000Y-87100000D01*
X124000000Y-76300000D02*
X124000000Y-84800000D01*
X131600000Y-68700000D02*
X124000000Y-76300000D01*
X126400000Y-87100000D02*
X126400000Y-86900000D01*
X124000000Y-84800000D02*
X126350000Y-87150000D01*
%TO.N,Net-(IC6-IN)*%
X132617902Y-69100000D02*
X132617902Y-69442806D01*
X132617902Y-69442806D02*
X125400000Y-76660708D01*
X128800000Y-85850000D02*
X130150000Y-87200000D01*
X125400000Y-76660708D02*
X125400000Y-84500000D01*
X126750000Y-85850000D02*
X128800000Y-85850000D01*
X125400000Y-84500000D02*
X126750000Y-85850000D01*
D37*
%TO.N,+5V*%
X107800000Y-55800000D02*
X140900000Y-55800000D01*
X88400000Y-75200000D02*
X107800000Y-55800000D01*
X91600000Y-134200000D02*
X91600000Y-111400000D01*
X88400000Y-108200000D02*
X88400000Y-75200000D01*
X91600000Y-111400000D02*
X88400000Y-108200000D01*
X140900000Y-55800000D02*
X140900000Y-60800000D01*
D35*
%TO.N,/Converter/High_mosfet_B*%
X151600000Y-82800000D02*
X152000000Y-83200000D01*
X147800000Y-82800000D02*
X151600000Y-82800000D01*
X143800000Y-78800000D02*
X147800000Y-82800000D01*
X154000000Y-83200000D02*
X154045406Y-83154594D01*
X152000000Y-83200000D02*
X154000000Y-83200000D01*
%TO.N,/Converter/Low_mosfet_B*%
X130200000Y-82200000D02*
X142800000Y-82200000D01*
X129050000Y-83150000D02*
X129250000Y-83150000D01*
X144700000Y-84100000D02*
X148059799Y-84100000D01*
X142800000Y-82200000D02*
X144700000Y-84100000D01*
X148059799Y-84100000D02*
X148359799Y-84400000D01*
X156400000Y-84400000D02*
X158500000Y-82300000D01*
X129250000Y-83150000D02*
X130200000Y-82200000D01*
X148359799Y-84400000D02*
X156400000Y-84400000D01*
D40*
%TO.N,Net-(IC7-EN)*%
X126500000Y-83600000D02*
X128050000Y-85150000D01*
X128050000Y-85150000D02*
X131450000Y-85150000D01*
X131450000Y-85150000D02*
X134000000Y-87700000D01*
X126500000Y-77600000D02*
X126500000Y-83600000D01*
%TO.N,Net-(IC7-IN)*%
X134650000Y-84450000D02*
X128850000Y-84450000D01*
X137900000Y-87700000D02*
X134650000Y-84450000D01*
X128850000Y-84450000D02*
X127700000Y-83300000D01*
X127700000Y-83300000D02*
X127700000Y-77700000D01*
D34*
%TO.N,/Converter/Bootstrap_B*%
X162525000Y-88600000D02*
X162525000Y-92675000D01*
D41*
X155900000Y-94300000D02*
X169100000Y-94300000D01*
X169100000Y-94300000D02*
X169200000Y-94400000D01*
D34*
X162525000Y-92675000D02*
X160900000Y-94300000D01*
D41*
%TO.N,/Converter/Bootstrap_A*%
X155900000Y-69300000D02*
X168700000Y-69300000D01*
X168700000Y-69300000D02*
X168800000Y-69400000D01*
D33*
%TO.N,/Converter/MC_c_MCU*%
X117800000Y-125000000D02*
X119000000Y-126200000D01*
X123600000Y-126200000D02*
X123700000Y-126100000D01*
X137300000Y-120400000D02*
X157300000Y-120400000D01*
X157300000Y-120400000D02*
X165900000Y-111800000D01*
X119000000Y-126200000D02*
X123600000Y-126200000D01*
X131600000Y-126100000D02*
X137300000Y-120400000D01*
X165900000Y-111800000D02*
X168700000Y-111800000D01*
X123700000Y-126100000D02*
X131600000Y-126100000D01*
D39*
%TO.N,/IO/SDA_D_Pot_i2c_MCU*%
X118283665Y-121073616D02*
X115400000Y-123957281D01*
X115400000Y-123957281D02*
X115400000Y-128400000D01*
X115400000Y-128400000D02*
X113200000Y-130600000D01*
X113200000Y-130600000D02*
X111000000Y-130600000D01*
%TO.N,/IO/SCL_D_Pot_i2c_MCU*%
X119600000Y-120800000D02*
X119600000Y-121200000D01*
X116200000Y-124600000D02*
X116200000Y-129200000D01*
X116200000Y-129200000D02*
X117000000Y-130000000D01*
X119600000Y-121200000D02*
X116200000Y-124600000D01*
D33*
%TO.N,/Converter/SC_c_MCU*%
X161250000Y-122150000D02*
X162200000Y-121200000D01*
X137850000Y-122150000D02*
X161250000Y-122150000D01*
X119600000Y-127800000D02*
X132200000Y-127800000D01*
X132200000Y-127800000D02*
X137850000Y-122150000D01*
%TO.N,/Converter/FC_c_MCU*%
X133200000Y-129400000D02*
X137925000Y-124675000D01*
X106700000Y-130300000D02*
X107214214Y-130814214D01*
X125200000Y-129400000D02*
X133200000Y-129400000D01*
X107214214Y-130814214D02*
X109800000Y-130814214D01*
X157000000Y-124675000D02*
X157600000Y-124075000D01*
X110585786Y-131600000D02*
X123000000Y-131600000D01*
X137925000Y-124675000D02*
X157000000Y-124675000D01*
X123000000Y-131600000D02*
X125200000Y-129400000D01*
X109800000Y-130814214D02*
X110585786Y-131600000D01*
%TO.N,/Converter/Converter_ON_B_MCU*%
X119214214Y-112200000D02*
X118200000Y-112200000D01*
X136200000Y-93350000D02*
X123200000Y-106350000D01*
X136200000Y-92300000D02*
X136200000Y-93350000D01*
X118200000Y-112200000D02*
X118100000Y-112300000D01*
X123200000Y-108214214D02*
X119214214Y-112200000D01*
X123200000Y-106350000D02*
X123200000Y-108214214D01*
D34*
%TO.N,Net-(C44-Pad2)*%
X165475000Y-88600000D02*
X168337500Y-88600000D01*
X168337500Y-88600000D02*
X169000000Y-89262500D01*
%TD*%
%TA.AperFunction,Conductor*%
%TO.N,GND*%
G36*
X184442539Y-50520185D02*
G01*
X184488294Y-50572989D01*
X184499500Y-50624500D01*
X184499500Y-149375500D01*
X184479815Y-149442539D01*
X184427011Y-149488294D01*
X184375500Y-149499500D01*
X109124500Y-149499500D01*
X109057461Y-149479815D01*
X109011706Y-149427011D01*
X109000500Y-149375500D01*
X109000500Y-143834110D01*
X109000500Y-143834108D01*
X108966392Y-143706814D01*
X108913233Y-143614741D01*
X140162000Y-143614741D01*
X140186904Y-143803895D01*
X140191952Y-143842238D01*
X140191953Y-143842240D01*
X140251342Y-144063887D01*
X140339150Y-144275876D01*
X140339157Y-144275890D01*
X140453892Y-144474617D01*
X140593581Y-144656661D01*
X140593589Y-144656670D01*
X140755830Y-144818911D01*
X140755838Y-144818918D01*
X140937882Y-144958607D01*
X140937885Y-144958608D01*
X140937888Y-144958611D01*
X141136612Y-145073344D01*
X141136617Y-145073346D01*
X141136623Y-145073349D01*
X141227980Y-145111190D01*
X141348613Y-145161158D01*
X141570262Y-145220548D01*
X141797766Y-145250500D01*
X141797773Y-145250500D01*
X142027227Y-145250500D01*
X142027234Y-145250500D01*
X142254738Y-145220548D01*
X142476387Y-145161158D01*
X142688388Y-145073344D01*
X142887112Y-144958611D01*
X143069161Y-144818919D01*
X143069165Y-144818914D01*
X143069170Y-144818911D01*
X143231411Y-144656670D01*
X143231414Y-144656665D01*
X143231419Y-144656661D01*
X143371111Y-144474612D01*
X143485844Y-144275888D01*
X143573658Y-144063887D01*
X143633048Y-143842238D01*
X143663000Y-143614734D01*
X143663000Y-143385266D01*
X143633048Y-143157762D01*
X143573658Y-142936113D01*
X143493806Y-142743334D01*
X143485849Y-142724123D01*
X143485846Y-142724117D01*
X143485844Y-142724112D01*
X143371111Y-142525388D01*
X143371108Y-142525385D01*
X143371107Y-142525382D01*
X143231418Y-142343338D01*
X143231411Y-142343330D01*
X143069170Y-142181089D01*
X143069161Y-142181081D01*
X142887117Y-142041392D01*
X142688390Y-141926657D01*
X142688376Y-141926650D01*
X142476387Y-141838842D01*
X142254738Y-141779452D01*
X142216715Y-141774446D01*
X142027241Y-141749500D01*
X142027234Y-141749500D01*
X141797766Y-141749500D01*
X141797758Y-141749500D01*
X141581215Y-141778009D01*
X141570262Y-141779452D01*
X141520420Y-141792807D01*
X141348612Y-141838842D01*
X141136623Y-141926650D01*
X141136609Y-141926657D01*
X140937882Y-142041392D01*
X140755838Y-142181081D01*
X140593581Y-142343338D01*
X140453892Y-142525382D01*
X140339157Y-142724109D01*
X140339150Y-142724123D01*
X140251342Y-142936112D01*
X140232687Y-143005735D01*
X140191952Y-143157762D01*
X140191259Y-143163024D01*
X140162000Y-143385258D01*
X140162000Y-143614741D01*
X108913233Y-143614741D01*
X108900500Y-143592686D01*
X108807314Y-143499500D01*
X108750250Y-143466554D01*
X108693187Y-143433608D01*
X108629539Y-143416554D01*
X108565892Y-143399500D01*
X99465892Y-143399500D01*
X99334108Y-143399500D01*
X99206812Y-143433608D01*
X99092686Y-143499500D01*
X99092683Y-143499502D01*
X98999502Y-143592683D01*
X98999500Y-143592686D01*
X98933608Y-143706812D01*
X98899500Y-143834108D01*
X98899500Y-149375500D01*
X98879815Y-149442539D01*
X98827011Y-149488294D01*
X98775500Y-149499500D01*
X85624500Y-149499500D01*
X85557461Y-149479815D01*
X85511706Y-149427011D01*
X85500500Y-149375500D01*
X85500500Y-144521288D01*
X88749500Y-144521288D01*
X88781161Y-144761785D01*
X88843947Y-144996104D01*
X88912315Y-145161158D01*
X88936776Y-145220212D01*
X89058064Y-145430289D01*
X89058066Y-145430292D01*
X89058067Y-145430293D01*
X89205733Y-145622736D01*
X89205739Y-145622743D01*
X89377256Y-145794260D01*
X89377262Y-145794265D01*
X89569711Y-145941936D01*
X89779788Y-146063224D01*
X90003900Y-146156054D01*
X90238211Y-146218838D01*
X90418586Y-146242584D01*
X90478711Y-146250500D01*
X90478712Y-146250500D01*
X90721289Y-146250500D01*
X90769388Y-146244167D01*
X90961789Y-146218838D01*
X91196100Y-146156054D01*
X91420212Y-146063224D01*
X91630289Y-145941936D01*
X91822738Y-145794265D01*
X91994265Y-145622738D01*
X92141936Y-145430289D01*
X92263224Y-145220212D01*
X92356054Y-144996100D01*
X92418838Y-144761789D01*
X92450500Y-144521288D01*
X92450500Y-144278712D01*
X92450128Y-144275890D01*
X92418838Y-144038214D01*
X92418838Y-144038211D01*
X92356054Y-143803900D01*
X92263224Y-143579788D01*
X92141936Y-143369711D01*
X91994265Y-143177262D01*
X91994260Y-143177256D01*
X91822743Y-143005739D01*
X91822736Y-143005733D01*
X91630293Y-142858067D01*
X91630292Y-142858066D01*
X91630289Y-142858064D01*
X91420212Y-142736776D01*
X91389665Y-142724123D01*
X91196104Y-142643947D01*
X90961785Y-142581161D01*
X90721289Y-142549500D01*
X90721288Y-142549500D01*
X90478712Y-142549500D01*
X90478711Y-142549500D01*
X90238214Y-142581161D01*
X90003895Y-142643947D01*
X89779794Y-142736773D01*
X89779785Y-142736777D01*
X89569706Y-142858067D01*
X89377263Y-143005733D01*
X89377256Y-143005739D01*
X89205739Y-143177256D01*
X89205733Y-143177263D01*
X89058067Y-143369706D01*
X88936777Y-143579785D01*
X88936773Y-143579794D01*
X88843947Y-143803895D01*
X88781161Y-144038214D01*
X88749500Y-144278711D01*
X88749500Y-144521288D01*
X85500500Y-144521288D01*
X85500500Y-137790102D01*
X85520185Y-137723063D01*
X85572989Y-137677308D01*
X85642147Y-137667364D01*
X85705703Y-137696389D01*
X85723762Y-137715786D01*
X85792454Y-137807546D01*
X85838643Y-137842123D01*
X85907664Y-137893793D01*
X85907671Y-137893797D01*
X86042517Y-137944091D01*
X86042516Y-137944091D01*
X86049444Y-137944835D01*
X86102127Y-137950500D01*
X87897872Y-137950499D01*
X87957483Y-137944091D01*
X88092331Y-137893796D01*
X88207546Y-137807546D01*
X88293796Y-137692331D01*
X88344091Y-137557483D01*
X88350500Y-137497873D01*
X88350499Y-136264780D01*
X88370184Y-136197742D01*
X88422987Y-136151987D01*
X88492146Y-136142043D01*
X88555702Y-136171068D01*
X88562180Y-136177100D01*
X95262215Y-142877137D01*
X95262219Y-142877140D01*
X95426079Y-142986628D01*
X95426085Y-142986631D01*
X95426086Y-142986632D01*
X95608165Y-143062052D01*
X95801455Y-143100500D01*
X95801458Y-143100501D01*
X95801460Y-143100501D01*
X96004655Y-143100501D01*
X96004675Y-143100500D01*
X96612969Y-143100500D01*
X96657763Y-143108873D01*
X96797544Y-143163024D01*
X96998024Y-143200500D01*
X96998026Y-143200500D01*
X97201974Y-143200500D01*
X97201976Y-143200500D01*
X97402456Y-143163024D01*
X97592637Y-143089348D01*
X97675473Y-143038057D01*
X97706136Y-143019073D01*
X97771413Y-143000500D01*
X98047961Y-143000500D01*
X98047962Y-143000499D01*
X98221934Y-142965895D01*
X98303874Y-142931953D01*
X98385815Y-142898013D01*
X98493905Y-142825789D01*
X98533304Y-142799464D01*
X98533309Y-142799459D01*
X98555950Y-142776819D01*
X98617273Y-142743334D01*
X98643631Y-142740500D01*
X106794645Y-142740500D01*
X106794646Y-142740500D01*
X106880746Y-142722198D01*
X106882180Y-142721902D01*
X106962666Y-142705894D01*
X106962669Y-142705892D01*
X106962672Y-142705892D01*
X106968496Y-142704126D01*
X106968631Y-142704573D01*
X106979315Y-142701247D01*
X106979803Y-142701144D01*
X107054057Y-142668082D01*
X107056955Y-142666837D01*
X107126547Y-142638013D01*
X107127633Y-142637287D01*
X107146095Y-142627104D01*
X107152730Y-142624151D01*
X107213054Y-142580322D01*
X107216952Y-142577605D01*
X107274035Y-142539464D01*
X107279739Y-142533758D01*
X107294531Y-142521126D01*
X107305871Y-142512888D01*
X107351274Y-142462461D01*
X107355687Y-142457810D01*
X107399464Y-142414035D01*
X107407687Y-142401727D01*
X107418642Y-142387643D01*
X107432531Y-142372218D01*
X107432530Y-142372218D01*
X107432533Y-142372216D01*
X107463091Y-142319284D01*
X107467368Y-142312408D01*
X107498012Y-142266548D01*
X107498013Y-142266547D01*
X107506259Y-142246637D01*
X107513433Y-142232091D01*
X107527177Y-142208287D01*
X107527178Y-142208286D01*
X107527179Y-142208284D01*
X107543995Y-142156528D01*
X107547351Y-142147431D01*
X107565894Y-142102666D01*
X107571411Y-142074927D01*
X107575094Y-142060813D01*
X107585674Y-142028256D01*
X107590656Y-141980837D01*
X107592361Y-141969604D01*
X107600500Y-141928695D01*
X107600500Y-141893692D01*
X107601179Y-141880731D01*
X107605460Y-141840000D01*
X107601179Y-141799266D01*
X107600500Y-141786306D01*
X107600500Y-141751309D01*
X107592360Y-141710393D01*
X107590656Y-141699156D01*
X107585674Y-141651744D01*
X107575094Y-141619183D01*
X107571409Y-141605059D01*
X107565895Y-141577339D01*
X107565894Y-141577338D01*
X107565894Y-141577334D01*
X107547352Y-141532569D01*
X107543990Y-141523455D01*
X107527181Y-141471720D01*
X107527179Y-141471716D01*
X107513424Y-141447892D01*
X107506256Y-141433355D01*
X107498014Y-141413456D01*
X107498013Y-141413454D01*
X107498013Y-141413453D01*
X107467359Y-141367577D01*
X107463088Y-141360708D01*
X107432534Y-141307785D01*
X107432530Y-141307780D01*
X107418637Y-141292350D01*
X107407684Y-141278268D01*
X107399464Y-141265965D01*
X107395680Y-141262181D01*
X107362195Y-141200858D01*
X107367179Y-141131166D01*
X107409051Y-141075233D01*
X107474515Y-141050816D01*
X107483361Y-141050500D01*
X110698422Y-141050500D01*
X110892826Y-141019709D01*
X110899132Y-141017660D01*
X111080026Y-140958884D01*
X111255405Y-140869524D01*
X111414646Y-140753828D01*
X114318459Y-137850015D01*
X140062000Y-137850015D01*
X140072500Y-137952795D01*
X140072501Y-137952796D01*
X140127686Y-138119335D01*
X140127687Y-138119337D01*
X140219786Y-138268651D01*
X140219789Y-138268655D01*
X140343844Y-138392710D01*
X140343848Y-138392713D01*
X140493162Y-138484812D01*
X140493164Y-138484813D01*
X140493166Y-138484814D01*
X140659703Y-138539999D01*
X140762492Y-138550500D01*
X140762497Y-138550500D01*
X143062503Y-138550500D01*
X143062508Y-138550500D01*
X143165297Y-138539999D01*
X143331834Y-138484814D01*
X143481155Y-138392711D01*
X143605211Y-138268655D01*
X143697314Y-138119334D01*
X143752499Y-137952797D01*
X143763000Y-137850008D01*
X143763000Y-134549992D01*
X143752499Y-134447203D01*
X143697314Y-134280666D01*
X143639186Y-134186427D01*
X143605213Y-134131348D01*
X143605210Y-134131344D01*
X143481155Y-134007289D01*
X143481151Y-134007286D01*
X143331837Y-133915187D01*
X143331835Y-133915186D01*
X143248565Y-133887593D01*
X143165297Y-133860001D01*
X143165295Y-133860000D01*
X143062515Y-133849500D01*
X143062508Y-133849500D01*
X140762492Y-133849500D01*
X140762484Y-133849500D01*
X140659704Y-133860000D01*
X140659703Y-133860001D01*
X140493164Y-133915186D01*
X140493162Y-133915187D01*
X140343848Y-134007286D01*
X140343844Y-134007289D01*
X140219789Y-134131344D01*
X140219786Y-134131348D01*
X140127687Y-134280662D01*
X140127686Y-134280664D01*
X140072501Y-134447203D01*
X140072500Y-134447204D01*
X140062000Y-134549984D01*
X140062000Y-137850015D01*
X114318459Y-137850015D01*
X114481655Y-137686819D01*
X114542978Y-137653334D01*
X114569336Y-137650500D01*
X121098422Y-137650500D01*
X121292826Y-137619709D01*
X121480026Y-137558884D01*
X121655405Y-137469524D01*
X121814646Y-137353828D01*
X123723988Y-135444484D01*
X123785309Y-135411001D01*
X123855000Y-135415985D01*
X123910934Y-135457857D01*
X123932833Y-135505809D01*
X123975628Y-135702537D01*
X123975630Y-135702543D01*
X123975631Y-135702546D01*
X123981991Y-135719597D01*
X124075635Y-135970666D01*
X124212770Y-136221809D01*
X124212775Y-136221817D01*
X124384254Y-136450887D01*
X124384270Y-136450905D01*
X124586594Y-136653229D01*
X124586612Y-136653245D01*
X124815682Y-136824724D01*
X124815690Y-136824729D01*
X125066833Y-136961864D01*
X125066832Y-136961864D01*
X125066836Y-136961865D01*
X125066839Y-136961867D01*
X125334954Y-137061869D01*
X125334960Y-137061870D01*
X125334962Y-137061871D01*
X125614566Y-137122695D01*
X125614568Y-137122695D01*
X125614572Y-137122696D01*
X125868220Y-137140837D01*
X125899999Y-137143110D01*
X125900000Y-137143110D01*
X125900001Y-137143110D01*
X125928595Y-137141064D01*
X126185428Y-137122696D01*
X126465046Y-137061869D01*
X126733161Y-136961867D01*
X126984315Y-136824726D01*
X127213395Y-136653239D01*
X127415739Y-136450895D01*
X127587226Y-136221815D01*
X127724367Y-135970661D01*
X127824369Y-135702546D01*
X127836887Y-135645000D01*
X127885195Y-135422933D01*
X127885195Y-135422932D01*
X127885196Y-135422928D01*
X127905610Y-135137500D01*
X127885196Y-134852072D01*
X127870731Y-134785579D01*
X127824371Y-134572462D01*
X127824370Y-134572460D01*
X127824369Y-134572454D01*
X127724367Y-134304339D01*
X127711439Y-134280664D01*
X127587229Y-134053190D01*
X127587224Y-134053182D01*
X127425769Y-133837503D01*
X156094415Y-133837503D01*
X156114738Y-134186427D01*
X156114739Y-134186438D01*
X156175428Y-134530627D01*
X156175430Y-134530634D01*
X156275674Y-134865472D01*
X156414107Y-135186395D01*
X156414113Y-135186408D01*
X156588870Y-135489097D01*
X156797584Y-135769449D01*
X156797589Y-135769455D01*
X156921463Y-135900753D01*
X157037442Y-136023683D01*
X157178498Y-136142043D01*
X157305186Y-136248347D01*
X157305194Y-136248353D01*
X157597203Y-136440411D01*
X157597207Y-136440413D01*
X157909549Y-136597277D01*
X158237989Y-136716819D01*
X158578086Y-136797423D01*
X158925241Y-136838000D01*
X158925248Y-136838000D01*
X159274752Y-136838000D01*
X159274759Y-136838000D01*
X159621914Y-136797423D01*
X159962011Y-136716819D01*
X160290451Y-136597277D01*
X160602793Y-136440413D01*
X160700132Y-136376391D01*
X160894805Y-136248353D01*
X160894805Y-136248352D01*
X160894811Y-136248349D01*
X161162558Y-136023683D01*
X161402412Y-135769453D01*
X161611130Y-135489096D01*
X161785889Y-135186404D01*
X161924326Y-134865471D01*
X162024569Y-134530636D01*
X162039281Y-134447204D01*
X162085260Y-134186438D01*
X162085259Y-134186438D01*
X162085262Y-134186427D01*
X162102561Y-133889402D01*
X162105585Y-133837503D01*
X176594415Y-133837503D01*
X176614738Y-134186427D01*
X176614739Y-134186438D01*
X176675428Y-134530627D01*
X176675430Y-134530634D01*
X176775674Y-134865472D01*
X176914107Y-135186395D01*
X176914113Y-135186408D01*
X177088870Y-135489097D01*
X177297584Y-135769449D01*
X177297589Y-135769455D01*
X177421463Y-135900753D01*
X177537442Y-136023683D01*
X177678498Y-136142043D01*
X177805186Y-136248347D01*
X177805194Y-136248353D01*
X178097203Y-136440411D01*
X178097207Y-136440413D01*
X178409549Y-136597277D01*
X178737989Y-136716819D01*
X179078086Y-136797423D01*
X179425241Y-136838000D01*
X179425248Y-136838000D01*
X179774752Y-136838000D01*
X179774759Y-136838000D01*
X180121914Y-136797423D01*
X180462011Y-136716819D01*
X180790451Y-136597277D01*
X181102793Y-136440413D01*
X181200132Y-136376391D01*
X181394805Y-136248353D01*
X181394805Y-136248352D01*
X181394811Y-136248349D01*
X181662558Y-136023683D01*
X181902412Y-135769453D01*
X182111130Y-135489096D01*
X182285889Y-135186404D01*
X182424326Y-134865471D01*
X182524569Y-134530636D01*
X182539281Y-134447204D01*
X182585260Y-134186438D01*
X182585259Y-134186438D01*
X182585262Y-134186427D01*
X182602561Y-133889402D01*
X182605585Y-133837503D01*
X182605585Y-133837496D01*
X182597700Y-133702123D01*
X182585262Y-133488573D01*
X182568314Y-133392454D01*
X182524571Y-133144372D01*
X182524569Y-133144365D01*
X182524569Y-133144364D01*
X182424326Y-132809529D01*
X182285889Y-132488596D01*
X182111130Y-132185904D01*
X182111129Y-132185902D01*
X181902415Y-131905550D01*
X181902410Y-131905544D01*
X181786433Y-131782617D01*
X181662558Y-131651317D01*
X181498526Y-131513678D01*
X181394813Y-131426652D01*
X181394805Y-131426646D01*
X181102796Y-131234588D01*
X180790458Y-131077726D01*
X180790452Y-131077723D01*
X180462012Y-130958181D01*
X180462009Y-130958180D01*
X180121915Y-130877577D01*
X180078519Y-130872504D01*
X179774759Y-130837000D01*
X179425241Y-130837000D01*
X179121480Y-130872504D01*
X179078085Y-130877577D01*
X179078083Y-130877577D01*
X178737990Y-130958180D01*
X178737987Y-130958181D01*
X178409547Y-131077723D01*
X178409541Y-131077726D01*
X178097203Y-131234588D01*
X177805194Y-131426646D01*
X177805186Y-131426652D01*
X177537442Y-131651317D01*
X177537440Y-131651319D01*
X177297589Y-131905544D01*
X177297584Y-131905550D01*
X177088870Y-132185902D01*
X176914113Y-132488591D01*
X176914107Y-132488604D01*
X176775674Y-132809527D01*
X176675430Y-133144365D01*
X176675428Y-133144372D01*
X176614739Y-133488561D01*
X176614738Y-133488572D01*
X176594415Y-133837496D01*
X176594415Y-133837503D01*
X162105585Y-133837503D01*
X162105585Y-133837496D01*
X162097700Y-133702123D01*
X162085262Y-133488573D01*
X162068314Y-133392454D01*
X162024571Y-133144372D01*
X162024569Y-133144365D01*
X162024569Y-133144364D01*
X161924326Y-132809529D01*
X161785889Y-132488596D01*
X161611130Y-132185904D01*
X161611129Y-132185902D01*
X161402415Y-131905550D01*
X161402410Y-131905544D01*
X161286433Y-131782617D01*
X161162558Y-131651317D01*
X160998526Y-131513678D01*
X160894813Y-131426652D01*
X160894805Y-131426646D01*
X160602796Y-131234588D01*
X160290458Y-131077726D01*
X160290452Y-131077723D01*
X159962012Y-130958181D01*
X159962009Y-130958180D01*
X159621915Y-130877577D01*
X159578519Y-130872504D01*
X159274759Y-130837000D01*
X158925241Y-130837000D01*
X158621480Y-130872504D01*
X158578085Y-130877577D01*
X158578083Y-130877577D01*
X158237990Y-130958180D01*
X158237987Y-130958181D01*
X157909547Y-131077723D01*
X157909541Y-131077726D01*
X157597203Y-131234588D01*
X157305194Y-131426646D01*
X157305186Y-131426652D01*
X157037442Y-131651317D01*
X157037440Y-131651319D01*
X156797589Y-131905544D01*
X156797584Y-131905550D01*
X156588870Y-132185902D01*
X156414113Y-132488591D01*
X156414107Y-132488604D01*
X156275674Y-132809527D01*
X156175430Y-133144365D01*
X156175428Y-133144372D01*
X156114739Y-133488561D01*
X156114738Y-133488572D01*
X156094415Y-133837496D01*
X156094415Y-133837503D01*
X127425769Y-133837503D01*
X127415745Y-133824112D01*
X127415729Y-133824094D01*
X127213405Y-133621770D01*
X127213387Y-133621754D01*
X126984317Y-133450275D01*
X126984309Y-133450270D01*
X126733166Y-133313135D01*
X126733167Y-133313135D01*
X126562557Y-133249501D01*
X126465046Y-133213131D01*
X126465043Y-133213130D01*
X126465037Y-133213128D01*
X126268310Y-133170333D01*
X126206987Y-133136848D01*
X126173502Y-133075525D01*
X126178486Y-133005833D01*
X126206987Y-132961486D01*
X126378372Y-132790102D01*
X126681655Y-132486819D01*
X126742978Y-132453334D01*
X126769336Y-132450500D01*
X134198422Y-132450500D01*
X134392826Y-132419709D01*
X134459599Y-132398013D01*
X134580026Y-132358884D01*
X134755405Y-132269524D01*
X134914646Y-132153828D01*
X137770604Y-129297870D01*
X176849500Y-129297870D01*
X176849501Y-129297876D01*
X176855908Y-129357483D01*
X176906202Y-129492328D01*
X176906206Y-129492335D01*
X176992452Y-129607544D01*
X176992455Y-129607547D01*
X177107664Y-129693793D01*
X177107671Y-129693797D01*
X177242517Y-129744091D01*
X177242516Y-129744091D01*
X177249444Y-129744835D01*
X177302127Y-129750500D01*
X179097872Y-129750499D01*
X179157483Y-129744091D01*
X179292331Y-129693796D01*
X179407546Y-129607546D01*
X179493796Y-129492331D01*
X179544091Y-129357483D01*
X179550500Y-129297873D01*
X179550499Y-127502128D01*
X179544091Y-127442517D01*
X179518329Y-127373446D01*
X179493797Y-127307671D01*
X179493793Y-127307664D01*
X179407547Y-127192455D01*
X179407544Y-127192452D01*
X179292335Y-127106206D01*
X179292328Y-127106202D01*
X179157482Y-127055908D01*
X179157483Y-127055908D01*
X179097883Y-127049501D01*
X179097881Y-127049500D01*
X179097873Y-127049500D01*
X179097864Y-127049500D01*
X177302129Y-127049500D01*
X177302123Y-127049501D01*
X177242516Y-127055908D01*
X177107671Y-127106202D01*
X177107664Y-127106206D01*
X176992455Y-127192452D01*
X176992452Y-127192455D01*
X176906206Y-127307664D01*
X176906202Y-127307671D01*
X176855908Y-127442517D01*
X176849501Y-127502116D01*
X176849501Y-127502123D01*
X176849500Y-127502135D01*
X176849500Y-129297870D01*
X137770604Y-129297870D01*
X138781655Y-128286819D01*
X138842978Y-128253334D01*
X138869336Y-128250500D01*
X158298422Y-128250500D01*
X158492826Y-128219709D01*
X158680026Y-128158884D01*
X158855405Y-128069524D01*
X159014646Y-127953828D01*
X161809490Y-125158982D01*
X161844762Y-125134285D01*
X161852734Y-125130568D01*
X162039139Y-125000047D01*
X162200047Y-124839139D01*
X162330568Y-124652734D01*
X162426739Y-124446496D01*
X162485635Y-124226692D01*
X162505468Y-124000000D01*
X162485635Y-123773308D01*
X162426739Y-123553504D01*
X162330568Y-123347266D01*
X162232839Y-123207693D01*
X162200045Y-123160858D01*
X162039140Y-122999953D01*
X161945163Y-122934150D01*
X161901538Y-122879573D01*
X161894344Y-122810075D01*
X161925867Y-122747720D01*
X161928584Y-122744914D01*
X162086681Y-122586817D01*
X162148004Y-122553333D01*
X162174362Y-122550499D01*
X163097871Y-122550499D01*
X163097872Y-122550499D01*
X163157483Y-122544091D01*
X163292331Y-122493796D01*
X163407546Y-122407546D01*
X163493796Y-122292331D01*
X163544091Y-122157483D01*
X163550500Y-122097873D01*
X163550499Y-120302128D01*
X163544091Y-120242517D01*
X163493796Y-120107669D01*
X163493795Y-120107668D01*
X163493793Y-120107664D01*
X163407547Y-119992455D01*
X163407544Y-119992452D01*
X163292335Y-119906206D01*
X163292328Y-119906202D01*
X163157482Y-119855908D01*
X163157483Y-119855908D01*
X163097883Y-119849501D01*
X163097881Y-119849500D01*
X163097873Y-119849500D01*
X163097864Y-119849500D01*
X161302129Y-119849500D01*
X161302123Y-119849501D01*
X161242516Y-119855908D01*
X161107671Y-119906202D01*
X161107664Y-119906206D01*
X160992455Y-119992452D01*
X160992452Y-119992455D01*
X160906206Y-120107664D01*
X160906202Y-120107671D01*
X160855908Y-120242517D01*
X160850992Y-120288246D01*
X160849500Y-120302127D01*
X160849500Y-120724094D01*
X160849501Y-121125500D01*
X160829817Y-121192539D01*
X160777013Y-121238294D01*
X160725501Y-121249500D01*
X158023362Y-121249500D01*
X157956323Y-121229815D01*
X157910568Y-121177011D01*
X157900624Y-121107853D01*
X157929649Y-121044297D01*
X157935681Y-121037819D01*
X166236680Y-112736819D01*
X166298003Y-112703334D01*
X166324361Y-112700500D01*
X167248560Y-112700500D01*
X167315599Y-112720185D01*
X167361354Y-112772989D01*
X167364742Y-112781167D01*
X167406202Y-112892328D01*
X167406206Y-112892335D01*
X167492452Y-113007544D01*
X167492455Y-113007547D01*
X167607664Y-113093793D01*
X167607671Y-113093797D01*
X167742517Y-113144091D01*
X167742516Y-113144091D01*
X167749444Y-113144835D01*
X167802127Y-113150500D01*
X169597872Y-113150499D01*
X169657483Y-113144091D01*
X169792331Y-113093796D01*
X169907546Y-113007546D01*
X169993796Y-112892331D01*
X170044091Y-112757483D01*
X170050500Y-112697873D01*
X170050499Y-110902128D01*
X170044091Y-110842517D01*
X170019095Y-110775500D01*
X169993797Y-110707671D01*
X169993793Y-110707664D01*
X169907547Y-110592455D01*
X169907544Y-110592452D01*
X169792335Y-110506206D01*
X169792328Y-110506202D01*
X169657482Y-110455908D01*
X169657483Y-110455908D01*
X169597883Y-110449501D01*
X169597881Y-110449500D01*
X169597873Y-110449500D01*
X169597864Y-110449500D01*
X167802129Y-110449500D01*
X167802123Y-110449501D01*
X167742516Y-110455908D01*
X167677235Y-110480257D01*
X167607543Y-110485241D01*
X167546220Y-110451755D01*
X167512736Y-110390432D01*
X167516195Y-110325075D01*
X167564999Y-110177797D01*
X167575500Y-110075009D01*
X167575499Y-109249992D01*
X167564999Y-109147203D01*
X167509814Y-108980666D01*
X167417712Y-108831344D01*
X167293656Y-108707288D01*
X167144334Y-108615186D01*
X166977797Y-108560001D01*
X166977795Y-108560000D01*
X166875016Y-108549500D01*
X166875009Y-108549500D01*
X165999848Y-108549500D01*
X165943553Y-108535985D01*
X165880029Y-108503617D01*
X165692826Y-108442790D01*
X165498422Y-108412000D01*
X165498417Y-108412000D01*
X164210916Y-108412000D01*
X164014083Y-108412000D01*
X164014078Y-108412000D01*
X163819676Y-108442790D01*
X163819675Y-108442790D01*
X163767356Y-108459789D01*
X163767357Y-108459790D01*
X163632470Y-108503617D01*
X163457094Y-108592976D01*
X163391325Y-108640761D01*
X163297852Y-108708673D01*
X163297851Y-108708674D01*
X160239017Y-111767507D01*
X160177694Y-111800992D01*
X160163937Y-111803184D01*
X160097203Y-111810000D01*
X160097200Y-111810001D01*
X159930668Y-111865185D01*
X159930663Y-111865187D01*
X159781342Y-111957289D01*
X159657289Y-112081342D01*
X159565187Y-112230663D01*
X159565185Y-112230668D01*
X159557849Y-112252807D01*
X159510001Y-112397203D01*
X159510001Y-112397204D01*
X159510000Y-112397204D01*
X159499500Y-112499983D01*
X159499500Y-112526552D01*
X159485985Y-112582846D01*
X159416118Y-112719966D01*
X159355290Y-112907173D01*
X159324500Y-113101577D01*
X159324500Y-113298422D01*
X159355291Y-113492827D01*
X159355291Y-113492830D01*
X159416115Y-113680025D01*
X159416115Y-113680026D01*
X159485985Y-113817154D01*
X159499500Y-113873444D01*
X159499500Y-113900000D01*
X159499501Y-113900018D01*
X159510001Y-114002797D01*
X159510001Y-114002799D01*
X159565185Y-114169331D01*
X159565187Y-114169336D01*
X159582704Y-114197735D01*
X159657288Y-114318656D01*
X159781344Y-114442712D01*
X159930666Y-114534814D01*
X160097203Y-114589999D01*
X160199991Y-114600500D01*
X160950008Y-114600499D01*
X160950016Y-114600498D01*
X160950019Y-114600498D01*
X161006302Y-114594748D01*
X161052797Y-114589999D01*
X161219334Y-114534814D01*
X161368656Y-114442712D01*
X161492712Y-114318656D01*
X161584814Y-114169334D01*
X161639999Y-114002797D01*
X161646817Y-113936056D01*
X161673213Y-113871365D01*
X161682485Y-113860987D01*
X164594155Y-110949319D01*
X164655478Y-110915834D01*
X164681836Y-110913000D01*
X165214138Y-110913000D01*
X165281177Y-110932685D01*
X165326932Y-110985489D01*
X165336876Y-111054647D01*
X165307851Y-111118203D01*
X165301819Y-111124681D01*
X156963319Y-119463181D01*
X156901996Y-119496666D01*
X156875638Y-119499500D01*
X137211306Y-119499500D01*
X137075974Y-119526420D01*
X137046927Y-119532197D01*
X137037333Y-119534106D01*
X137037332Y-119534106D01*
X136873459Y-119601983D01*
X136873446Y-119601990D01*
X136725966Y-119700534D01*
X136725964Y-119700537D01*
X131263319Y-125163181D01*
X131201996Y-125196666D01*
X131175638Y-125199500D01*
X123611306Y-125199500D01*
X123504353Y-125220775D01*
X123504352Y-125220775D01*
X123437341Y-125234103D01*
X123437332Y-125234106D01*
X123302245Y-125290061D01*
X123254793Y-125299500D01*
X119424361Y-125299500D01*
X119357322Y-125279815D01*
X119336680Y-125263181D01*
X118374041Y-124300540D01*
X118374034Y-124300534D01*
X118295216Y-124247870D01*
X125967177Y-124247870D01*
X125967178Y-124247876D01*
X125973585Y-124307483D01*
X126023879Y-124442328D01*
X126023883Y-124442335D01*
X126110129Y-124557544D01*
X126110132Y-124557547D01*
X126225341Y-124643793D01*
X126225348Y-124643797D01*
X126360194Y-124694091D01*
X126360193Y-124694091D01*
X126367121Y-124694835D01*
X126419804Y-124700500D01*
X128515549Y-124700499D01*
X128575160Y-124694091D01*
X128710008Y-124643796D01*
X128825223Y-124557546D01*
X128911473Y-124442331D01*
X128961768Y-124307483D01*
X128968177Y-124247873D01*
X128968176Y-122152128D01*
X128961768Y-122092517D01*
X128924447Y-121992455D01*
X128911474Y-121957671D01*
X128911470Y-121957664D01*
X128825224Y-121842455D01*
X128825221Y-121842452D01*
X128710012Y-121756206D01*
X128710005Y-121756202D01*
X128575159Y-121705908D01*
X128575160Y-121705908D01*
X128515560Y-121699501D01*
X128515558Y-121699500D01*
X128515550Y-121699500D01*
X128515541Y-121699500D01*
X126419806Y-121699500D01*
X126419800Y-121699501D01*
X126360193Y-121705908D01*
X126225348Y-121756202D01*
X126225341Y-121756206D01*
X126110132Y-121842452D01*
X126110129Y-121842455D01*
X126023883Y-121957664D01*
X126023879Y-121957671D01*
X125973585Y-122092517D01*
X125967178Y-122152116D01*
X125967178Y-122152123D01*
X125967177Y-122152135D01*
X125967177Y-124247870D01*
X118295216Y-124247870D01*
X118226548Y-124201988D01*
X118062666Y-124134105D01*
X118062658Y-124134103D01*
X117951459Y-124111984D01*
X117889548Y-124079599D01*
X117854974Y-124018884D01*
X117858713Y-123949114D01*
X117887967Y-123902688D01*
X120144114Y-121646543D01*
X120220775Y-121531811D01*
X120225940Y-121519343D01*
X120255794Y-121447267D01*
X120273580Y-121404328D01*
X120286518Y-121339283D01*
X120300500Y-121268993D01*
X120300500Y-121225493D01*
X120319508Y-121159519D01*
X120325787Y-121149525D01*
X120325786Y-121149525D01*
X120325789Y-121149522D01*
X120385368Y-120979255D01*
X120394206Y-120900816D01*
X120405565Y-120800003D01*
X120405565Y-120799996D01*
X120385369Y-120620750D01*
X120385368Y-120620745D01*
X120325788Y-120450476D01*
X120261289Y-120347827D01*
X120229816Y-120297738D01*
X120102262Y-120170184D01*
X119949523Y-120074211D01*
X119779254Y-120014631D01*
X119779249Y-120014630D01*
X119600004Y-119994435D01*
X119599996Y-119994435D01*
X119420750Y-120014630D01*
X119420745Y-120014631D01*
X119250476Y-120074211D01*
X119097737Y-120170184D01*
X118970184Y-120297737D01*
X118918202Y-120380467D01*
X118865867Y-120426758D01*
X118796814Y-120437406D01*
X118747236Y-120419489D01*
X118633187Y-120347827D01*
X118462919Y-120288247D01*
X118462914Y-120288246D01*
X118283669Y-120268051D01*
X118283661Y-120268051D01*
X118104415Y-120288246D01*
X118104410Y-120288247D01*
X117934141Y-120347827D01*
X117781402Y-120443800D01*
X117653849Y-120571353D01*
X117557877Y-120724091D01*
X117557876Y-120724092D01*
X117521657Y-120827600D01*
X117492297Y-120874325D01*
X114855887Y-123510735D01*
X114816961Y-123568994D01*
X114779228Y-123625464D01*
X114779221Y-123625476D01*
X114726421Y-123752948D01*
X114726418Y-123752958D01*
X114699500Y-123888285D01*
X114699500Y-126724067D01*
X114679815Y-126791106D01*
X114627011Y-126836861D01*
X114557853Y-126846805D01*
X114523097Y-126836450D01*
X114497969Y-126824733D01*
X114497959Y-126824729D01*
X114278168Y-126765837D01*
X114278164Y-126765836D01*
X114278163Y-126765836D01*
X114278162Y-126765835D01*
X114278157Y-126765835D01*
X114051473Y-126746003D01*
X114051469Y-126746003D01*
X113824784Y-126765835D01*
X113824773Y-126765837D01*
X113604982Y-126824729D01*
X113604973Y-126824732D01*
X113398738Y-126920902D01*
X113398736Y-126920903D01*
X113212331Y-127051424D01*
X113051425Y-127212329D01*
X112920903Y-127398736D01*
X112920902Y-127398738D01*
X112917184Y-127406710D01*
X112892488Y-127441977D01*
X112821287Y-127513180D01*
X112759965Y-127546666D01*
X112733605Y-127549500D01*
X105901578Y-127549500D01*
X105707173Y-127580290D01*
X105519969Y-127641117D01*
X105344594Y-127730476D01*
X105253741Y-127796485D01*
X105185354Y-127846172D01*
X105185352Y-127846174D01*
X105185351Y-127846174D01*
X103518345Y-129513181D01*
X103457022Y-129546666D01*
X103430664Y-129549500D01*
X102651067Y-129549500D01*
X102584028Y-129529815D01*
X102538273Y-129477011D01*
X102528329Y-129407853D01*
X102534885Y-129382168D01*
X102544090Y-129357485D01*
X102544091Y-129357483D01*
X102547356Y-129327111D01*
X102550500Y-129297873D01*
X102550499Y-127502128D01*
X102544091Y-127442517D01*
X102518329Y-127373446D01*
X102493797Y-127307671D01*
X102493793Y-127307664D01*
X102407547Y-127192455D01*
X102407544Y-127192452D01*
X102292335Y-127106206D01*
X102292328Y-127106202D01*
X102157482Y-127055908D01*
X102157483Y-127055908D01*
X102097883Y-127049501D01*
X102097881Y-127049500D01*
X102097873Y-127049500D01*
X102097864Y-127049500D01*
X100302129Y-127049500D01*
X100302123Y-127049501D01*
X100242516Y-127055908D01*
X100107671Y-127106202D01*
X100107664Y-127106206D01*
X99992455Y-127192452D01*
X99992452Y-127192455D01*
X99906206Y-127307664D01*
X99906202Y-127307671D01*
X99855908Y-127442517D01*
X99849501Y-127502116D01*
X99849501Y-127502123D01*
X99849500Y-127502135D01*
X99849500Y-129297870D01*
X99849501Y-129297876D01*
X99855908Y-129357483D01*
X99906202Y-129492328D01*
X99906206Y-129492335D01*
X99992452Y-129607544D01*
X99992453Y-129607545D01*
X99992454Y-129607546D01*
X99992455Y-129607547D01*
X100016124Y-129625265D01*
X100057996Y-129681198D01*
X100062980Y-129750890D01*
X100029495Y-129812213D01*
X100014702Y-129824848D01*
X99985357Y-129846169D01*
X99985351Y-129846174D01*
X98762180Y-131069345D01*
X98700857Y-131102830D01*
X98631165Y-131097846D01*
X98575232Y-131055974D01*
X98550815Y-130990510D01*
X98550499Y-130981664D01*
X98550499Y-129902129D01*
X98550498Y-129902123D01*
X98550497Y-129902116D01*
X98544091Y-129842517D01*
X98532788Y-129812213D01*
X98493797Y-129707671D01*
X98493793Y-129707664D01*
X98407547Y-129592455D01*
X98407544Y-129592452D01*
X98292335Y-129506206D01*
X98292328Y-129506202D01*
X98157482Y-129455908D01*
X98157483Y-129455908D01*
X98097883Y-129449501D01*
X98097881Y-129449500D01*
X98097873Y-129449500D01*
X98097864Y-129449500D01*
X96302129Y-129449500D01*
X96302123Y-129449501D01*
X96242516Y-129455908D01*
X96107671Y-129506202D01*
X96107664Y-129506206D01*
X95992455Y-129592452D01*
X95992452Y-129592455D01*
X95906206Y-129707664D01*
X95906202Y-129707671D01*
X95855908Y-129842517D01*
X95849501Y-129902116D01*
X95849501Y-129902123D01*
X95849500Y-129902135D01*
X95849500Y-131697870D01*
X95849501Y-131697876D01*
X95855908Y-131757483D01*
X95906202Y-131892328D01*
X95906206Y-131892335D01*
X95992452Y-132007544D01*
X95992455Y-132007547D01*
X96107664Y-132093793D01*
X96107671Y-132093797D01*
X96149285Y-132109318D01*
X96205219Y-132151189D01*
X96229636Y-132216653D01*
X96214785Y-132284926D01*
X96165380Y-132334332D01*
X96105952Y-132349500D01*
X95174500Y-132349500D01*
X95107461Y-132329815D01*
X95061706Y-132277011D01*
X95050500Y-132225500D01*
X95050500Y-126127476D01*
X95070185Y-126060437D01*
X95122989Y-126014682D01*
X95188385Y-126004256D01*
X95200000Y-126005565D01*
X95200001Y-126005564D01*
X95200002Y-126005565D01*
X95200004Y-126005565D01*
X95379249Y-125985369D01*
X95379252Y-125985368D01*
X95379255Y-125985368D01*
X95549522Y-125925789D01*
X95550488Y-125925181D01*
X95559523Y-125919506D01*
X95625494Y-125900500D01*
X95733132Y-125900500D01*
X95800171Y-125920185D01*
X95845926Y-125972989D01*
X95856421Y-126037756D01*
X95849500Y-126102118D01*
X95849500Y-127897870D01*
X95849501Y-127897876D01*
X95855908Y-127957483D01*
X95906202Y-128092328D01*
X95906206Y-128092335D01*
X95992452Y-128207544D01*
X95992455Y-128207547D01*
X96107664Y-128293793D01*
X96107671Y-128293797D01*
X96242517Y-128344091D01*
X96242516Y-128344091D01*
X96249444Y-128344835D01*
X96302127Y-128350500D01*
X98097872Y-128350499D01*
X98157483Y-128344091D01*
X98292331Y-128293796D01*
X98407546Y-128207546D01*
X98493796Y-128092331D01*
X98544091Y-127957483D01*
X98550500Y-127897873D01*
X98550499Y-126102128D01*
X98544091Y-126042517D01*
X98542315Y-126037756D01*
X98493797Y-125907671D01*
X98493793Y-125907664D01*
X98407547Y-125792455D01*
X98345194Y-125745777D01*
X98303324Y-125689843D01*
X98298340Y-125620151D01*
X98331823Y-125558832D01*
X99944114Y-123946543D01*
X100020775Y-123831811D01*
X100073580Y-123704328D01*
X100100500Y-123568994D01*
X100100500Y-123431006D01*
X100100500Y-121741518D01*
X100120185Y-121674479D01*
X100136814Y-121653842D01*
X104913021Y-116877634D01*
X104928617Y-116864422D01*
X105356109Y-116559071D01*
X105362199Y-116554989D01*
X105374331Y-116547365D01*
X105402262Y-116529816D01*
X105415515Y-116516561D01*
X105425035Y-116508165D01*
X105424987Y-116508108D01*
X105426903Y-116506491D01*
X105428349Y-116505271D01*
X105428353Y-116505267D01*
X105500106Y-116432119D01*
X105500121Y-116432134D01*
X105501406Y-116430670D01*
X105529816Y-116402262D01*
X105625789Y-116249522D01*
X105685368Y-116079255D01*
X105685369Y-116079249D01*
X105705565Y-115900003D01*
X105705565Y-115899996D01*
X105685369Y-115720750D01*
X105685368Y-115720745D01*
X105625788Y-115550475D01*
X105597060Y-115504756D01*
X105578059Y-115437519D01*
X105598426Y-115370684D01*
X105651694Y-115325470D01*
X105720950Y-115316231D01*
X105784207Y-115345902D01*
X105789734Y-115351102D01*
X106206643Y-115768010D01*
X106240128Y-115829333D01*
X106236004Y-115896644D01*
X106229501Y-115915228D01*
X106229501Y-115915229D01*
X106209305Y-116094479D01*
X106209305Y-116094486D01*
X106229500Y-116273732D01*
X106229501Y-116273737D01*
X106289081Y-116444006D01*
X106358817Y-116554989D01*
X106385054Y-116596745D01*
X106512608Y-116724299D01*
X106665348Y-116820272D01*
X106791510Y-116864418D01*
X106835615Y-116879851D01*
X106835620Y-116879852D01*
X106933624Y-116890893D01*
X106950662Y-116892813D01*
X107015076Y-116919879D01*
X107041773Y-116950060D01*
X107085052Y-117018938D01*
X107085054Y-117018940D01*
X107212608Y-117146494D01*
X107365348Y-117242467D01*
X107535615Y-117302046D01*
X107535620Y-117302047D01*
X107714866Y-117322243D01*
X107714870Y-117322243D01*
X107714874Y-117322243D01*
X107894119Y-117302047D01*
X107894122Y-117302046D01*
X107894125Y-117302046D01*
X108064392Y-117242467D01*
X108217132Y-117146494D01*
X108344686Y-117018940D01*
X108440659Y-116866200D01*
X108500238Y-116695933D01*
X108511414Y-116596745D01*
X108520435Y-116516681D01*
X108520435Y-116516674D01*
X108500239Y-116337428D01*
X108500236Y-116337415D01*
X108440660Y-116167157D01*
X108434376Y-116157156D01*
X108415370Y-116091185D01*
X108415370Y-114245875D01*
X108405794Y-114197738D01*
X108405794Y-114197736D01*
X108390541Y-114121055D01*
X108388450Y-114110542D01*
X108335645Y-113983059D01*
X108258984Y-113868327D01*
X108258982Y-113868324D01*
X107936819Y-113546161D01*
X107903334Y-113484838D01*
X107900500Y-113458480D01*
X107900500Y-112315680D01*
X107920185Y-112248641D01*
X107972989Y-112202886D01*
X108042147Y-112192942D01*
X108050278Y-112194389D01*
X108112461Y-112207607D01*
X108301752Y-112207607D01*
X108301753Y-112207607D01*
X108387806Y-112189315D01*
X108389241Y-112189019D01*
X108469773Y-112173002D01*
X108469778Y-112173000D01*
X108475602Y-112171234D01*
X108475735Y-112171675D01*
X108486426Y-112168354D01*
X108486511Y-112168335D01*
X108486910Y-112168251D01*
X108561203Y-112135172D01*
X108564049Y-112133950D01*
X108633654Y-112105119D01*
X108634744Y-112104390D01*
X108653195Y-112094214D01*
X108659837Y-112091258D01*
X108720146Y-112047440D01*
X108724073Y-112044702D01*
X108781143Y-112006571D01*
X108786842Y-112000870D01*
X108801640Y-111988231D01*
X108812978Y-111979995D01*
X108858372Y-111929578D01*
X108862804Y-111924908D01*
X110136575Y-110651139D01*
X110197898Y-110617654D01*
X110224256Y-110614820D01*
X116374373Y-110614820D01*
X116374374Y-110614819D01*
X116548346Y-110580215D01*
X116630286Y-110546273D01*
X116712227Y-110512333D01*
X116846686Y-110422490D01*
X116846686Y-110422489D01*
X116846688Y-110422489D01*
X116853156Y-110418166D01*
X116859716Y-110413784D01*
X118379742Y-108893756D01*
X118394525Y-108881130D01*
X118405871Y-108872888D01*
X118451265Y-108822471D01*
X118455698Y-108817800D01*
X118499464Y-108774036D01*
X118499464Y-108774035D01*
X118500510Y-108772989D01*
X118516896Y-108756604D01*
X118516900Y-108756598D01*
X118536686Y-108736814D01*
X118598011Y-108703332D01*
X118624363Y-108700500D01*
X121140853Y-108700500D01*
X121207892Y-108720185D01*
X121253647Y-108772989D01*
X121263591Y-108842147D01*
X121234566Y-108905703D01*
X121228535Y-108912179D01*
X120048669Y-110092045D01*
X118877533Y-111263181D01*
X118816210Y-111296666D01*
X118789852Y-111299500D01*
X118111306Y-111299500D01*
X117977653Y-111326086D01*
X117950711Y-111331445D01*
X117937332Y-111334106D01*
X117773459Y-111401983D01*
X117773452Y-111401987D01*
X117717477Y-111439388D01*
X117633707Y-111495363D01*
X117633706Y-111495363D01*
X117625968Y-111500533D01*
X117625959Y-111500541D01*
X117520259Y-111606239D01*
X117505470Y-111618871D01*
X117494130Y-111627110D01*
X117494127Y-111627113D01*
X117448749Y-111677509D01*
X117444284Y-111682214D01*
X117400539Y-111725960D01*
X117400532Y-111725968D01*
X117392308Y-111738277D01*
X117381361Y-111752352D01*
X117367468Y-111767782D01*
X117367467Y-111767783D01*
X117336907Y-111820713D01*
X117332626Y-111827597D01*
X117301987Y-111873454D01*
X117293742Y-111893357D01*
X117286575Y-111907890D01*
X117272820Y-111931716D01*
X117272818Y-111931721D01*
X117256010Y-111983449D01*
X117252642Y-111992580D01*
X117234105Y-112037333D01*
X117234103Y-112037341D01*
X117228588Y-112065067D01*
X117224902Y-112079193D01*
X117214326Y-112111743D01*
X117214325Y-112111746D01*
X117209341Y-112159160D01*
X117207639Y-112170384D01*
X117199500Y-112211307D01*
X117199500Y-112246306D01*
X117198821Y-112259266D01*
X117194540Y-112299999D01*
X117198821Y-112340731D01*
X117199500Y-112353692D01*
X117199500Y-112388692D01*
X117207639Y-112429614D01*
X117209341Y-112440839D01*
X117214325Y-112488249D01*
X117214326Y-112488256D01*
X117220424Y-112507025D01*
X117224903Y-112520807D01*
X117228587Y-112534927D01*
X117234105Y-112562665D01*
X117234106Y-112562670D01*
X117252641Y-112607417D01*
X117256011Y-112616550D01*
X117272820Y-112668282D01*
X117286571Y-112692100D01*
X117293743Y-112706644D01*
X117301986Y-112726544D01*
X117301988Y-112726547D01*
X117332626Y-112772402D01*
X117336910Y-112779290D01*
X117367467Y-112832216D01*
X117381355Y-112847640D01*
X117392307Y-112861721D01*
X117400535Y-112874035D01*
X117444283Y-112917783D01*
X117448752Y-112922492D01*
X117494129Y-112972888D01*
X117499821Y-112977024D01*
X117505463Y-112981123D01*
X117520259Y-112993760D01*
X117525960Y-112999461D01*
X117525965Y-112999465D01*
X117582981Y-113037561D01*
X117586956Y-113040330D01*
X117647270Y-113084151D01*
X117653907Y-113087106D01*
X117672353Y-113097277D01*
X117673453Y-113098012D01*
X117743027Y-113126831D01*
X117745930Y-113128077D01*
X117820195Y-113161143D01*
X117820197Y-113161144D01*
X117820691Y-113161249D01*
X117831373Y-113164567D01*
X117831507Y-113164127D01*
X117837330Y-113165893D01*
X117837334Y-113165895D01*
X117917904Y-113181920D01*
X117919283Y-113182204D01*
X118005354Y-113200500D01*
X118005355Y-113200500D01*
X118180193Y-113200500D01*
X118247232Y-113220185D01*
X118292987Y-113272989D01*
X118301810Y-113300308D01*
X118307637Y-113329601D01*
X118309341Y-113340831D01*
X118314325Y-113388253D01*
X118314325Y-113388254D01*
X118324904Y-113420811D01*
X118328590Y-113434938D01*
X118334104Y-113462662D01*
X118334105Y-113462664D01*
X118352644Y-113507423D01*
X118356012Y-113516554D01*
X118372819Y-113568279D01*
X118372822Y-113568286D01*
X118386569Y-113592097D01*
X118393742Y-113606643D01*
X118401984Y-113626542D01*
X118432634Y-113672413D01*
X118436912Y-113679294D01*
X118437336Y-113680027D01*
X118467468Y-113732218D01*
X118467469Y-113732219D01*
X118481357Y-113747643D01*
X118492307Y-113761721D01*
X118500534Y-113774033D01*
X118544274Y-113817773D01*
X118548744Y-113822483D01*
X118594129Y-113872888D01*
X118594131Y-113872890D01*
X118605467Y-113881126D01*
X118620263Y-113893763D01*
X118625961Y-113899461D01*
X118625965Y-113899464D01*
X118682994Y-113937570D01*
X118686967Y-113940339D01*
X118747270Y-113984151D01*
X118753902Y-113987104D01*
X118772361Y-113997283D01*
X118773453Y-113998013D01*
X118843042Y-114026836D01*
X118845987Y-114028102D01*
X118920197Y-114061144D01*
X118920696Y-114061250D01*
X118931370Y-114064562D01*
X118931503Y-114064125D01*
X118937330Y-114065892D01*
X118937334Y-114065894D01*
X119017816Y-114081902D01*
X119019282Y-114082204D01*
X119105354Y-114100500D01*
X119105355Y-114100500D01*
X119717121Y-114100500D01*
X119717122Y-114100499D01*
X119891094Y-114065895D01*
X119986087Y-114026547D01*
X120054975Y-113998013D01*
X120179763Y-113914632D01*
X120202464Y-113899464D01*
X122301927Y-111800001D01*
X144094532Y-111800001D01*
X144114364Y-112026686D01*
X144114366Y-112026697D01*
X144173258Y-112246488D01*
X144173261Y-112246497D01*
X144269431Y-112452732D01*
X144269432Y-112452734D01*
X144399954Y-112639141D01*
X144560858Y-112800045D01*
X144747262Y-112930566D01*
X144747264Y-112930566D01*
X144747266Y-112930568D01*
X144754563Y-112933970D01*
X144755233Y-112934283D01*
X144790511Y-112958985D01*
X146635354Y-114803828D01*
X146794595Y-114919524D01*
X146855346Y-114950478D01*
X146969969Y-115008882D01*
X146969971Y-115008882D01*
X146969974Y-115008884D01*
X147020682Y-115025360D01*
X147157173Y-115069709D01*
X147351578Y-115100500D01*
X147351583Y-115100500D01*
X157073422Y-115100500D01*
X157267826Y-115069709D01*
X157455026Y-115008884D01*
X157630405Y-114919524D01*
X157789646Y-114803828D01*
X157960982Y-114632490D01*
X158022301Y-114599008D01*
X158036052Y-114596816D01*
X158102797Y-114589999D01*
X158269334Y-114534814D01*
X158418656Y-114442712D01*
X158542712Y-114318656D01*
X158634814Y-114169334D01*
X158689999Y-114002797D01*
X158700500Y-113900009D01*
X158700499Y-113873444D01*
X158714013Y-113817152D01*
X158783884Y-113680026D01*
X158844709Y-113492826D01*
X158849486Y-113462664D01*
X158875500Y-113298421D01*
X158875500Y-113101577D01*
X158844709Y-112907173D01*
X158802015Y-112775775D01*
X158783884Y-112719974D01*
X158783882Y-112719971D01*
X158783881Y-112719966D01*
X158714014Y-112582844D01*
X158700499Y-112526550D01*
X158700499Y-112499998D01*
X158700498Y-112499981D01*
X158689999Y-112397203D01*
X158689998Y-112397200D01*
X158657789Y-112300000D01*
X158634814Y-112230666D01*
X158542712Y-112081344D01*
X158418656Y-111957288D01*
X158269334Y-111865186D01*
X158102797Y-111810001D01*
X158102795Y-111810000D01*
X158000010Y-111799500D01*
X157249998Y-111799500D01*
X157249980Y-111799501D01*
X157147203Y-111810000D01*
X157147200Y-111810001D01*
X156980668Y-111865185D01*
X156980663Y-111865187D01*
X156831342Y-111957289D01*
X156707289Y-112081342D01*
X156615187Y-112230663D01*
X156615185Y-112230668D01*
X156607849Y-112252807D01*
X156560001Y-112397203D01*
X156560001Y-112397204D01*
X156560000Y-112397204D01*
X156553182Y-112463941D01*
X156526785Y-112528633D01*
X156517509Y-112539015D01*
X156493348Y-112563178D01*
X156432026Y-112596665D01*
X156405663Y-112599500D01*
X148019336Y-112599500D01*
X147952297Y-112579815D01*
X147931655Y-112563181D01*
X146558985Y-111190511D01*
X146534283Y-111155233D01*
X146530568Y-111147267D01*
X146530568Y-111147266D01*
X146530566Y-111147264D01*
X146530566Y-111147262D01*
X146400045Y-110960858D01*
X146239141Y-110799954D01*
X146052734Y-110669432D01*
X146052732Y-110669431D01*
X145846497Y-110573261D01*
X145846488Y-110573258D01*
X145626697Y-110514366D01*
X145626693Y-110514365D01*
X145626692Y-110514365D01*
X145626691Y-110514364D01*
X145626686Y-110514364D01*
X145400002Y-110494532D01*
X145399998Y-110494532D01*
X145173313Y-110514364D01*
X145173302Y-110514366D01*
X144953511Y-110573258D01*
X144953502Y-110573261D01*
X144747267Y-110669431D01*
X144747265Y-110669432D01*
X144560858Y-110799954D01*
X144399954Y-110960858D01*
X144269432Y-111147265D01*
X144269431Y-111147267D01*
X144173261Y-111353502D01*
X144173258Y-111353511D01*
X144114366Y-111573302D01*
X144114364Y-111573313D01*
X144094532Y-111799998D01*
X144094532Y-111800001D01*
X122301927Y-111800001D01*
X124899465Y-109202462D01*
X124912820Y-109182475D01*
X124998014Y-109054974D01*
X125017735Y-109007361D01*
X125051401Y-108926087D01*
X125064790Y-108893762D01*
X125065896Y-108891093D01*
X125100501Y-108717118D01*
X125100501Y-108539735D01*
X125100501Y-107324360D01*
X125120186Y-107257321D01*
X125136820Y-107236679D01*
X125725629Y-106647870D01*
X155067177Y-106647870D01*
X155067178Y-106647876D01*
X155073585Y-106707483D01*
X155123879Y-106842328D01*
X155123883Y-106842335D01*
X155210129Y-106957544D01*
X155210132Y-106957547D01*
X155325341Y-107043793D01*
X155325348Y-107043797D01*
X155460194Y-107094091D01*
X155460193Y-107094091D01*
X155467121Y-107094835D01*
X155519804Y-107100500D01*
X157615549Y-107100499D01*
X157675160Y-107094091D01*
X157810008Y-107043796D01*
X157925223Y-106957546D01*
X158011473Y-106842331D01*
X158061768Y-106707483D01*
X158068177Y-106647873D01*
X158068177Y-105721288D01*
X177749500Y-105721288D01*
X177781161Y-105961785D01*
X177843947Y-106196104D01*
X177870955Y-106261306D01*
X177936776Y-106420212D01*
X178058064Y-106630289D01*
X178058066Y-106630292D01*
X178058067Y-106630293D01*
X178205733Y-106822736D01*
X178205739Y-106822743D01*
X178377256Y-106994260D01*
X178377263Y-106994266D01*
X178387329Y-107001990D01*
X178569711Y-107141936D01*
X178779788Y-107263224D01*
X179003900Y-107356054D01*
X179238211Y-107418838D01*
X179418586Y-107442584D01*
X179478711Y-107450500D01*
X179478712Y-107450500D01*
X179721289Y-107450500D01*
X179769388Y-107444167D01*
X179961789Y-107418838D01*
X180196100Y-107356054D01*
X180420212Y-107263224D01*
X180630289Y-107141936D01*
X180822738Y-106994265D01*
X180994265Y-106822738D01*
X181141936Y-106630289D01*
X181263224Y-106420212D01*
X181356054Y-106196100D01*
X181418838Y-105961789D01*
X181450500Y-105721288D01*
X181450500Y-105478712D01*
X181418838Y-105238211D01*
X181356054Y-105003900D01*
X181263224Y-104779788D01*
X181141936Y-104569711D01*
X181081018Y-104490321D01*
X180994266Y-104377263D01*
X180994260Y-104377256D01*
X180822743Y-104205739D01*
X180822736Y-104205733D01*
X180630293Y-104058067D01*
X180630292Y-104058066D01*
X180630289Y-104058064D01*
X180420212Y-103936776D01*
X180420205Y-103936773D01*
X180196104Y-103843947D01*
X179961785Y-103781161D01*
X179721289Y-103749500D01*
X179721288Y-103749500D01*
X179478712Y-103749500D01*
X179478711Y-103749500D01*
X179238214Y-103781161D01*
X179003895Y-103843947D01*
X178779794Y-103936773D01*
X178779785Y-103936777D01*
X178569706Y-104058067D01*
X178377263Y-104205733D01*
X178377256Y-104205739D01*
X178205739Y-104377256D01*
X178205733Y-104377263D01*
X178058067Y-104569706D01*
X177936777Y-104779785D01*
X177936773Y-104779794D01*
X177843947Y-105003895D01*
X177781161Y-105238214D01*
X177749500Y-105478711D01*
X177749500Y-105721288D01*
X158068177Y-105721288D01*
X158068176Y-104552128D01*
X158061768Y-104492517D01*
X158034473Y-104419336D01*
X158011474Y-104357671D01*
X158011470Y-104357664D01*
X157925224Y-104242455D01*
X157925221Y-104242452D01*
X157810012Y-104156206D01*
X157810005Y-104156202D01*
X157793379Y-104150001D01*
X163224500Y-104150001D01*
X163224501Y-104150019D01*
X163235000Y-104252796D01*
X163235001Y-104252799D01*
X163269752Y-104357669D01*
X163290186Y-104419334D01*
X163382288Y-104568656D01*
X163506344Y-104692712D01*
X163655666Y-104784814D01*
X163822203Y-104839999D01*
X163924991Y-104850500D01*
X165729670Y-104850499D01*
X165782075Y-104862117D01*
X165817676Y-104878718D01*
X165943058Y-104937185D01*
X166162862Y-104996081D01*
X166324784Y-105010247D01*
X166389552Y-105015914D01*
X166389554Y-105015914D01*
X166389556Y-105015914D01*
X166446227Y-105010955D01*
X166616246Y-104996081D01*
X166836050Y-104937185D01*
X167042288Y-104841014D01*
X167088100Y-104808935D01*
X167120224Y-104792803D01*
X167144334Y-104784814D01*
X167293656Y-104692712D01*
X167417712Y-104568656D01*
X167509814Y-104419334D01*
X167546532Y-104308522D01*
X167551854Y-104295129D01*
X167616293Y-104156942D01*
X167675189Y-103937138D01*
X167695022Y-103710446D01*
X167675189Y-103483754D01*
X167616293Y-103263950D01*
X167520122Y-103057712D01*
X167446244Y-102952202D01*
X167442280Y-102946176D01*
X167417712Y-102906344D01*
X167413449Y-102902081D01*
X167399554Y-102885521D01*
X167389600Y-102871305D01*
X167228695Y-102710400D01*
X167042288Y-102579878D01*
X167042286Y-102579877D01*
X166836051Y-102483707D01*
X166836042Y-102483704D01*
X166616251Y-102424812D01*
X166616247Y-102424811D01*
X166616246Y-102424811D01*
X166616245Y-102424810D01*
X166616240Y-102424810D01*
X166389556Y-102404978D01*
X166389552Y-102404978D01*
X166162867Y-102424810D01*
X166162856Y-102424812D01*
X165943065Y-102483704D01*
X165943056Y-102483707D01*
X165736816Y-102579880D01*
X165705118Y-102602075D01*
X165638911Y-102624402D01*
X165633995Y-102624500D01*
X163924998Y-102624500D01*
X163924981Y-102624501D01*
X163822203Y-102635000D01*
X163822200Y-102635001D01*
X163655668Y-102690185D01*
X163655663Y-102690187D01*
X163506342Y-102782289D01*
X163382289Y-102906342D01*
X163290187Y-103055663D01*
X163290185Y-103055668D01*
X163262349Y-103139670D01*
X163235001Y-103222203D01*
X163235001Y-103222204D01*
X163235000Y-103222204D01*
X163224500Y-103324983D01*
X163224500Y-104150001D01*
X157793379Y-104150001D01*
X157675159Y-104105908D01*
X157675160Y-104105908D01*
X157615560Y-104099501D01*
X157615558Y-104099500D01*
X157615550Y-104099500D01*
X157615541Y-104099500D01*
X155519806Y-104099500D01*
X155519800Y-104099501D01*
X155460193Y-104105908D01*
X155325348Y-104156202D01*
X155325341Y-104156206D01*
X155210132Y-104242452D01*
X155210129Y-104242455D01*
X155123883Y-104357664D01*
X155123879Y-104357671D01*
X155073585Y-104492517D01*
X155067178Y-104552116D01*
X155067178Y-104552123D01*
X155067177Y-104552135D01*
X155067177Y-106647870D01*
X125725629Y-106647870D01*
X127593714Y-104779785D01*
X130070411Y-102303087D01*
X130131732Y-102269604D01*
X130201424Y-102274588D01*
X130257357Y-102316460D01*
X130265477Y-102328769D01*
X130267468Y-102332218D01*
X130267469Y-102332219D01*
X130281357Y-102347643D01*
X130292307Y-102361721D01*
X130300534Y-102374033D01*
X130344274Y-102417773D01*
X130348744Y-102422483D01*
X130394129Y-102472888D01*
X130394131Y-102472890D01*
X130405467Y-102481126D01*
X130420263Y-102493763D01*
X130425961Y-102499461D01*
X130425965Y-102499464D01*
X130482994Y-102537570D01*
X130486967Y-102540339D01*
X130547270Y-102584151D01*
X130553902Y-102587104D01*
X130572361Y-102597283D01*
X130573453Y-102598013D01*
X130643042Y-102626836D01*
X130645987Y-102628102D01*
X130720197Y-102661144D01*
X130720696Y-102661250D01*
X130731370Y-102664562D01*
X130731503Y-102664125D01*
X130737330Y-102665892D01*
X130737334Y-102665894D01*
X130817816Y-102681902D01*
X130819282Y-102682204D01*
X130905354Y-102700500D01*
X130905355Y-102700500D01*
X132888693Y-102700500D01*
X132888694Y-102700499D01*
X133062666Y-102665895D01*
X133144606Y-102631953D01*
X133226547Y-102598013D01*
X133226549Y-102598011D01*
X133226552Y-102598010D01*
X133314955Y-102538939D01*
X133314955Y-102538938D01*
X133314959Y-102538936D01*
X133374036Y-102499464D01*
X141401531Y-94471969D01*
X152399500Y-94471969D01*
X152409349Y-94571965D01*
X152433210Y-94814249D01*
X152500308Y-95151572D01*
X152600150Y-95480706D01*
X152731770Y-95798464D01*
X152731772Y-95798469D01*
X152893893Y-96101775D01*
X152893904Y-96101793D01*
X153084975Y-96387751D01*
X153084985Y-96387765D01*
X153303176Y-96653632D01*
X153546367Y-96896823D01*
X153546372Y-96896827D01*
X153546373Y-96896828D01*
X153812240Y-97115019D01*
X154098213Y-97306100D01*
X154098222Y-97306105D01*
X154098224Y-97306106D01*
X154401530Y-97468227D01*
X154401532Y-97468227D01*
X154401538Y-97468231D01*
X154719295Y-97599850D01*
X155048422Y-97699690D01*
X155385750Y-97766789D01*
X155728031Y-97800500D01*
X168340288Y-97800500D01*
X168364479Y-97802883D01*
X168685750Y-97866788D01*
X169028031Y-97900500D01*
X169028034Y-97900500D01*
X169371966Y-97900500D01*
X169371969Y-97900500D01*
X169714250Y-97866788D01*
X169881219Y-97833575D01*
X170051557Y-97799694D01*
X170051568Y-97799691D01*
X170051568Y-97799690D01*
X170051578Y-97799689D01*
X170380705Y-97699850D01*
X170698462Y-97568231D01*
X171001787Y-97406100D01*
X171287760Y-97215019D01*
X171553627Y-96996827D01*
X171713636Y-96836816D01*
X171774957Y-96803333D01*
X171801316Y-96800499D01*
X171947871Y-96800499D01*
X171947872Y-96800499D01*
X172007483Y-96794091D01*
X172142331Y-96743796D01*
X172257546Y-96657546D01*
X172343796Y-96542331D01*
X172394091Y-96407483D01*
X172400500Y-96347873D01*
X172400500Y-96347870D01*
X174399500Y-96347870D01*
X174399501Y-96347876D01*
X174405908Y-96407483D01*
X174456202Y-96542328D01*
X174456206Y-96542335D01*
X174542452Y-96657544D01*
X174542455Y-96657547D01*
X174657664Y-96743793D01*
X174657671Y-96743797D01*
X174792517Y-96794091D01*
X174792516Y-96794091D01*
X174799444Y-96794835D01*
X174852127Y-96800500D01*
X176947872Y-96800499D01*
X177007483Y-96794091D01*
X177142331Y-96743796D01*
X177257546Y-96657546D01*
X177343796Y-96542331D01*
X177394091Y-96407483D01*
X177400500Y-96347873D01*
X177400500Y-96347870D01*
X179399500Y-96347870D01*
X179399501Y-96347876D01*
X179405908Y-96407483D01*
X179456202Y-96542328D01*
X179456206Y-96542335D01*
X179542452Y-96657544D01*
X179542455Y-96657547D01*
X179657664Y-96743793D01*
X179657671Y-96743797D01*
X179792517Y-96794091D01*
X179792516Y-96794091D01*
X179799444Y-96794835D01*
X179852127Y-96800500D01*
X181947872Y-96800499D01*
X182007483Y-96794091D01*
X182142331Y-96743796D01*
X182257546Y-96657546D01*
X182343796Y-96542331D01*
X182394091Y-96407483D01*
X182400500Y-96347873D01*
X182400499Y-92252128D01*
X182395299Y-92203757D01*
X182394091Y-92192516D01*
X182343797Y-92057671D01*
X182343793Y-92057664D01*
X182257547Y-91942455D01*
X182257544Y-91942452D01*
X182142335Y-91856206D01*
X182142328Y-91856202D01*
X182007482Y-91805908D01*
X182007483Y-91805908D01*
X181947883Y-91799501D01*
X181947881Y-91799500D01*
X181947873Y-91799500D01*
X181947864Y-91799500D01*
X179852129Y-91799500D01*
X179852123Y-91799501D01*
X179792516Y-91805908D01*
X179657671Y-91856202D01*
X179657664Y-91856206D01*
X179542455Y-91942452D01*
X179542452Y-91942455D01*
X179456206Y-92057664D01*
X179456202Y-92057671D01*
X179405908Y-92192517D01*
X179401169Y-92236603D01*
X179399501Y-92252123D01*
X179399500Y-92252135D01*
X179399500Y-96347870D01*
X177400500Y-96347870D01*
X177400499Y-92252128D01*
X177395299Y-92203757D01*
X177394091Y-92192516D01*
X177343797Y-92057671D01*
X177343793Y-92057664D01*
X177257547Y-91942455D01*
X177257544Y-91942452D01*
X177142335Y-91856206D01*
X177142328Y-91856202D01*
X177007482Y-91805908D01*
X177007483Y-91805908D01*
X176947883Y-91799501D01*
X176947881Y-91799500D01*
X176947873Y-91799500D01*
X176947864Y-91799500D01*
X174852129Y-91799500D01*
X174852123Y-91799501D01*
X174792516Y-91805908D01*
X174657671Y-91856202D01*
X174657664Y-91856206D01*
X174542455Y-91942452D01*
X174542452Y-91942455D01*
X174456206Y-92057664D01*
X174456202Y-92057671D01*
X174405908Y-92192517D01*
X174401169Y-92236603D01*
X174399501Y-92252123D01*
X174399500Y-92252135D01*
X174399500Y-96347870D01*
X172400500Y-96347870D01*
X172400499Y-95845221D01*
X172409938Y-95797769D01*
X172420514Y-95772238D01*
X172478720Y-95631716D01*
X172499848Y-95580710D01*
X172499850Y-95580705D01*
X172599689Y-95251578D01*
X172599691Y-95251568D01*
X172599694Y-95251557D01*
X172654324Y-94976908D01*
X172666788Y-94914250D01*
X172700500Y-94571969D01*
X172700500Y-94228031D01*
X172666788Y-93885750D01*
X172621484Y-93657990D01*
X172599694Y-93548442D01*
X172599691Y-93548431D01*
X172599690Y-93548428D01*
X172599689Y-93548422D01*
X172499850Y-93219295D01*
X172499848Y-93219289D01*
X172409938Y-93002226D01*
X172400499Y-92954774D01*
X172400499Y-92252129D01*
X172400498Y-92252123D01*
X172400497Y-92252116D01*
X172395299Y-92203757D01*
X172394091Y-92192516D01*
X172343797Y-92057671D01*
X172343793Y-92057664D01*
X172257547Y-91942455D01*
X172257544Y-91942452D01*
X172142335Y-91856206D01*
X172142328Y-91856202D01*
X172007482Y-91805908D01*
X172007483Y-91805908D01*
X171947883Y-91799501D01*
X171947881Y-91799500D01*
X171947873Y-91799500D01*
X171947865Y-91799500D01*
X171601317Y-91799500D01*
X171534278Y-91779815D01*
X171513640Y-91763185D01*
X171453627Y-91703172D01*
X171450422Y-91700542D01*
X171394432Y-91654592D01*
X171187765Y-91484984D01*
X171187761Y-91484981D01*
X171187760Y-91484980D01*
X171170107Y-91473185D01*
X170901800Y-91293908D01*
X170901782Y-91293897D01*
X170598469Y-91131772D01*
X170598464Y-91131770D01*
X170280706Y-91000150D01*
X169951572Y-90900308D01*
X169614248Y-90833210D01*
X169614249Y-90833210D01*
X169356456Y-90807821D01*
X169271969Y-90799500D01*
X169271966Y-90799500D01*
X163899500Y-90799500D01*
X163832461Y-90779815D01*
X163786706Y-90727011D01*
X163775500Y-90675500D01*
X163775500Y-88698422D01*
X164224500Y-88698422D01*
X164255290Y-88892826D01*
X164316116Y-89080025D01*
X164316119Y-89080032D01*
X164385985Y-89217153D01*
X164399500Y-89273443D01*
X164399500Y-89300000D01*
X164399501Y-89300018D01*
X164410001Y-89402797D01*
X164410001Y-89402799D01*
X164430893Y-89465846D01*
X164465186Y-89569334D01*
X164557288Y-89718656D01*
X164681344Y-89842712D01*
X164830666Y-89934814D01*
X164997203Y-89989999D01*
X165099991Y-90000500D01*
X165850008Y-90000499D01*
X165850016Y-90000498D01*
X165850019Y-90000498D01*
X165906302Y-89994748D01*
X165952797Y-89989999D01*
X166119334Y-89934814D01*
X166183803Y-89895049D01*
X166226100Y-89868961D01*
X166291196Y-89850500D01*
X166769551Y-89850500D01*
X166836590Y-89870185D01*
X166882345Y-89922989D01*
X166887256Y-89935493D01*
X166890186Y-89944334D01*
X166982288Y-90093656D01*
X167106344Y-90217712D01*
X167255666Y-90309814D01*
X167422203Y-90364999D01*
X167524991Y-90375500D01*
X168400152Y-90375499D01*
X168456446Y-90389014D01*
X168460623Y-90391142D01*
X168519974Y-90421383D01*
X168707173Y-90482209D01*
X168804378Y-90497604D01*
X168901578Y-90513000D01*
X168901583Y-90513000D01*
X169098421Y-90513000D01*
X169186784Y-90499004D01*
X169292826Y-90482209D01*
X169480025Y-90421383D01*
X169539376Y-90391142D01*
X169543553Y-90389014D01*
X169599847Y-90375499D01*
X170475002Y-90375499D01*
X170475008Y-90375499D01*
X170577797Y-90364999D01*
X170744334Y-90309814D01*
X170893656Y-90217712D01*
X171017712Y-90093656D01*
X171109814Y-89944334D01*
X171164999Y-89777797D01*
X171175500Y-89675009D01*
X171175499Y-88849992D01*
X171164999Y-88747203D01*
X171109814Y-88580666D01*
X171017712Y-88431344D01*
X170893656Y-88307288D01*
X170788343Y-88242331D01*
X170744336Y-88215187D01*
X170744331Y-88215185D01*
X170695892Y-88199134D01*
X170577797Y-88160001D01*
X170577795Y-88160000D01*
X170475016Y-88149500D01*
X170475009Y-88149500D01*
X169706836Y-88149500D01*
X169639797Y-88129815D01*
X169619155Y-88113181D01*
X169152148Y-87646174D01*
X169152146Y-87646172D01*
X168992905Y-87530476D01*
X168817530Y-87441117D01*
X168630326Y-87380290D01*
X168435922Y-87349500D01*
X168435917Y-87349500D01*
X166291196Y-87349500D01*
X166226100Y-87331039D01*
X166119340Y-87265189D01*
X166119335Y-87265187D01*
X166119334Y-87265186D01*
X165952797Y-87210001D01*
X165952795Y-87210000D01*
X165850010Y-87199500D01*
X165099998Y-87199500D01*
X165099980Y-87199501D01*
X164997203Y-87210000D01*
X164997200Y-87210001D01*
X164830668Y-87265185D01*
X164830663Y-87265187D01*
X164681342Y-87357289D01*
X164557289Y-87481342D01*
X164465187Y-87630663D01*
X164465185Y-87630668D01*
X164437349Y-87714670D01*
X164410001Y-87797203D01*
X164410001Y-87797204D01*
X164410000Y-87797204D01*
X164399500Y-87899983D01*
X164399500Y-87926553D01*
X164385985Y-87982847D01*
X164316118Y-88119968D01*
X164255290Y-88307173D01*
X164224500Y-88501577D01*
X164224500Y-88698422D01*
X163775500Y-88698422D01*
X163775500Y-88501577D01*
X163744709Y-88307173D01*
X163707316Y-88192091D01*
X163683884Y-88119975D01*
X163683882Y-88119972D01*
X163683881Y-88119967D01*
X163614014Y-87982845D01*
X163600499Y-87926551D01*
X163600499Y-87899998D01*
X163600498Y-87899981D01*
X163589999Y-87797203D01*
X163589998Y-87797200D01*
X163577428Y-87759266D01*
X163534814Y-87630666D01*
X163442712Y-87481344D01*
X163318656Y-87357288D01*
X163169334Y-87265186D01*
X163002797Y-87210001D01*
X163002795Y-87210000D01*
X162900010Y-87199500D01*
X162149998Y-87199500D01*
X162149980Y-87199501D01*
X162047203Y-87210000D01*
X162047200Y-87210001D01*
X161880668Y-87265185D01*
X161880663Y-87265187D01*
X161731342Y-87357289D01*
X161607289Y-87481342D01*
X161515187Y-87630663D01*
X161515185Y-87630668D01*
X161487349Y-87714670D01*
X161460001Y-87797203D01*
X161460001Y-87797204D01*
X161460000Y-87797204D01*
X161449500Y-87899983D01*
X161449500Y-87926553D01*
X161435985Y-87982847D01*
X161366118Y-88119968D01*
X161305290Y-88307173D01*
X161274500Y-88501577D01*
X161274500Y-90675500D01*
X161254815Y-90742539D01*
X161202011Y-90788294D01*
X161150500Y-90799500D01*
X155728031Y-90799500D01*
X155649966Y-90807188D01*
X155385750Y-90833210D01*
X155048427Y-90900308D01*
X154719293Y-91000150D01*
X154401535Y-91131770D01*
X154401530Y-91131772D01*
X154098224Y-91293893D01*
X154098206Y-91293904D01*
X153812248Y-91484975D01*
X153812234Y-91484985D01*
X153546367Y-91703176D01*
X153303176Y-91946367D01*
X153084985Y-92212234D01*
X153084975Y-92212248D01*
X152893904Y-92498206D01*
X152893893Y-92498224D01*
X152731772Y-92801530D01*
X152731770Y-92801535D01*
X152600150Y-93119293D01*
X152500308Y-93448427D01*
X152433210Y-93785750D01*
X152410617Y-94015158D01*
X152399500Y-94128031D01*
X152399500Y-94471969D01*
X141401531Y-94471969D01*
X147136681Y-88736819D01*
X147198004Y-88703334D01*
X147224362Y-88700500D01*
X147894645Y-88700500D01*
X147894646Y-88700500D01*
X147980746Y-88682198D01*
X147982180Y-88681902D01*
X148062666Y-88665894D01*
X148062669Y-88665892D01*
X148062672Y-88665892D01*
X148068496Y-88664126D01*
X148068631Y-88664573D01*
X148079315Y-88661247D01*
X148079803Y-88661144D01*
X148154057Y-88628082D01*
X148156955Y-88626837D01*
X148226547Y-88598013D01*
X148227633Y-88597287D01*
X148246095Y-88587104D01*
X148252730Y-88584151D01*
X148313054Y-88540322D01*
X148316952Y-88537605D01*
X148374035Y-88499464D01*
X148379739Y-88493758D01*
X148394531Y-88481126D01*
X148405871Y-88472888D01*
X148451274Y-88422461D01*
X148455687Y-88417810D01*
X148499464Y-88374035D01*
X148507687Y-88361727D01*
X148518642Y-88347643D01*
X148532531Y-88332218D01*
X148532530Y-88332218D01*
X148532533Y-88332216D01*
X148563091Y-88279284D01*
X148567368Y-88272408D01*
X148598012Y-88226548D01*
X148598013Y-88226547D01*
X148606259Y-88206637D01*
X148613433Y-88192091D01*
X148627177Y-88168287D01*
X148627178Y-88168286D01*
X148629870Y-88160001D01*
X148643995Y-88116528D01*
X148647351Y-88107431D01*
X148665894Y-88062666D01*
X148671411Y-88034927D01*
X148675094Y-88020813D01*
X148685674Y-87988256D01*
X148690656Y-87940837D01*
X148692361Y-87929604D01*
X148700500Y-87888695D01*
X148700500Y-87853692D01*
X148701179Y-87840731D01*
X148705460Y-87800000D01*
X148701179Y-87759266D01*
X148700500Y-87746306D01*
X148700500Y-87711309D01*
X148692360Y-87670393D01*
X148690656Y-87659156D01*
X148688706Y-87640596D01*
X148685674Y-87611744D01*
X148675094Y-87579183D01*
X148671409Y-87565059D01*
X148665895Y-87537339D01*
X148665894Y-87537338D01*
X148665894Y-87537334D01*
X148647352Y-87492569D01*
X148643990Y-87483455D01*
X148643303Y-87481342D01*
X148637094Y-87462230D01*
X148627181Y-87431720D01*
X148627179Y-87431716D01*
X148613424Y-87407892D01*
X148606256Y-87393355D01*
X148598466Y-87374548D01*
X148598013Y-87373453D01*
X148567359Y-87327577D01*
X148563088Y-87320708D01*
X148532534Y-87267785D01*
X148532530Y-87267780D01*
X148518637Y-87252350D01*
X148507684Y-87238268D01*
X148499464Y-87225965D01*
X148455724Y-87182225D01*
X148451255Y-87177516D01*
X148405871Y-87127112D01*
X148394528Y-87118871D01*
X148379737Y-87106238D01*
X148374035Y-87100536D01*
X148317008Y-87062431D01*
X148313016Y-87059649D01*
X148252730Y-87015849D01*
X148246092Y-87012893D01*
X148227643Y-87002719D01*
X148226551Y-87001989D01*
X148226546Y-87001986D01*
X148156993Y-86973177D01*
X148154010Y-86971895D01*
X148079806Y-86938856D01*
X148079797Y-86938853D01*
X148079285Y-86938745D01*
X148068626Y-86935438D01*
X148068494Y-86935874D01*
X148062667Y-86934106D01*
X148062666Y-86934106D01*
X148062663Y-86934105D01*
X148062662Y-86934105D01*
X147982268Y-86918113D01*
X147980715Y-86917794D01*
X147894646Y-86899500D01*
X147888691Y-86899500D01*
X146888692Y-86899500D01*
X146711308Y-86899500D01*
X146711303Y-86899500D01*
X146537341Y-86934103D01*
X146537333Y-86934105D01*
X146373455Y-87001985D01*
X146373446Y-87001990D01*
X146225964Y-87100535D01*
X146225960Y-87100538D01*
X132463319Y-100863181D01*
X132401996Y-100896666D01*
X132375638Y-100899500D01*
X131773362Y-100899500D01*
X131706323Y-100879815D01*
X131660568Y-100827011D01*
X131650624Y-100757853D01*
X131679649Y-100694297D01*
X131685681Y-100687819D01*
X138899463Y-93474036D01*
X138899465Y-93474033D01*
X138907363Y-93462214D01*
X138998013Y-93326547D01*
X139065894Y-93162666D01*
X139074522Y-93119293D01*
X139100499Y-92988695D01*
X139100500Y-92988693D01*
X139100500Y-92453692D01*
X139101179Y-92440731D01*
X139101636Y-92436380D01*
X139105460Y-92400000D01*
X139101179Y-92359266D01*
X139100500Y-92346306D01*
X139100500Y-92311309D01*
X139092360Y-92270393D01*
X139090656Y-92259156D01*
X139089918Y-92252129D01*
X139085674Y-92211744D01*
X139075094Y-92179183D01*
X139071409Y-92165059D01*
X139065895Y-92137339D01*
X139065894Y-92137336D01*
X139065894Y-92137334D01*
X139047352Y-92092569D01*
X139043990Y-92083455D01*
X139027181Y-92031720D01*
X139027178Y-92031715D01*
X139013424Y-92007892D01*
X139006256Y-91993355D01*
X139005940Y-91992593D01*
X138998013Y-91973453D01*
X138967359Y-91927577D01*
X138963088Y-91920708D01*
X138932534Y-91867785D01*
X138932530Y-91867780D01*
X138918637Y-91852350D01*
X138907684Y-91838268D01*
X138900550Y-91827591D01*
X138899464Y-91825965D01*
X138855721Y-91782222D01*
X138851255Y-91777516D01*
X138805871Y-91727112D01*
X138804292Y-91725965D01*
X138794527Y-91718870D01*
X138779737Y-91706238D01*
X138774035Y-91700536D01*
X138717008Y-91662431D01*
X138713016Y-91659649D01*
X138652730Y-91615849D01*
X138646092Y-91612893D01*
X138627643Y-91602719D01*
X138626551Y-91601989D01*
X138626546Y-91601986D01*
X138556993Y-91573177D01*
X138554010Y-91571895D01*
X138479806Y-91538856D01*
X138479797Y-91538853D01*
X138479285Y-91538745D01*
X138468626Y-91535438D01*
X138468494Y-91535874D01*
X138462667Y-91534106D01*
X138462666Y-91534106D01*
X138462663Y-91534105D01*
X138462662Y-91534105D01*
X138382268Y-91518113D01*
X138380715Y-91517794D01*
X138294646Y-91499500D01*
X138105354Y-91499500D01*
X138105350Y-91499500D01*
X138019334Y-91517783D01*
X138017745Y-91518110D01*
X137937336Y-91534105D01*
X137931514Y-91535871D01*
X137931382Y-91535437D01*
X137920720Y-91538744D01*
X137920200Y-91538854D01*
X137920199Y-91538854D01*
X137845969Y-91571904D01*
X137842986Y-91573185D01*
X137773457Y-91601984D01*
X137773450Y-91601988D01*
X137772346Y-91602726D01*
X137753912Y-91612891D01*
X137749865Y-91614693D01*
X137747272Y-91615848D01*
X137747264Y-91615853D01*
X137686976Y-91659653D01*
X137682986Y-91662434D01*
X137625968Y-91700533D01*
X137625958Y-91700542D01*
X137620253Y-91706246D01*
X137605472Y-91718870D01*
X137594129Y-91727111D01*
X137594126Y-91727114D01*
X137548742Y-91777517D01*
X137544277Y-91782222D01*
X137500539Y-91825961D01*
X137500532Y-91825969D01*
X137492310Y-91838275D01*
X137481362Y-91852350D01*
X137467472Y-91867776D01*
X137467467Y-91867784D01*
X137436914Y-91920703D01*
X137432630Y-91927591D01*
X137401988Y-91973450D01*
X137393741Y-91993360D01*
X137386569Y-92007902D01*
X137372824Y-92031710D01*
X137372821Y-92031715D01*
X137356010Y-92083451D01*
X137352643Y-92092578D01*
X137334105Y-92137336D01*
X137334103Y-92137341D01*
X137332804Y-92143872D01*
X137300413Y-92205780D01*
X137239694Y-92240349D01*
X137169925Y-92236603D01*
X137113257Y-92195731D01*
X137087868Y-92132625D01*
X137085675Y-92111750D01*
X137085674Y-92111747D01*
X137085674Y-92111744D01*
X137075094Y-92079183D01*
X137071409Y-92065059D01*
X137065895Y-92037339D01*
X137065894Y-92037338D01*
X137065894Y-92037334D01*
X137047352Y-91992569D01*
X137043990Y-91983455D01*
X137027181Y-91931720D01*
X137027178Y-91931715D01*
X137013424Y-91907892D01*
X137006256Y-91893355D01*
X136998014Y-91873456D01*
X136998013Y-91873454D01*
X136998013Y-91873453D01*
X136967359Y-91827577D01*
X136963088Y-91820708D01*
X136932534Y-91767785D01*
X136932530Y-91767780D01*
X136918637Y-91752350D01*
X136907684Y-91738268D01*
X136899464Y-91725965D01*
X136855721Y-91682222D01*
X136851255Y-91677516D01*
X136805871Y-91627112D01*
X136805870Y-91627111D01*
X136794527Y-91618870D01*
X136779737Y-91606238D01*
X136774035Y-91600536D01*
X136717008Y-91562431D01*
X136713016Y-91559649D01*
X136652730Y-91515849D01*
X136646092Y-91512893D01*
X136627643Y-91502719D01*
X136626551Y-91501989D01*
X136626546Y-91501986D01*
X136556993Y-91473177D01*
X136554010Y-91471895D01*
X136479806Y-91438856D01*
X136479797Y-91438853D01*
X136479285Y-91438745D01*
X136468626Y-91435438D01*
X136468494Y-91435874D01*
X136462667Y-91434106D01*
X136462666Y-91434106D01*
X136462663Y-91434105D01*
X136462662Y-91434105D01*
X136382268Y-91418113D01*
X136380715Y-91417794D01*
X136294646Y-91399500D01*
X136105354Y-91399500D01*
X136105350Y-91399500D01*
X136019334Y-91417783D01*
X136017745Y-91418110D01*
X135937336Y-91434105D01*
X135931514Y-91435871D01*
X135931382Y-91435437D01*
X135920720Y-91438744D01*
X135920200Y-91438854D01*
X135920199Y-91438854D01*
X135845969Y-91471904D01*
X135842986Y-91473185D01*
X135773457Y-91501984D01*
X135773450Y-91501988D01*
X135772346Y-91502726D01*
X135753911Y-91512892D01*
X135747272Y-91515848D01*
X135747264Y-91515853D01*
X135686976Y-91559653D01*
X135682986Y-91562434D01*
X135625968Y-91600533D01*
X135625958Y-91600542D01*
X135620253Y-91606246D01*
X135605472Y-91618870D01*
X135594129Y-91627111D01*
X135594126Y-91627114D01*
X135548742Y-91677517D01*
X135544277Y-91682222D01*
X135500539Y-91725961D01*
X135500532Y-91725969D01*
X135492310Y-91738275D01*
X135481362Y-91752350D01*
X135467472Y-91767776D01*
X135467467Y-91767784D01*
X135444132Y-91808202D01*
X135436914Y-91820703D01*
X135432630Y-91827591D01*
X135401988Y-91873450D01*
X135393741Y-91893360D01*
X135386569Y-91907902D01*
X135372824Y-91931710D01*
X135372821Y-91931715D01*
X135356010Y-91983451D01*
X135352643Y-91992578D01*
X135334106Y-92037333D01*
X135328589Y-92065066D01*
X135324905Y-92079183D01*
X135314325Y-92111747D01*
X135309340Y-92159171D01*
X135307638Y-92170396D01*
X135299500Y-92211310D01*
X135299500Y-92246306D01*
X135298821Y-92259266D01*
X135294540Y-92300000D01*
X135298821Y-92340731D01*
X135299500Y-92353692D01*
X135299500Y-92451774D01*
X135279815Y-92518813D01*
X135227011Y-92564568D01*
X135157853Y-92574512D01*
X135102615Y-92552092D01*
X135052729Y-92515848D01*
X135052728Y-92515847D01*
X135046076Y-92512885D01*
X135027647Y-92502723D01*
X135026549Y-92501989D01*
X135026539Y-92501984D01*
X134957009Y-92473183D01*
X134954028Y-92471903D01*
X134879799Y-92438854D01*
X134879795Y-92438853D01*
X134879285Y-92438745D01*
X134868626Y-92435438D01*
X134868494Y-92435874D01*
X134862667Y-92434106D01*
X134862666Y-92434106D01*
X134862663Y-92434105D01*
X134862662Y-92434105D01*
X134782268Y-92418113D01*
X134780715Y-92417794D01*
X134694646Y-92399500D01*
X134505354Y-92399500D01*
X134419280Y-92417794D01*
X134417695Y-92418120D01*
X134337327Y-92434107D01*
X134331507Y-92435873D01*
X134331375Y-92435440D01*
X134320720Y-92438744D01*
X134320200Y-92438854D01*
X134320195Y-92438856D01*
X134245949Y-92471912D01*
X134242968Y-92473193D01*
X134173451Y-92501988D01*
X134173443Y-92501992D01*
X134172347Y-92502725D01*
X134153918Y-92512888D01*
X134147270Y-92515848D01*
X134086966Y-92559660D01*
X134082976Y-92562441D01*
X134025967Y-92600534D01*
X134025957Y-92600543D01*
X134020253Y-92606246D01*
X134005472Y-92618870D01*
X133994129Y-92627111D01*
X133994126Y-92627114D01*
X133948743Y-92677516D01*
X133944276Y-92682223D01*
X131363319Y-95263181D01*
X131301996Y-95296666D01*
X131275638Y-95299500D01*
X115910100Y-95299500D01*
X115843061Y-95279815D01*
X115841270Y-95278642D01*
X115816993Y-95262421D01*
X115813039Y-95259665D01*
X115790244Y-95243104D01*
X115752730Y-95215849D01*
X115746081Y-95212888D01*
X115727636Y-95202716D01*
X115727022Y-95202305D01*
X115726546Y-95201987D01*
X115690459Y-95187039D01*
X115656984Y-95173173D01*
X115654039Y-95171907D01*
X115579804Y-95138856D01*
X115579618Y-95138816D01*
X115579294Y-95138747D01*
X115568632Y-95135437D01*
X115568500Y-95135874D01*
X115562667Y-95134105D01*
X115482222Y-95118103D01*
X115480633Y-95117776D01*
X115394650Y-95099500D01*
X115394646Y-95099500D01*
X115205354Y-95099500D01*
X115119306Y-95117789D01*
X115117717Y-95118115D01*
X115037333Y-95134104D01*
X115031508Y-95135871D01*
X115031378Y-95135443D01*
X115020726Y-95138743D01*
X115020202Y-95138854D01*
X115020198Y-95138855D01*
X114945971Y-95171902D01*
X114942994Y-95173181D01*
X114873453Y-95201988D01*
X114873450Y-95201989D01*
X114872342Y-95202730D01*
X114853921Y-95212886D01*
X114847279Y-95215843D01*
X114847273Y-95215847D01*
X114786993Y-95259641D01*
X114783004Y-95262421D01*
X114725967Y-95300533D01*
X114725955Y-95300543D01*
X114720251Y-95306247D01*
X114705468Y-95318872D01*
X114694136Y-95327105D01*
X114694126Y-95327114D01*
X114648751Y-95377507D01*
X114644286Y-95382212D01*
X114600539Y-95425960D01*
X114600532Y-95425968D01*
X114592308Y-95438277D01*
X114581361Y-95452352D01*
X114567468Y-95467782D01*
X114567467Y-95467783D01*
X114536907Y-95520713D01*
X114532626Y-95527597D01*
X114501987Y-95573454D01*
X114493742Y-95593357D01*
X114486575Y-95607890D01*
X114472820Y-95631716D01*
X114472818Y-95631721D01*
X114456010Y-95683449D01*
X114452642Y-95692580D01*
X114434105Y-95737333D01*
X114434103Y-95737341D01*
X114428588Y-95765067D01*
X114424902Y-95779193D01*
X114414326Y-95811743D01*
X114414325Y-95811746D01*
X114409341Y-95859160D01*
X114407639Y-95870384D01*
X114399500Y-95911307D01*
X114399500Y-95946306D01*
X114398821Y-95959266D01*
X114394540Y-95999999D01*
X114398821Y-96040731D01*
X114399500Y-96053692D01*
X114399500Y-96088692D01*
X114407639Y-96129614D01*
X114409341Y-96140839D01*
X114414325Y-96188249D01*
X114414326Y-96188256D01*
X114424903Y-96220807D01*
X114428587Y-96234927D01*
X114434105Y-96262665D01*
X114434106Y-96262670D01*
X114452641Y-96307417D01*
X114456011Y-96316550D01*
X114472820Y-96368282D01*
X114486571Y-96392100D01*
X114493743Y-96406644D01*
X114501986Y-96426544D01*
X114501988Y-96426547D01*
X114532626Y-96472402D01*
X114536910Y-96479290D01*
X114567467Y-96532216D01*
X114581355Y-96547640D01*
X114592307Y-96561721D01*
X114600533Y-96574033D01*
X114600536Y-96574036D01*
X114644272Y-96617771D01*
X114648742Y-96622481D01*
X114694128Y-96672887D01*
X114705466Y-96681125D01*
X114720260Y-96693760D01*
X114800536Y-96774035D01*
X114863986Y-96837485D01*
X114897471Y-96898808D01*
X114892487Y-96968500D01*
X114850615Y-97024433D01*
X114823758Y-97039727D01*
X114721453Y-97082102D01*
X114721454Y-97082103D01*
X114673453Y-97101987D01*
X114599708Y-97151262D01*
X114525963Y-97200535D01*
X114525960Y-97200538D01*
X104900540Y-106825959D01*
X104900537Y-106825961D01*
X104861064Y-106885039D01*
X104861063Y-106885040D01*
X104801990Y-106973447D01*
X104801983Y-106973459D01*
X104772850Y-107043795D01*
X104772850Y-107043796D01*
X104734105Y-107137333D01*
X104726096Y-107177597D01*
X104701849Y-107299500D01*
X104699500Y-107311309D01*
X104699500Y-107311310D01*
X104699500Y-113674481D01*
X104734103Y-113848444D01*
X104734106Y-113848453D01*
X104801984Y-114012328D01*
X104801985Y-114012329D01*
X104801987Y-114012333D01*
X104812526Y-114028105D01*
X104828602Y-114052164D01*
X104849480Y-114118841D01*
X104849500Y-114121055D01*
X104849500Y-114173918D01*
X104849500Y-114173920D01*
X104849499Y-114173920D01*
X104878340Y-114318907D01*
X104878343Y-114318917D01*
X104934912Y-114455488D01*
X104934916Y-114455495D01*
X104955488Y-114486283D01*
X104955489Y-114486286D01*
X104955490Y-114486286D01*
X105014238Y-114574211D01*
X105017051Y-114578420D01*
X105017052Y-114578421D01*
X105448896Y-115010264D01*
X105482381Y-115071587D01*
X105477397Y-115141278D01*
X105435526Y-115197212D01*
X105370061Y-115221629D01*
X105301788Y-115206777D01*
X105295243Y-115202939D01*
X105249523Y-115174211D01*
X105079254Y-115114631D01*
X105079249Y-115114630D01*
X104900004Y-115094435D01*
X104899996Y-115094435D01*
X104782916Y-115107626D01*
X104714094Y-115095571D01*
X104662715Y-115048222D01*
X104651991Y-115025360D01*
X104625789Y-114950478D01*
X104606339Y-114919523D01*
X104529816Y-114797738D01*
X104402262Y-114670184D01*
X104249523Y-114574211D01*
X104079254Y-114514631D01*
X104079249Y-114514630D01*
X103900004Y-114494435D01*
X103899996Y-114494435D01*
X103782916Y-114507626D01*
X103714094Y-114495571D01*
X103662715Y-114448222D01*
X103651991Y-114425360D01*
X103625789Y-114350478D01*
X103605955Y-114318913D01*
X103529816Y-114197738D01*
X103402262Y-114070184D01*
X103387873Y-114061143D01*
X103249523Y-113974211D01*
X103079254Y-113914631D01*
X103079249Y-113914630D01*
X102900004Y-113894435D01*
X102899996Y-113894435D01*
X102720750Y-113914630D01*
X102720745Y-113914631D01*
X102550476Y-113974211D01*
X102397737Y-114070184D01*
X102270186Y-114197735D01*
X102245028Y-114237772D01*
X102240939Y-114243870D01*
X101935571Y-114671385D01*
X101922349Y-114686992D01*
X98146162Y-118463181D01*
X98084839Y-118496666D01*
X98058481Y-118499500D01*
X94741519Y-118499500D01*
X94674480Y-118479815D01*
X94653838Y-118463181D01*
X94336819Y-118146162D01*
X94303334Y-118084839D01*
X94300500Y-118058481D01*
X94300500Y-116425493D01*
X94319508Y-116359519D01*
X94325787Y-116349525D01*
X94325786Y-116349525D01*
X94325789Y-116349522D01*
X94385368Y-116179255D01*
X94386731Y-116167157D01*
X94405565Y-116000003D01*
X94405565Y-115999996D01*
X94385369Y-115820750D01*
X94385368Y-115820745D01*
X94325788Y-115650476D01*
X94262953Y-115550475D01*
X94229816Y-115497738D01*
X94102262Y-115370184D01*
X94071893Y-115351102D01*
X93949523Y-115274211D01*
X93779254Y-115214631D01*
X93779249Y-115214630D01*
X93600004Y-115194435D01*
X93599996Y-115194435D01*
X93420750Y-115214630D01*
X93420742Y-115214632D01*
X93265454Y-115268970D01*
X93195676Y-115272531D01*
X93135048Y-115237802D01*
X93102821Y-115175809D01*
X93100500Y-115151928D01*
X93100500Y-111281902D01*
X93063553Y-111048631D01*
X92996582Y-110842517D01*
X92990568Y-110824008D01*
X92990566Y-110824005D01*
X92990566Y-110824003D01*
X92965852Y-110775500D01*
X92965851Y-110775499D01*
X92883343Y-110613566D01*
X92744517Y-110422490D01*
X89936819Y-107614792D01*
X89903334Y-107553469D01*
X89900500Y-107527111D01*
X89900500Y-94137896D01*
X89920185Y-94070857D01*
X89972989Y-94025102D01*
X90042147Y-94015158D01*
X90105703Y-94044183D01*
X90137413Y-94088161D01*
X90137758Y-94087992D01*
X90138768Y-94090039D01*
X90139063Y-94090449D01*
X90139551Y-94091628D01*
X90139557Y-94091640D01*
X90254292Y-94290367D01*
X90393981Y-94472411D01*
X90393989Y-94472420D01*
X90556230Y-94634661D01*
X90556238Y-94634668D01*
X90738282Y-94774357D01*
X90738285Y-94774358D01*
X90738288Y-94774361D01*
X90937012Y-94889094D01*
X90937017Y-94889096D01*
X90937023Y-94889099D01*
X90997758Y-94914256D01*
X91149013Y-94976908D01*
X91370662Y-95036298D01*
X91598166Y-95066250D01*
X91598173Y-95066250D01*
X91827627Y-95066250D01*
X91827634Y-95066250D01*
X92055138Y-95036298D01*
X92276787Y-94976908D01*
X92488788Y-94889094D01*
X92687512Y-94774361D01*
X92869561Y-94634669D01*
X92869565Y-94634664D01*
X92869570Y-94634661D01*
X92990611Y-94513620D01*
X97362400Y-94513620D01*
X97362401Y-94513626D01*
X97368808Y-94573233D01*
X97419102Y-94708078D01*
X97419106Y-94708085D01*
X97505352Y-94823294D01*
X97505355Y-94823297D01*
X97620564Y-94909543D01*
X97620571Y-94909547D01*
X97755417Y-94959841D01*
X97755416Y-94959841D01*
X97762344Y-94960585D01*
X97815027Y-94966250D01*
X100210772Y-94966249D01*
X100270383Y-94959841D01*
X100405231Y-94909546D01*
X100520446Y-94823296D01*
X100606696Y-94708081D01*
X100656991Y-94573233D01*
X100663400Y-94513623D01*
X100663399Y-92117878D01*
X100656991Y-92058267D01*
X100649185Y-92037339D01*
X100606697Y-91923421D01*
X100606693Y-91923414D01*
X100520447Y-91808205D01*
X100520444Y-91808202D01*
X100405235Y-91721956D01*
X100405228Y-91721952D01*
X100270382Y-91671658D01*
X100270383Y-91671658D01*
X100210783Y-91665251D01*
X100210781Y-91665250D01*
X100210773Y-91665250D01*
X100210764Y-91665250D01*
X97815029Y-91665250D01*
X97815023Y-91665251D01*
X97755416Y-91671658D01*
X97620571Y-91721952D01*
X97620564Y-91721956D01*
X97505355Y-91808202D01*
X97505352Y-91808205D01*
X97419106Y-91923414D01*
X97419102Y-91923421D01*
X97368808Y-92058267D01*
X97362401Y-92117866D01*
X97362401Y-92117873D01*
X97362400Y-92117885D01*
X97362400Y-94513620D01*
X92990611Y-94513620D01*
X93031811Y-94472420D01*
X93031814Y-94472415D01*
X93031819Y-94472411D01*
X93171511Y-94290362D01*
X93286244Y-94091638D01*
X93374058Y-93879637D01*
X93433448Y-93657988D01*
X93463400Y-93430484D01*
X93463400Y-93201016D01*
X93433448Y-92973512D01*
X93374058Y-92751863D01*
X93311379Y-92600543D01*
X93286249Y-92539873D01*
X93286246Y-92539867D01*
X93286244Y-92539862D01*
X93171511Y-92341138D01*
X93171508Y-92341135D01*
X93171507Y-92341132D01*
X93036400Y-92165059D01*
X93031819Y-92159089D01*
X93031818Y-92159088D01*
X93031811Y-92159080D01*
X92869570Y-91996839D01*
X92869561Y-91996831D01*
X92687517Y-91857142D01*
X92685892Y-91856204D01*
X92553775Y-91779926D01*
X92488790Y-91742407D01*
X92488776Y-91742400D01*
X92276787Y-91654592D01*
X92055138Y-91595202D01*
X92017115Y-91590196D01*
X91827641Y-91565250D01*
X91827634Y-91565250D01*
X91598166Y-91565250D01*
X91598158Y-91565250D01*
X91381615Y-91593759D01*
X91370662Y-91595202D01*
X91293591Y-91615853D01*
X91149012Y-91654592D01*
X90937023Y-91742400D01*
X90937009Y-91742407D01*
X90738282Y-91857142D01*
X90556238Y-91996831D01*
X90393981Y-92159088D01*
X90254292Y-92341132D01*
X90139557Y-92539859D01*
X90139551Y-92539871D01*
X90139060Y-92541058D01*
X90138818Y-92541357D01*
X90137758Y-92543508D01*
X90137276Y-92543270D01*
X90095218Y-92595461D01*
X90028923Y-92617524D01*
X89961224Y-92600243D01*
X89913615Y-92549105D01*
X89900500Y-92493603D01*
X89900500Y-89115750D01*
X97357296Y-89115750D01*
X97377678Y-89374740D01*
X97438327Y-89627360D01*
X97537743Y-89867373D01*
X97537745Y-89867377D01*
X97537746Y-89867378D01*
X97673488Y-90088890D01*
X97842211Y-90286439D01*
X98039760Y-90455162D01*
X98261272Y-90590904D01*
X98261274Y-90590904D01*
X98261276Y-90590906D01*
X98322593Y-90616304D01*
X98501290Y-90690323D01*
X98753906Y-90750971D01*
X99012900Y-90771354D01*
X99271894Y-90750971D01*
X99524510Y-90690323D01*
X99764528Y-90590904D01*
X99986040Y-90455162D01*
X100183589Y-90286439D01*
X100352312Y-90088890D01*
X100488054Y-89867378D01*
X100587473Y-89627360D01*
X100610847Y-89530000D01*
X119294540Y-89530000D01*
X119314326Y-89718256D01*
X119314327Y-89718259D01*
X119372818Y-89898277D01*
X119372821Y-89898284D01*
X119467467Y-90062216D01*
X119495776Y-90093656D01*
X119594129Y-90202888D01*
X119747265Y-90314148D01*
X119747270Y-90314151D01*
X119920191Y-90391142D01*
X119920193Y-90391142D01*
X119920197Y-90391144D01*
X120075130Y-90424075D01*
X120136607Y-90457266D01*
X120137026Y-90457683D01*
X120663181Y-90983838D01*
X120696666Y-91045161D01*
X120699500Y-91071519D01*
X120699500Y-92314608D01*
X120679815Y-92381647D01*
X120667656Y-92397574D01*
X120667468Y-92397782D01*
X120667464Y-92397787D01*
X120572821Y-92561715D01*
X120572818Y-92561722D01*
X120519435Y-92726020D01*
X120514326Y-92741744D01*
X120494540Y-92930000D01*
X120514326Y-93118256D01*
X120514327Y-93118259D01*
X120572818Y-93298277D01*
X120572821Y-93298284D01*
X120667467Y-93462216D01*
X120794129Y-93602888D01*
X120947265Y-93714148D01*
X120947270Y-93714151D01*
X121120192Y-93791142D01*
X121120197Y-93791144D01*
X121305354Y-93830500D01*
X121305355Y-93830500D01*
X121494644Y-93830500D01*
X121494646Y-93830500D01*
X121679803Y-93791144D01*
X121852730Y-93714151D01*
X122005871Y-93602888D01*
X122132533Y-93462216D01*
X122227179Y-93298284D01*
X122285674Y-93118256D01*
X122305460Y-92930000D01*
X122285674Y-92741744D01*
X122227179Y-92561716D01*
X122161059Y-92447192D01*
X122132535Y-92397787D01*
X122132531Y-92397782D01*
X122132344Y-92397574D01*
X122132273Y-92397427D01*
X122128714Y-92392528D01*
X122129610Y-92391876D01*
X122102119Y-92334580D01*
X122100500Y-92314608D01*
X122100500Y-90661004D01*
X122100499Y-90661002D01*
X122073582Y-90525679D01*
X122073580Y-90525674D01*
X122073580Y-90525672D01*
X122069677Y-90516250D01*
X122020775Y-90398189D01*
X121944114Y-90283457D01*
X121944112Y-90283454D01*
X121944111Y-90283453D01*
X121126503Y-89465846D01*
X121093018Y-89404523D01*
X121090865Y-89391143D01*
X121085674Y-89341744D01*
X121072116Y-89300018D01*
X121027181Y-89161722D01*
X121027180Y-89161721D01*
X121027179Y-89161716D01*
X120932533Y-88997784D01*
X120805871Y-88857112D01*
X120805870Y-88857111D01*
X120652734Y-88745851D01*
X120652729Y-88745848D01*
X120479807Y-88668857D01*
X120479802Y-88668855D01*
X120334001Y-88637865D01*
X120294646Y-88629500D01*
X120105354Y-88629500D01*
X120072897Y-88636398D01*
X119920197Y-88668855D01*
X119920192Y-88668857D01*
X119747270Y-88745848D01*
X119747265Y-88745851D01*
X119594129Y-88857111D01*
X119467466Y-88997785D01*
X119372821Y-89161715D01*
X119372818Y-89161722D01*
X119314327Y-89341740D01*
X119314326Y-89341744D01*
X119294540Y-89530000D01*
X100610847Y-89530000D01*
X100648121Y-89374744D01*
X100668504Y-89115750D01*
X100648121Y-88856756D01*
X100587473Y-88604140D01*
X100488054Y-88364122D01*
X100352312Y-88142610D01*
X100183589Y-87945061D01*
X99986040Y-87776338D01*
X99764528Y-87640596D01*
X99764527Y-87640595D01*
X99764523Y-87640593D01*
X99582166Y-87565059D01*
X99524510Y-87541177D01*
X99524511Y-87541177D01*
X99386821Y-87508120D01*
X99271894Y-87480529D01*
X99271892Y-87480528D01*
X99271891Y-87480528D01*
X99012900Y-87460146D01*
X98753909Y-87480528D01*
X98501289Y-87541177D01*
X98261276Y-87640593D01*
X98039759Y-87776338D01*
X97842211Y-87945061D01*
X97673488Y-88142609D01*
X97537743Y-88364126D01*
X97438327Y-88604139D01*
X97377678Y-88856759D01*
X97357296Y-89115750D01*
X89900500Y-89115750D01*
X89900500Y-85737896D01*
X89920185Y-85670857D01*
X89972989Y-85625102D01*
X90042147Y-85615158D01*
X90105703Y-85644183D01*
X90137413Y-85688161D01*
X90137758Y-85687992D01*
X90138768Y-85690039D01*
X90139063Y-85690449D01*
X90139551Y-85691628D01*
X90139557Y-85691640D01*
X90254292Y-85890367D01*
X90393981Y-86072411D01*
X90393989Y-86072420D01*
X90556230Y-86234661D01*
X90556238Y-86234668D01*
X90738282Y-86374357D01*
X90738285Y-86374358D01*
X90738288Y-86374361D01*
X90937012Y-86489094D01*
X90937017Y-86489096D01*
X90937023Y-86489099D01*
X91028380Y-86526940D01*
X91149013Y-86576908D01*
X91370662Y-86636298D01*
X91598166Y-86666250D01*
X91598173Y-86666250D01*
X91827627Y-86666250D01*
X91827634Y-86666250D01*
X92055138Y-86636298D01*
X92276787Y-86576908D01*
X92488788Y-86489094D01*
X92687512Y-86374361D01*
X92869561Y-86234669D01*
X92869565Y-86234664D01*
X92869570Y-86234661D01*
X93031811Y-86072420D01*
X93031814Y-86072415D01*
X93031819Y-86072411D01*
X93171511Y-85890362D01*
X93286244Y-85691638D01*
X93374058Y-85479637D01*
X93433448Y-85257988D01*
X93463400Y-85030484D01*
X93463400Y-84873920D01*
X123249499Y-84873920D01*
X123278340Y-85018907D01*
X123278343Y-85018917D01*
X123334914Y-85155491D01*
X123334916Y-85155495D01*
X123349376Y-85177136D01*
X123364986Y-85200499D01*
X123417049Y-85278418D01*
X123417052Y-85278421D01*
X124963181Y-86824549D01*
X124996666Y-86885872D01*
X124999500Y-86912230D01*
X124999500Y-88047870D01*
X124999501Y-88047876D01*
X125005908Y-88107483D01*
X125056202Y-88242328D01*
X125056206Y-88242335D01*
X125142452Y-88357544D01*
X125142455Y-88357547D01*
X125257664Y-88443793D01*
X125257671Y-88443797D01*
X125392517Y-88494091D01*
X125392516Y-88494091D01*
X125399444Y-88494835D01*
X125452127Y-88500500D01*
X127247872Y-88500499D01*
X127307483Y-88494091D01*
X127442331Y-88443796D01*
X127557546Y-88357546D01*
X127643796Y-88242331D01*
X127694091Y-88107483D01*
X127700500Y-88047873D01*
X127700499Y-86724499D01*
X127720184Y-86657461D01*
X127772987Y-86611706D01*
X127824499Y-86600500D01*
X128437770Y-86600500D01*
X128504809Y-86620185D01*
X128525451Y-86636819D01*
X128763181Y-86874548D01*
X128796666Y-86935871D01*
X128799500Y-86962229D01*
X128799500Y-88097870D01*
X128799501Y-88097876D01*
X128805908Y-88157483D01*
X128856202Y-88292328D01*
X128856206Y-88292335D01*
X128942452Y-88407544D01*
X128942455Y-88407547D01*
X129057664Y-88493793D01*
X129057671Y-88493797D01*
X129192517Y-88544091D01*
X129192516Y-88544091D01*
X129199444Y-88544835D01*
X129252127Y-88550500D01*
X131047872Y-88550499D01*
X131107483Y-88544091D01*
X131242331Y-88493796D01*
X131357546Y-88407546D01*
X131443796Y-88292331D01*
X131494091Y-88157483D01*
X131500500Y-88097873D01*
X131500499Y-86561227D01*
X131520184Y-86494189D01*
X131572987Y-86448434D01*
X131642146Y-86438490D01*
X131705702Y-86467515D01*
X131712168Y-86473536D01*
X132099501Y-86860868D01*
X132613181Y-87374548D01*
X132646666Y-87435871D01*
X132649500Y-87462229D01*
X132649500Y-88597870D01*
X132649501Y-88597876D01*
X132655908Y-88657483D01*
X132706202Y-88792328D01*
X132706206Y-88792335D01*
X132792452Y-88907544D01*
X132792455Y-88907547D01*
X132907664Y-88993793D01*
X132907671Y-88993797D01*
X133042517Y-89044091D01*
X133042516Y-89044091D01*
X133049444Y-89044835D01*
X133102127Y-89050500D01*
X134897872Y-89050499D01*
X134957483Y-89044091D01*
X135092331Y-88993796D01*
X135207546Y-88907546D01*
X135293796Y-88792331D01*
X135344091Y-88657483D01*
X135350500Y-88597873D01*
X135350499Y-86802128D01*
X135344091Y-86742517D01*
X135315645Y-86666250D01*
X135293797Y-86607671D01*
X135293793Y-86607664D01*
X135207547Y-86492455D01*
X135207544Y-86492452D01*
X135092335Y-86406206D01*
X135092328Y-86406202D01*
X134957482Y-86355908D01*
X134957483Y-86355908D01*
X134897883Y-86349501D01*
X134897881Y-86349500D01*
X134897873Y-86349500D01*
X134897865Y-86349500D01*
X133762229Y-86349500D01*
X133695190Y-86329815D01*
X133674548Y-86313181D01*
X132773549Y-85412181D01*
X132740064Y-85350858D01*
X132745048Y-85281166D01*
X132786920Y-85225233D01*
X132852384Y-85200816D01*
X132861230Y-85200500D01*
X134287770Y-85200500D01*
X134354809Y-85220185D01*
X134375451Y-85236819D01*
X136513181Y-87374549D01*
X136546666Y-87435872D01*
X136549500Y-87462230D01*
X136549500Y-88597870D01*
X136549501Y-88597876D01*
X136555908Y-88657483D01*
X136606202Y-88792328D01*
X136606206Y-88792335D01*
X136692452Y-88907544D01*
X136692455Y-88907547D01*
X136807664Y-88993793D01*
X136807671Y-88993797D01*
X136942517Y-89044091D01*
X136942516Y-89044091D01*
X136949444Y-89044835D01*
X137002127Y-89050500D01*
X138797872Y-89050499D01*
X138857483Y-89044091D01*
X138992331Y-88993796D01*
X139107546Y-88907546D01*
X139193796Y-88792331D01*
X139244091Y-88657483D01*
X139250500Y-88597873D01*
X139250499Y-86802128D01*
X139244091Y-86742517D01*
X139215645Y-86666250D01*
X139193797Y-86607671D01*
X139193793Y-86607664D01*
X139107547Y-86492455D01*
X139107544Y-86492452D01*
X138992335Y-86406206D01*
X138992328Y-86406202D01*
X138857482Y-86355908D01*
X138857483Y-86355908D01*
X138797883Y-86349501D01*
X138797881Y-86349500D01*
X138797873Y-86349500D01*
X138797865Y-86349500D01*
X137662230Y-86349500D01*
X137595191Y-86329815D01*
X137574549Y-86313181D01*
X135128421Y-83867052D01*
X135128420Y-83867051D01*
X135049597Y-83814384D01*
X135049596Y-83814383D01*
X135005501Y-83784919D01*
X135005488Y-83784912D01*
X134868917Y-83728343D01*
X134868907Y-83728340D01*
X134723920Y-83699500D01*
X134723918Y-83699500D01*
X130414782Y-83699500D01*
X130347743Y-83679815D01*
X130301988Y-83627011D01*
X130292044Y-83557853D01*
X130321069Y-83494297D01*
X130327101Y-83487819D01*
X130578101Y-83236819D01*
X130639424Y-83203334D01*
X130665782Y-83200500D01*
X142334218Y-83200500D01*
X142401257Y-83220185D01*
X142421898Y-83236818D01*
X143922860Y-84737781D01*
X143922861Y-84737782D01*
X144062218Y-84877139D01*
X144226086Y-84986632D01*
X144226088Y-84986633D01*
X144226092Y-84986635D01*
X144283845Y-85010556D01*
X144349572Y-85037781D01*
X144408164Y-85062051D01*
X144478703Y-85076082D01*
X144509392Y-85082186D01*
X144601456Y-85100500D01*
X144601459Y-85100500D01*
X144601460Y-85100500D01*
X144798540Y-85100500D01*
X147594016Y-85100500D01*
X147661055Y-85120185D01*
X147681698Y-85136820D01*
X147722013Y-85177136D01*
X147722017Y-85177139D01*
X147885878Y-85286628D01*
X147885891Y-85286635D01*
X148014632Y-85339961D01*
X148067958Y-85362049D01*
X148067963Y-85362051D01*
X148102456Y-85368912D01*
X148142156Y-85376809D01*
X148261255Y-85400500D01*
X148261258Y-85400500D01*
X156498543Y-85400500D01*
X156604409Y-85379441D01*
X156657343Y-85368912D01*
X156691836Y-85362051D01*
X156745165Y-85339961D01*
X156873914Y-85286632D01*
X157037782Y-85177139D01*
X157177139Y-85037782D01*
X157177139Y-85037780D01*
X157187347Y-85027573D01*
X157187348Y-85027570D01*
X159277139Y-82937782D01*
X159386631Y-82773915D01*
X159462051Y-82591836D01*
X159500500Y-82398541D01*
X159500500Y-82201460D01*
X159500500Y-82201457D01*
X159500499Y-82201455D01*
X159471072Y-82053516D01*
X159462051Y-82008165D01*
X159386631Y-81826086D01*
X159386630Y-81826085D01*
X159386627Y-81826079D01*
X159277139Y-81662219D01*
X159277136Y-81662215D01*
X159137784Y-81522863D01*
X159137780Y-81522860D01*
X158973920Y-81413372D01*
X158973911Y-81413367D01*
X158791835Y-81337949D01*
X158791827Y-81337947D01*
X158598543Y-81299500D01*
X158598540Y-81299500D01*
X158401459Y-81299500D01*
X158401456Y-81299500D01*
X158208171Y-81337947D01*
X158208163Y-81337949D01*
X158026087Y-81413367D01*
X158026078Y-81413372D01*
X157862218Y-81522860D01*
X157862214Y-81522863D01*
X157243026Y-82142051D01*
X157181703Y-82175536D01*
X157112011Y-82170552D01*
X157056078Y-82128680D01*
X157035570Y-82086461D01*
X157026743Y-82053516D01*
X157026740Y-82053511D01*
X157026739Y-82053504D01*
X156961924Y-81914510D01*
X156951433Y-81845433D01*
X156979953Y-81781649D01*
X157026853Y-81747545D01*
X157096171Y-81718834D01*
X157173908Y-81686635D01*
X157173911Y-81686633D01*
X157173914Y-81686632D01*
X157337782Y-81577139D01*
X157477139Y-81437782D01*
X157586632Y-81273914D01*
X157601530Y-81237948D01*
X157662049Y-81091839D01*
X157662051Y-81091835D01*
X157700500Y-80898543D01*
X171199499Y-80898543D01*
X171237947Y-81091829D01*
X171237950Y-81091839D01*
X171313364Y-81273907D01*
X171313371Y-81273920D01*
X171422860Y-81437781D01*
X171422863Y-81437785D01*
X171562214Y-81577136D01*
X171562218Y-81577139D01*
X171726079Y-81686628D01*
X171726092Y-81686635D01*
X171873144Y-81747545D01*
X171908165Y-81762051D01*
X171908169Y-81762051D01*
X171908170Y-81762052D01*
X172101456Y-81800500D01*
X172101459Y-81800500D01*
X172298543Y-81800500D01*
X172428582Y-81774632D01*
X172491835Y-81762051D01*
X172673914Y-81686632D01*
X172837782Y-81577139D01*
X172977139Y-81437782D01*
X173086632Y-81273914D01*
X173101530Y-81237948D01*
X173162049Y-81091839D01*
X173162051Y-81091835D01*
X173200500Y-80898541D01*
X173200500Y-74265782D01*
X173220185Y-74198743D01*
X173236819Y-74178101D01*
X173577136Y-73837784D01*
X173577139Y-73837781D01*
X173686631Y-73673914D01*
X173762051Y-73491836D01*
X173800500Y-73298540D01*
X173800500Y-73101460D01*
X173800500Y-73101457D01*
X173800499Y-73101455D01*
X173762052Y-72908171D01*
X173762051Y-72908164D01*
X173686631Y-72726086D01*
X173686629Y-72726083D01*
X173686627Y-72726079D01*
X173577139Y-72562219D01*
X173577136Y-72562215D01*
X173437784Y-72422863D01*
X173437780Y-72422860D01*
X173273920Y-72313372D01*
X173273910Y-72313367D01*
X173091836Y-72237949D01*
X173091828Y-72237947D01*
X172898543Y-72199500D01*
X172898540Y-72199500D01*
X172701460Y-72199500D01*
X172701457Y-72199500D01*
X172508171Y-72237947D01*
X172508163Y-72237949D01*
X172326089Y-72313367D01*
X172326079Y-72313372D01*
X172162219Y-72422860D01*
X172162215Y-72422863D01*
X171859000Y-72726079D01*
X171562221Y-73022858D01*
X171562218Y-73022861D01*
X171492538Y-73092540D01*
X171422859Y-73162219D01*
X171313371Y-73326080D01*
X171313364Y-73326093D01*
X171287617Y-73388255D01*
X171244714Y-73491833D01*
X171244713Y-73491837D01*
X171237948Y-73508167D01*
X171237947Y-73508171D01*
X171199500Y-73701454D01*
X171199500Y-73701459D01*
X171199500Y-80898541D01*
X171199500Y-80898543D01*
X171199499Y-80898543D01*
X157700500Y-80898543D01*
X157700500Y-80898541D01*
X157700500Y-80701459D01*
X157700500Y-80701456D01*
X157662052Y-80508170D01*
X157662051Y-80508169D01*
X157662051Y-80508165D01*
X157662049Y-80508160D01*
X157586635Y-80326092D01*
X157586628Y-80326079D01*
X157477139Y-80162218D01*
X157477136Y-80162214D01*
X157337785Y-80022863D01*
X157337781Y-80022860D01*
X157173920Y-79913371D01*
X157173907Y-79913364D01*
X156991839Y-79837950D01*
X156991829Y-79837947D01*
X156798543Y-79799500D01*
X156798541Y-79799500D01*
X154065783Y-79799500D01*
X153998744Y-79779815D01*
X153978102Y-79763181D01*
X143686889Y-69471969D01*
X152399500Y-69471969D01*
X152409751Y-69576054D01*
X152433210Y-69814249D01*
X152500308Y-70151572D01*
X152600150Y-70480706D01*
X152731770Y-70798464D01*
X152731772Y-70798469D01*
X152893893Y-71101775D01*
X152893904Y-71101793D01*
X153084975Y-71387751D01*
X153084985Y-71387765D01*
X153303176Y-71653632D01*
X153546367Y-71896823D01*
X153546372Y-71896827D01*
X153546373Y-71896828D01*
X153812240Y-72115019D01*
X154098213Y-72306100D01*
X154098222Y-72306105D01*
X154098224Y-72306106D01*
X154401530Y-72468227D01*
X154401532Y-72468227D01*
X154401538Y-72468231D01*
X154719295Y-72599850D01*
X155048422Y-72699690D01*
X155385750Y-72766789D01*
X155728031Y-72800500D01*
X167940288Y-72800500D01*
X167964479Y-72802883D01*
X168285750Y-72866788D01*
X168628031Y-72900500D01*
X168628034Y-72900500D01*
X168971966Y-72900500D01*
X168971969Y-72900500D01*
X169314250Y-72866788D01*
X169481219Y-72833575D01*
X169651557Y-72799694D01*
X169651568Y-72799691D01*
X169651568Y-72799690D01*
X169651578Y-72799689D01*
X169980705Y-72699850D01*
X170298462Y-72568231D01*
X170601787Y-72406100D01*
X170887760Y-72215019D01*
X171153627Y-71996827D01*
X171313636Y-71836816D01*
X171374957Y-71803333D01*
X171401316Y-71800499D01*
X171947871Y-71800499D01*
X171947872Y-71800499D01*
X172007483Y-71794091D01*
X172142331Y-71743796D01*
X172257546Y-71657546D01*
X172343796Y-71542331D01*
X172394091Y-71407483D01*
X172400500Y-71347873D01*
X172400500Y-71347870D01*
X174399500Y-71347870D01*
X174399501Y-71347876D01*
X174405908Y-71407483D01*
X174456202Y-71542328D01*
X174456206Y-71542335D01*
X174542452Y-71657544D01*
X174542455Y-71657547D01*
X174657664Y-71743793D01*
X174657671Y-71743797D01*
X174792517Y-71794091D01*
X174792516Y-71794091D01*
X174799444Y-71794835D01*
X174852127Y-71800500D01*
X176947872Y-71800499D01*
X177007483Y-71794091D01*
X177142331Y-71743796D01*
X177257546Y-71657546D01*
X177343796Y-71542331D01*
X177394091Y-71407483D01*
X177400500Y-71347873D01*
X177400500Y-71347870D01*
X179399500Y-71347870D01*
X179399501Y-71347876D01*
X179405908Y-71407483D01*
X179456202Y-71542328D01*
X179456206Y-71542335D01*
X179542452Y-71657544D01*
X179542455Y-71657547D01*
X179657664Y-71743793D01*
X179657671Y-71743797D01*
X179792517Y-71794091D01*
X179792516Y-71794091D01*
X179799444Y-71794835D01*
X179852127Y-71800500D01*
X181947872Y-71800499D01*
X182007483Y-71794091D01*
X182142331Y-71743796D01*
X182257546Y-71657546D01*
X182343796Y-71542331D01*
X182394091Y-71407483D01*
X182400500Y-71347873D01*
X182400499Y-67252128D01*
X182394091Y-67192517D01*
X182344985Y-67060858D01*
X182343797Y-67057671D01*
X182343793Y-67057664D01*
X182257547Y-66942455D01*
X182257544Y-66942452D01*
X182142335Y-66856206D01*
X182142328Y-66856202D01*
X182007482Y-66805908D01*
X182007483Y-66805908D01*
X181947883Y-66799501D01*
X181947881Y-66799500D01*
X181947873Y-66799500D01*
X181947864Y-66799500D01*
X179852129Y-66799500D01*
X179852123Y-66799501D01*
X179792516Y-66805908D01*
X179657671Y-66856202D01*
X179657664Y-66856206D01*
X179542455Y-66942452D01*
X179542452Y-66942455D01*
X179456206Y-67057664D01*
X179456202Y-67057671D01*
X179405908Y-67192517D01*
X179399501Y-67252116D01*
X179399501Y-67252123D01*
X179399500Y-67252135D01*
X179399500Y-71347870D01*
X177400500Y-71347870D01*
X177400499Y-67252128D01*
X177394091Y-67192517D01*
X177344985Y-67060858D01*
X177343797Y-67057671D01*
X177343793Y-67057664D01*
X177257547Y-66942455D01*
X177257544Y-66942452D01*
X177142335Y-66856206D01*
X177142328Y-66856202D01*
X177007482Y-66805908D01*
X177007483Y-66805908D01*
X176947883Y-66799501D01*
X176947881Y-66799500D01*
X176947873Y-66799500D01*
X176947864Y-66799500D01*
X174852129Y-66799500D01*
X174852123Y-66799501D01*
X174792516Y-66805908D01*
X174657671Y-66856202D01*
X174657664Y-66856206D01*
X174542455Y-66942452D01*
X174542452Y-66942455D01*
X174456206Y-67057664D01*
X174456202Y-67057671D01*
X174405908Y-67192517D01*
X174399501Y-67252116D01*
X174399501Y-67252123D01*
X174399500Y-67252135D01*
X174399500Y-71347870D01*
X172400500Y-71347870D01*
X172400499Y-67252128D01*
X172394091Y-67192517D01*
X172344985Y-67060858D01*
X172343797Y-67057671D01*
X172343793Y-67057664D01*
X172257547Y-66942455D01*
X172257544Y-66942452D01*
X172142335Y-66856206D01*
X172142328Y-66856202D01*
X172007482Y-66805908D01*
X172007483Y-66805908D01*
X171947883Y-66799501D01*
X171947881Y-66799500D01*
X171947873Y-66799500D01*
X171947865Y-66799500D01*
X171201317Y-66799500D01*
X171134278Y-66779815D01*
X171113640Y-66763185D01*
X171053627Y-66703172D01*
X171017180Y-66673261D01*
X171017176Y-66673258D01*
X170787765Y-66484984D01*
X170787761Y-66484981D01*
X170787760Y-66484980D01*
X170782204Y-66481267D01*
X170501800Y-66293908D01*
X170501782Y-66293897D01*
X170198469Y-66131772D01*
X170198464Y-66131770D01*
X169880706Y-66000150D01*
X169740048Y-65957482D01*
X169551578Y-65900310D01*
X169551573Y-65900309D01*
X169551570Y-65900308D01*
X169551565Y-65900307D01*
X169539319Y-65897871D01*
X169539319Y-65897870D01*
X169214249Y-65833210D01*
X168956456Y-65807821D01*
X168871969Y-65799500D01*
X155728031Y-65799500D01*
X155649966Y-65807188D01*
X155385750Y-65833210D01*
X155048427Y-65900308D01*
X154719293Y-66000150D01*
X154401535Y-66131770D01*
X154401530Y-66131772D01*
X154098224Y-66293893D01*
X154098206Y-66293904D01*
X153812248Y-66484975D01*
X153812234Y-66484985D01*
X153546367Y-66703176D01*
X153303176Y-66946367D01*
X153084985Y-67212234D01*
X153084975Y-67212248D01*
X152893904Y-67498206D01*
X152893893Y-67498224D01*
X152731772Y-67801530D01*
X152731770Y-67801535D01*
X152600150Y-68119293D01*
X152500308Y-68448427D01*
X152433210Y-68785750D01*
X152413446Y-68986433D01*
X152399500Y-69128031D01*
X152399500Y-69471969D01*
X143686889Y-69471969D01*
X137684209Y-63469289D01*
X137684206Y-63469285D01*
X137684206Y-63469286D01*
X137677139Y-63462219D01*
X137677139Y-63462218D01*
X137537782Y-63322861D01*
X137537781Y-63322860D01*
X137537780Y-63322859D01*
X137373920Y-63213371D01*
X137373911Y-63213366D01*
X137301315Y-63183296D01*
X137245165Y-63160038D01*
X137191836Y-63137949D01*
X137191832Y-63137948D01*
X137191828Y-63137946D01*
X137095188Y-63118724D01*
X136998544Y-63099500D01*
X136998541Y-63099500D01*
X129604675Y-63099500D01*
X129604655Y-63099499D01*
X129598541Y-63099499D01*
X129401460Y-63099499D01*
X129401457Y-63099499D01*
X129208172Y-63137946D01*
X129208164Y-63137948D01*
X129026088Y-63213366D01*
X129026079Y-63213371D01*
X128862219Y-63322859D01*
X128862215Y-63322862D01*
X125611966Y-66573111D01*
X125550643Y-66606596D01*
X125535095Y-66608958D01*
X125473307Y-66614365D01*
X125253511Y-66673258D01*
X125253502Y-66673261D01*
X125047267Y-66769431D01*
X125047265Y-66769432D01*
X124860858Y-66899954D01*
X124699954Y-67060858D01*
X124569432Y-67247265D01*
X124569431Y-67247267D01*
X124473261Y-67453502D01*
X124473258Y-67453511D01*
X124414366Y-67673302D01*
X124414364Y-67673313D01*
X124394532Y-67899998D01*
X124394532Y-67900001D01*
X124414364Y-68126686D01*
X124414366Y-68126697D01*
X124473258Y-68346488D01*
X124473261Y-68346497D01*
X124569431Y-68552732D01*
X124569432Y-68552734D01*
X124699954Y-68739141D01*
X124860858Y-68900045D01*
X124860861Y-68900047D01*
X125047266Y-69030568D01*
X125253504Y-69126739D01*
X125253509Y-69126740D01*
X125253511Y-69126741D01*
X125258337Y-69128034D01*
X125473308Y-69185635D01*
X125635230Y-69199801D01*
X125699998Y-69205468D01*
X125700000Y-69205468D01*
X125700002Y-69205468D01*
X125756673Y-69200509D01*
X125926692Y-69185635D01*
X126146496Y-69126739D01*
X126352734Y-69030568D01*
X126539139Y-68900047D01*
X126700047Y-68739139D01*
X126830568Y-68552734D01*
X126926739Y-68346496D01*
X126985635Y-68126692D01*
X126991040Y-68064905D01*
X127016492Y-67999838D01*
X127026879Y-67988040D01*
X129878102Y-65136819D01*
X129939425Y-65103334D01*
X129965783Y-65100500D01*
X136434218Y-65100500D01*
X136501257Y-65120185D01*
X136521899Y-65136819D01*
X145372898Y-73987819D01*
X145406383Y-74049142D01*
X145401399Y-74118834D01*
X145359527Y-74174767D01*
X145294063Y-74199184D01*
X145285217Y-74199500D01*
X138911306Y-74199500D01*
X138795731Y-74222490D01*
X138795730Y-74222490D01*
X138737341Y-74234103D01*
X138737332Y-74234106D01*
X138573459Y-74301983D01*
X138573446Y-74301990D01*
X138425966Y-74400534D01*
X138425964Y-74400537D01*
X137566945Y-75259553D01*
X137505622Y-75293038D01*
X137490072Y-75295400D01*
X137273312Y-75314364D01*
X137273302Y-75314366D01*
X137053511Y-75373258D01*
X137053502Y-75373261D01*
X136847267Y-75469431D01*
X136847265Y-75469432D01*
X136660858Y-75599954D01*
X136499954Y-75760858D01*
X136369432Y-75947265D01*
X136369431Y-75947267D01*
X136273261Y-76153502D01*
X136273258Y-76153511D01*
X136214366Y-76373302D01*
X136214364Y-76373313D01*
X136194532Y-76599998D01*
X136194532Y-76600001D01*
X136214364Y-76826686D01*
X136214366Y-76826697D01*
X136273258Y-77046488D01*
X136273261Y-77046497D01*
X136369431Y-77252732D01*
X136369432Y-77252734D01*
X136499954Y-77439141D01*
X136660858Y-77600045D01*
X136660861Y-77600047D01*
X136847266Y-77730568D01*
X137053504Y-77826739D01*
X137053509Y-77826740D01*
X137053511Y-77826741D01*
X137106415Y-77840916D01*
X137273308Y-77885635D01*
X137435230Y-77899801D01*
X137499998Y-77905468D01*
X137500000Y-77905468D01*
X137500002Y-77905468D01*
X137556673Y-77900509D01*
X137726692Y-77885635D01*
X137946496Y-77826739D01*
X138152734Y-77730568D01*
X138339139Y-77600047D01*
X138500047Y-77439139D01*
X138630568Y-77252734D01*
X138726739Y-77046496D01*
X138785635Y-76826692D01*
X138804599Y-76609924D01*
X138830051Y-76544857D01*
X138840438Y-76533060D01*
X139336680Y-76036819D01*
X139398003Y-76003334D01*
X139424361Y-76000500D01*
X145375638Y-76000500D01*
X145442677Y-76020185D01*
X145463319Y-76036819D01*
X148325044Y-78898544D01*
X151014320Y-81587819D01*
X151047805Y-81649142D01*
X151042821Y-81718834D01*
X151000949Y-81774767D01*
X150935485Y-81799184D01*
X150926639Y-81799500D01*
X148265783Y-81799500D01*
X148198744Y-81779815D01*
X148178102Y-81763181D01*
X144437784Y-78022863D01*
X144437780Y-78022860D01*
X144273920Y-77913372D01*
X144273910Y-77913367D01*
X144091836Y-77837949D01*
X144091828Y-77837947D01*
X143898543Y-77799500D01*
X143898540Y-77799500D01*
X143701460Y-77799500D01*
X143701457Y-77799500D01*
X143508171Y-77837947D01*
X143508163Y-77837949D01*
X143326089Y-77913367D01*
X143326079Y-77913372D01*
X143162219Y-78022860D01*
X143162215Y-78022863D01*
X143022863Y-78162215D01*
X143022860Y-78162219D01*
X142913372Y-78326079D01*
X142913367Y-78326089D01*
X142837949Y-78508163D01*
X142837947Y-78508171D01*
X142799500Y-78701455D01*
X142799500Y-78898544D01*
X142837947Y-79091828D01*
X142837949Y-79091836D01*
X142913367Y-79273910D01*
X142913372Y-79273920D01*
X143022860Y-79437780D01*
X143022863Y-79437784D01*
X146472898Y-82887819D01*
X146506383Y-82949142D01*
X146501399Y-83018834D01*
X146459527Y-83074767D01*
X146394063Y-83099184D01*
X146385217Y-83099500D01*
X145165783Y-83099500D01*
X145098744Y-83079815D01*
X145078102Y-83063181D01*
X143584209Y-81569289D01*
X143584206Y-81569285D01*
X143584206Y-81569286D01*
X143577139Y-81562219D01*
X143577139Y-81562218D01*
X143437782Y-81422861D01*
X143437781Y-81422860D01*
X143437780Y-81422859D01*
X143273920Y-81313371D01*
X143273911Y-81313366D01*
X143201315Y-81283296D01*
X143145165Y-81260038D01*
X143091836Y-81237949D01*
X143091832Y-81237948D01*
X143091828Y-81237946D01*
X142995188Y-81218724D01*
X142898544Y-81199500D01*
X142898541Y-81199500D01*
X130101459Y-81199500D01*
X130101455Y-81199500D01*
X130004812Y-81218724D01*
X129908167Y-81237947D01*
X129908161Y-81237949D01*
X129854834Y-81260037D01*
X129854834Y-81260038D01*
X129809315Y-81278892D01*
X129726089Y-81313366D01*
X129726079Y-81313371D01*
X129562219Y-81422859D01*
X129492540Y-81492538D01*
X129422861Y-81562218D01*
X129422858Y-81562221D01*
X128833403Y-82151675D01*
X128772080Y-82185160D01*
X128769916Y-82185611D01*
X128758167Y-82187948D01*
X128758162Y-82187949D01*
X128621952Y-82244369D01*
X128552483Y-82251838D01*
X128490004Y-82220562D01*
X128454352Y-82160473D01*
X128450500Y-82129808D01*
X128450500Y-77999972D01*
X128457458Y-77959017D01*
X128473431Y-77913369D01*
X128485368Y-77879255D01*
X128490022Y-77837949D01*
X128505565Y-77700003D01*
X128505565Y-77699996D01*
X128485369Y-77520750D01*
X128485368Y-77520745D01*
X128468781Y-77473342D01*
X128425789Y-77350478D01*
X128329816Y-77197738D01*
X128202262Y-77070184D01*
X128174989Y-77053047D01*
X128049523Y-76974211D01*
X127879254Y-76914631D01*
X127879249Y-76914630D01*
X127700004Y-76894435D01*
X127699996Y-76894435D01*
X127520750Y-76914630D01*
X127520745Y-76914631D01*
X127350476Y-76974211D01*
X127222833Y-77054415D01*
X127155596Y-77073415D01*
X127088761Y-77053047D01*
X127069180Y-77037102D01*
X127002262Y-76970184D01*
X126849523Y-76874211D01*
X126679254Y-76814631D01*
X126679249Y-76814630D01*
X126600963Y-76805810D01*
X126536549Y-76778744D01*
X126496993Y-76721149D01*
X126494856Y-76651312D01*
X126527163Y-76594911D01*
X133200854Y-69921222D01*
X133224679Y-69885564D01*
X133272327Y-69814254D01*
X133275896Y-69808911D01*
X133282986Y-69798301D01*
X133339560Y-69661719D01*
X133339561Y-69661711D01*
X133341329Y-69655887D01*
X133342322Y-69656188D01*
X133353030Y-69627720D01*
X133445081Y-69468284D01*
X133503576Y-69288256D01*
X133523362Y-69100000D01*
X133503576Y-68911744D01*
X133445081Y-68731716D01*
X133350435Y-68567784D01*
X133223773Y-68427112D01*
X133176072Y-68392455D01*
X133070636Y-68315851D01*
X133070631Y-68315848D01*
X132897709Y-68238857D01*
X132897704Y-68238855D01*
X132751903Y-68207865D01*
X132712548Y-68199500D01*
X132523256Y-68199500D01*
X132456769Y-68213631D01*
X132387105Y-68208315D01*
X132338251Y-68171378D01*
X132336881Y-68172613D01*
X132205870Y-68027111D01*
X132052734Y-67915851D01*
X132052729Y-67915848D01*
X131879807Y-67838857D01*
X131879802Y-67838855D01*
X131734001Y-67807865D01*
X131694646Y-67799500D01*
X131505354Y-67799500D01*
X131472897Y-67806398D01*
X131320197Y-67838855D01*
X131320192Y-67838857D01*
X131147270Y-67915848D01*
X131147265Y-67915851D01*
X130994129Y-68027111D01*
X130867466Y-68167785D01*
X130772821Y-68331715D01*
X130772819Y-68331719D01*
X130717479Y-68502039D01*
X130687229Y-68551401D01*
X123417050Y-75821580D01*
X123417044Y-75821588D01*
X123367812Y-75895268D01*
X123367813Y-75895269D01*
X123334921Y-75944496D01*
X123334914Y-75944508D01*
X123278342Y-76081086D01*
X123278340Y-76081092D01*
X123249500Y-76226079D01*
X123249500Y-76226082D01*
X123249500Y-84873918D01*
X123249500Y-84873920D01*
X123249499Y-84873920D01*
X93463400Y-84873920D01*
X93463400Y-84801016D01*
X93433448Y-84573512D01*
X93374058Y-84351863D01*
X93290073Y-84149105D01*
X93286249Y-84139873D01*
X93286246Y-84139867D01*
X93286244Y-84139862D01*
X93171511Y-83941138D01*
X93171508Y-83941135D01*
X93171507Y-83941132D01*
X93031818Y-83759088D01*
X93031811Y-83759080D01*
X92869570Y-83596839D01*
X92869561Y-83596831D01*
X92687517Y-83457142D01*
X92488790Y-83342407D01*
X92488776Y-83342400D01*
X92276787Y-83254592D01*
X92055138Y-83195202D01*
X92017115Y-83190196D01*
X91827641Y-83165250D01*
X91827634Y-83165250D01*
X91598166Y-83165250D01*
X91598158Y-83165250D01*
X91381615Y-83193759D01*
X91370662Y-83195202D01*
X91340313Y-83203334D01*
X91149012Y-83254592D01*
X90937023Y-83342400D01*
X90937009Y-83342407D01*
X90738282Y-83457142D01*
X90556238Y-83596831D01*
X90393981Y-83759088D01*
X90254292Y-83941132D01*
X90139557Y-84139859D01*
X90139551Y-84139871D01*
X90139060Y-84141058D01*
X90138818Y-84141357D01*
X90137758Y-84143508D01*
X90137276Y-84143270D01*
X90095218Y-84195461D01*
X90028923Y-84217524D01*
X89961224Y-84200243D01*
X89913615Y-84149105D01*
X89900500Y-84093603D01*
X89900500Y-75872888D01*
X89920185Y-75805849D01*
X89936815Y-75785211D01*
X90012820Y-75709206D01*
X90074142Y-75675722D01*
X90143834Y-75680706D01*
X90199767Y-75722578D01*
X90224184Y-75788042D01*
X90224500Y-75796888D01*
X90224500Y-76014741D01*
X90249446Y-76204215D01*
X90254452Y-76242238D01*
X90254453Y-76242240D01*
X90313842Y-76463887D01*
X90401650Y-76675876D01*
X90401657Y-76675890D01*
X90427787Y-76721149D01*
X90516157Y-76874211D01*
X90516392Y-76874617D01*
X90656081Y-77056661D01*
X90656089Y-77056670D01*
X90818330Y-77218911D01*
X90818338Y-77218918D01*
X91000382Y-77358607D01*
X91000385Y-77358608D01*
X91000388Y-77358611D01*
X91199112Y-77473344D01*
X91199117Y-77473346D01*
X91199123Y-77473349D01*
X91290480Y-77511190D01*
X91411113Y-77561158D01*
X91632762Y-77620548D01*
X91860266Y-77650500D01*
X91860273Y-77650500D01*
X92089727Y-77650500D01*
X92089734Y-77650500D01*
X92317238Y-77620548D01*
X92538887Y-77561158D01*
X92750888Y-77473344D01*
X92949612Y-77358611D01*
X93131661Y-77218919D01*
X93131665Y-77218914D01*
X93131670Y-77218911D01*
X93293911Y-77056670D01*
X93293914Y-77056665D01*
X93293919Y-77056661D01*
X93433611Y-76874612D01*
X93548344Y-76675888D01*
X93636158Y-76463887D01*
X93695548Y-76242238D01*
X93724637Y-76021288D01*
X102424500Y-76021288D01*
X102456161Y-76261785D01*
X102518947Y-76496104D01*
X102593411Y-76675876D01*
X102611776Y-76720212D01*
X102733064Y-76930289D01*
X102733066Y-76930292D01*
X102733067Y-76930293D01*
X102880733Y-77122736D01*
X102880739Y-77122743D01*
X103052256Y-77294260D01*
X103052263Y-77294266D01*
X103165321Y-77381018D01*
X103244711Y-77441936D01*
X103454788Y-77563224D01*
X103678900Y-77656054D01*
X103913211Y-77718838D01*
X104093586Y-77742584D01*
X104153711Y-77750500D01*
X104153712Y-77750500D01*
X105396289Y-77750500D01*
X105444388Y-77744167D01*
X105636789Y-77718838D01*
X105871100Y-77656054D01*
X106095212Y-77563224D01*
X106305289Y-77441936D01*
X106497738Y-77294265D01*
X106669265Y-77122738D01*
X106816936Y-76930289D01*
X106938224Y-76720212D01*
X107031054Y-76496100D01*
X107093838Y-76261789D01*
X107125500Y-76021288D01*
X107125500Y-75778712D01*
X107093838Y-75538211D01*
X107031054Y-75303900D01*
X106938224Y-75079788D01*
X106816936Y-74869711D01*
X106669265Y-74677262D01*
X106669260Y-74677256D01*
X106497743Y-74505739D01*
X106497736Y-74505733D01*
X106305293Y-74358067D01*
X106305292Y-74358066D01*
X106305289Y-74358064D01*
X106133661Y-74258974D01*
X106095214Y-74236777D01*
X106095205Y-74236773D01*
X105871104Y-74143947D01*
X105636785Y-74081161D01*
X105396289Y-74049500D01*
X105396288Y-74049500D01*
X104153712Y-74049500D01*
X104153711Y-74049500D01*
X103913214Y-74081161D01*
X103678895Y-74143947D01*
X103454794Y-74236773D01*
X103454785Y-74236777D01*
X103244706Y-74358067D01*
X103052263Y-74505733D01*
X103052256Y-74505739D01*
X102880739Y-74677256D01*
X102880733Y-74677263D01*
X102733067Y-74869706D01*
X102611777Y-75079785D01*
X102611773Y-75079794D01*
X102518947Y-75303895D01*
X102456161Y-75538214D01*
X102424500Y-75778711D01*
X102424500Y-76021288D01*
X93724637Y-76021288D01*
X93725500Y-76014734D01*
X93725500Y-75785266D01*
X93695548Y-75557762D01*
X93636158Y-75336113D01*
X93548344Y-75124112D01*
X93433611Y-74925388D01*
X93433608Y-74925385D01*
X93433607Y-74925382D01*
X93293918Y-74743338D01*
X93293911Y-74743330D01*
X93131670Y-74581089D01*
X93131661Y-74581081D01*
X92949617Y-74441392D01*
X92750890Y-74326657D01*
X92750876Y-74326650D01*
X92538887Y-74238842D01*
X92521212Y-74234106D01*
X92317238Y-74179452D01*
X92279215Y-74174446D01*
X92089741Y-74149500D01*
X92089734Y-74149500D01*
X91871888Y-74149500D01*
X91804849Y-74129815D01*
X91759094Y-74077011D01*
X91749150Y-74007853D01*
X91778175Y-73944297D01*
X91784207Y-73937819D01*
X99514482Y-66207544D01*
X107337821Y-58384204D01*
X107399142Y-58350721D01*
X107468834Y-58355705D01*
X107524767Y-58397577D01*
X107549184Y-58463041D01*
X107549500Y-58471887D01*
X107549500Y-59797870D01*
X107549501Y-59797876D01*
X107555908Y-59857483D01*
X107606202Y-59992328D01*
X107606206Y-59992335D01*
X107692452Y-60107544D01*
X107692455Y-60107547D01*
X107807664Y-60193793D01*
X107807671Y-60193797D01*
X107942517Y-60244091D01*
X107942516Y-60244091D01*
X107949444Y-60244835D01*
X108002127Y-60250500D01*
X109797872Y-60250499D01*
X109857483Y-60244091D01*
X109992331Y-60193796D01*
X110107546Y-60107546D01*
X110193796Y-59992331D01*
X110244091Y-59857483D01*
X110250500Y-59797873D01*
X110250500Y-59797870D01*
X111249500Y-59797870D01*
X111249501Y-59797876D01*
X111255908Y-59857483D01*
X111306202Y-59992328D01*
X111306206Y-59992335D01*
X111392452Y-60107544D01*
X111392455Y-60107547D01*
X111507664Y-60193793D01*
X111507671Y-60193797D01*
X111642517Y-60244091D01*
X111642516Y-60244091D01*
X111649444Y-60244835D01*
X111702127Y-60250500D01*
X113497872Y-60250499D01*
X113557483Y-60244091D01*
X113692331Y-60193796D01*
X113807546Y-60107546D01*
X113893796Y-59992331D01*
X113944091Y-59857483D01*
X113950500Y-59797873D01*
X113950499Y-58002128D01*
X113944091Y-57942517D01*
X113913567Y-57860679D01*
X113893797Y-57807671D01*
X113893793Y-57807664D01*
X113807547Y-57692455D01*
X113807544Y-57692452D01*
X113692335Y-57606206D01*
X113692328Y-57606202D01*
X113557482Y-57555908D01*
X113557483Y-57555908D01*
X113497883Y-57549501D01*
X113497881Y-57549500D01*
X113497873Y-57549500D01*
X113497864Y-57549500D01*
X111702129Y-57549500D01*
X111702123Y-57549501D01*
X111642516Y-57555908D01*
X111507671Y-57606202D01*
X111507664Y-57606206D01*
X111392455Y-57692452D01*
X111392452Y-57692455D01*
X111306206Y-57807664D01*
X111306202Y-57807671D01*
X111255908Y-57942517D01*
X111252834Y-57971116D01*
X111249501Y-58002123D01*
X111249500Y-58002135D01*
X111249500Y-59797870D01*
X110250500Y-59797870D01*
X110250499Y-58002128D01*
X110244091Y-57942517D01*
X110213567Y-57860679D01*
X110193797Y-57807671D01*
X110193793Y-57807664D01*
X110107547Y-57692455D01*
X110107544Y-57692452D01*
X109992335Y-57606206D01*
X109992328Y-57606202D01*
X109857482Y-57555908D01*
X109857483Y-57555908D01*
X109797883Y-57549501D01*
X109797881Y-57549500D01*
X109797873Y-57549500D01*
X109797865Y-57549500D01*
X108471889Y-57549500D01*
X108404850Y-57529815D01*
X108359095Y-57477011D01*
X108349151Y-57407853D01*
X108378176Y-57344297D01*
X108384208Y-57337819D01*
X108385208Y-57336819D01*
X108446531Y-57303334D01*
X108472889Y-57300500D01*
X116738111Y-57300500D01*
X116805150Y-57320185D01*
X116850905Y-57372989D01*
X116860849Y-57442147D01*
X116831824Y-57505703D01*
X116825792Y-57512181D01*
X116815482Y-57522490D01*
X116815478Y-57522495D01*
X116801393Y-57541881D01*
X116792310Y-57552973D01*
X116771834Y-57575216D01*
X116725857Y-57645589D01*
X116722367Y-57650651D01*
X116676657Y-57713565D01*
X116662716Y-57740926D01*
X116656042Y-57752449D01*
X116635829Y-57783387D01*
X116635828Y-57783389D01*
X116604762Y-57854209D01*
X116601694Y-57860688D01*
X116569433Y-57924004D01*
X116569432Y-57924009D01*
X116557859Y-57959623D01*
X116553486Y-57971109D01*
X116535939Y-58011112D01*
X116535936Y-58011123D01*
X116518605Y-58079557D01*
X116516331Y-58087432D01*
X116496448Y-58148625D01*
X116489536Y-58192260D01*
X116487269Y-58203295D01*
X116474893Y-58252171D01*
X116474893Y-58252175D01*
X116474892Y-58252179D01*
X116469617Y-58315841D01*
X116468514Y-58324995D01*
X116459500Y-58381903D01*
X116459500Y-58432809D01*
X116459076Y-58443050D01*
X116454357Y-58499995D01*
X116454357Y-58500004D01*
X116459076Y-58556948D01*
X116459500Y-58567189D01*
X116459500Y-64178097D01*
X116496446Y-64411368D01*
X116569433Y-64635996D01*
X116676657Y-64846434D01*
X116815483Y-65037510D01*
X121122490Y-69344517D01*
X121313566Y-69483343D01*
X121524008Y-69590568D01*
X121748631Y-69663553D01*
X121836109Y-69677408D01*
X121981903Y-69700500D01*
X121981908Y-69700500D01*
X122218097Y-69700500D01*
X122451368Y-69663553D01*
X122474961Y-69655887D01*
X122675992Y-69590568D01*
X122886433Y-69483343D01*
X123077510Y-69344517D01*
X123244517Y-69177510D01*
X123383343Y-68986433D01*
X123490568Y-68775992D01*
X123563553Y-68551368D01*
X123583233Y-68427112D01*
X123600500Y-68318097D01*
X123600500Y-68081902D01*
X123571689Y-67900000D01*
X123563553Y-67848631D01*
X123490568Y-67624008D01*
X123383343Y-67413566D01*
X123244517Y-67222490D01*
X119496819Y-63474792D01*
X119463334Y-63413469D01*
X119460500Y-63387111D01*
X119460500Y-58567189D01*
X119460924Y-58556948D01*
X119465643Y-58500004D01*
X119465643Y-58499995D01*
X119460924Y-58443050D01*
X119460500Y-58432809D01*
X119460500Y-58381909D01*
X119460499Y-58381903D01*
X119451485Y-58324995D01*
X119450382Y-58315841D01*
X119450382Y-58315835D01*
X119445108Y-58252179D01*
X119432727Y-58203291D01*
X119430464Y-58192267D01*
X119427337Y-58172526D01*
X119423553Y-58148632D01*
X119403665Y-58087424D01*
X119401400Y-58079582D01*
X119384063Y-58011119D01*
X119366512Y-57971109D01*
X119362137Y-57959617D01*
X119356581Y-57942517D01*
X119350568Y-57924008D01*
X119350566Y-57924004D01*
X119350565Y-57924001D01*
X119318300Y-57860679D01*
X119315228Y-57854192D01*
X119284177Y-57783401D01*
X119284174Y-57783395D01*
X119284169Y-57783387D01*
X119263956Y-57752449D01*
X119257282Y-57740926D01*
X119243343Y-57713567D01*
X119197619Y-57650634D01*
X119194128Y-57645569D01*
X119148165Y-57575217D01*
X119148164Y-57575215D01*
X119127686Y-57552970D01*
X119118607Y-57541884D01*
X119118605Y-57541881D01*
X119104517Y-57522490D01*
X119094208Y-57512181D01*
X119060723Y-57450858D01*
X119065707Y-57381166D01*
X119107579Y-57325233D01*
X119173043Y-57300816D01*
X119181889Y-57300500D01*
X121822038Y-57300500D01*
X121889077Y-57320185D01*
X121934832Y-57372989D01*
X121944776Y-57442147D01*
X121915751Y-57505703D01*
X121913267Y-57508483D01*
X121851836Y-57575213D01*
X121715826Y-57783393D01*
X121615936Y-58011118D01*
X121554892Y-58252175D01*
X121554890Y-58252187D01*
X121534357Y-58499994D01*
X121534357Y-58500005D01*
X121554890Y-58747812D01*
X121554892Y-58747824D01*
X121615936Y-58988881D01*
X121715826Y-59216606D01*
X121851833Y-59424782D01*
X121851836Y-59424785D01*
X122020256Y-59607738D01*
X122216491Y-59760474D01*
X122435190Y-59878828D01*
X122670386Y-59959571D01*
X122915665Y-60000500D01*
X123164335Y-60000500D01*
X123409614Y-59959571D01*
X123644810Y-59878828D01*
X123863509Y-59760474D01*
X124059744Y-59607738D01*
X124228164Y-59424785D01*
X124364173Y-59216607D01*
X124464063Y-58988881D01*
X124525108Y-58747821D01*
X124536720Y-58607685D01*
X124545643Y-58500005D01*
X124545643Y-58499994D01*
X124525109Y-58252187D01*
X124525107Y-58252175D01*
X124464063Y-58011118D01*
X124364173Y-57783393D01*
X124228163Y-57575213D01*
X124166733Y-57508483D01*
X124135810Y-57445829D01*
X124143670Y-57376403D01*
X124187817Y-57322247D01*
X124254234Y-57300556D01*
X124257962Y-57300500D01*
X139275500Y-57300500D01*
X139342539Y-57320185D01*
X139388294Y-57372989D01*
X139399500Y-57424500D01*
X139399500Y-60918097D01*
X139436447Y-61151369D01*
X139436447Y-61151372D01*
X139509430Y-61375988D01*
X139509430Y-61375989D01*
X139535985Y-61428106D01*
X139549500Y-61484399D01*
X139549500Y-61697869D01*
X139549501Y-61697876D01*
X139555908Y-61757483D01*
X139606202Y-61892328D01*
X139606206Y-61892335D01*
X139692452Y-62007544D01*
X139692455Y-62007547D01*
X139807664Y-62093793D01*
X139807671Y-62093797D01*
X139852618Y-62110561D01*
X139942517Y-62144091D01*
X140002127Y-62150500D01*
X140215598Y-62150499D01*
X140271893Y-62164014D01*
X140324008Y-62190568D01*
X140505059Y-62249395D01*
X140548631Y-62263553D01*
X140781903Y-62300500D01*
X140781908Y-62300500D01*
X141018097Y-62300500D01*
X141251368Y-62263553D01*
X141475992Y-62190568D01*
X141528107Y-62164014D01*
X141584401Y-62150499D01*
X141797871Y-62150499D01*
X141797872Y-62150499D01*
X141857483Y-62144091D01*
X141992331Y-62093796D01*
X142107546Y-62007546D01*
X142193796Y-61892331D01*
X142244091Y-61757483D01*
X142250500Y-61697873D01*
X142250499Y-61484399D01*
X142264014Y-61428105D01*
X142290568Y-61375992D01*
X142363553Y-61151368D01*
X142383300Y-61026692D01*
X142400500Y-60918097D01*
X142400500Y-55681902D01*
X142363553Y-55448631D01*
X142310937Y-55286697D01*
X142290568Y-55224008D01*
X142290566Y-55224005D01*
X142290565Y-55224000D01*
X142264014Y-55171891D01*
X142250499Y-55115597D01*
X142250499Y-54902129D01*
X142250498Y-54902123D01*
X142244091Y-54842516D01*
X142193797Y-54707671D01*
X142193793Y-54707664D01*
X142107547Y-54592455D01*
X142107544Y-54592452D01*
X141992335Y-54506206D01*
X141992328Y-54506202D01*
X141870281Y-54460682D01*
X141814347Y-54418811D01*
X141789930Y-54353347D01*
X141804781Y-54285074D01*
X141854187Y-54235668D01*
X141913614Y-54220500D01*
X161540004Y-54220500D01*
X161607043Y-54240185D01*
X161627685Y-54256819D01*
X163278142Y-55907277D01*
X163278146Y-55907280D01*
X163278149Y-55907283D01*
X163349184Y-55961789D01*
X163349185Y-55961791D01*
X163486197Y-56066924D01*
X163632459Y-56151368D01*
X163713299Y-56198041D01*
X163713314Y-56198048D01*
X163766828Y-56220214D01*
X163955581Y-56298398D01*
X164208885Y-56366271D01*
X164321766Y-56381130D01*
X164321767Y-56381131D01*
X164321768Y-56381131D01*
X164468880Y-56400500D01*
X167068880Y-56400500D01*
X167606646Y-56400500D01*
X167673685Y-56420185D01*
X167719440Y-56472989D01*
X167729119Y-56505102D01*
X167736446Y-56551368D01*
X167809433Y-56775996D01*
X167916657Y-56986433D01*
X168055483Y-57177510D01*
X168222490Y-57344517D01*
X168413567Y-57483343D01*
X168512991Y-57534002D01*
X168624003Y-57590566D01*
X168624005Y-57590566D01*
X168624008Y-57590568D01*
X168672131Y-57606204D01*
X168848631Y-57663553D01*
X169081903Y-57700500D01*
X169081908Y-57700500D01*
X169318097Y-57700500D01*
X169551368Y-57663553D01*
X169606655Y-57645589D01*
X169775992Y-57590568D01*
X169986433Y-57483343D01*
X170177510Y-57344517D01*
X170344517Y-57177510D01*
X170483343Y-56986433D01*
X170590568Y-56775992D01*
X170663553Y-56551368D01*
X170675967Y-56472989D01*
X170700500Y-56318097D01*
X170700500Y-55772781D01*
X170720185Y-55705742D01*
X170726125Y-55697294D01*
X170737932Y-55681908D01*
X170861181Y-55521288D01*
X177749500Y-55521288D01*
X177781161Y-55761785D01*
X177843947Y-55996104D01*
X177926790Y-56196104D01*
X177936776Y-56220212D01*
X178058064Y-56430289D01*
X178058066Y-56430292D01*
X178058067Y-56430293D01*
X178205733Y-56622736D01*
X178205739Y-56622743D01*
X178377256Y-56794260D01*
X178377262Y-56794265D01*
X178569711Y-56941936D01*
X178779788Y-57063224D01*
X179003900Y-57156054D01*
X179238211Y-57218838D01*
X179418586Y-57242584D01*
X179478711Y-57250500D01*
X179478712Y-57250500D01*
X179721289Y-57250500D01*
X179769388Y-57244167D01*
X179961789Y-57218838D01*
X180196100Y-57156054D01*
X180420212Y-57063224D01*
X180630289Y-56941936D01*
X180822738Y-56794265D01*
X180994265Y-56622738D01*
X181141936Y-56430289D01*
X181263224Y-56220212D01*
X181356054Y-55996100D01*
X181418838Y-55761789D01*
X181450500Y-55521288D01*
X181450500Y-55278712D01*
X181418838Y-55038211D01*
X181356054Y-54803900D01*
X181263224Y-54579788D01*
X181141936Y-54369711D01*
X181055311Y-54256819D01*
X180994266Y-54177263D01*
X180994260Y-54177256D01*
X180822743Y-54005739D01*
X180822736Y-54005733D01*
X180630293Y-53858067D01*
X180630292Y-53858066D01*
X180630289Y-53858064D01*
X180420212Y-53736776D01*
X180420205Y-53736773D01*
X180196104Y-53643947D01*
X179961785Y-53581161D01*
X179721289Y-53549500D01*
X179721288Y-53549500D01*
X179478712Y-53549500D01*
X179478711Y-53549500D01*
X179238214Y-53581161D01*
X179003895Y-53643947D01*
X178779794Y-53736773D01*
X178779785Y-53736777D01*
X178569706Y-53858067D01*
X178377263Y-54005733D01*
X178377256Y-54005739D01*
X178205739Y-54177256D01*
X178205733Y-54177263D01*
X178058067Y-54369706D01*
X178058064Y-54369710D01*
X178058064Y-54369711D01*
X178053704Y-54377263D01*
X177936777Y-54579785D01*
X177936773Y-54579794D01*
X177843947Y-54803895D01*
X177781161Y-55038214D01*
X177749500Y-55278711D01*
X177749500Y-55521288D01*
X170861181Y-55521288D01*
X170866924Y-55513803D01*
X170998043Y-55286697D01*
X171098398Y-55044419D01*
X171166270Y-54791116D01*
X171200500Y-54531120D01*
X171200500Y-54268880D01*
X171166270Y-54008884D01*
X171098398Y-53755581D01*
X171090609Y-53736776D01*
X170998046Y-53513309D01*
X170998041Y-53513299D01*
X170866924Y-53286196D01*
X170707281Y-53078148D01*
X170707274Y-53078140D01*
X170521860Y-52892726D01*
X170521851Y-52892718D01*
X170313803Y-52733075D01*
X170086700Y-52601958D01*
X170086690Y-52601953D01*
X169844428Y-52501605D01*
X169844421Y-52501603D01*
X169844419Y-52501602D01*
X169591116Y-52433730D01*
X169533339Y-52426123D01*
X169331127Y-52399500D01*
X169331120Y-52399500D01*
X167331120Y-52399500D01*
X165479996Y-52399500D01*
X165412957Y-52379815D01*
X165392315Y-52363181D01*
X163741316Y-50712181D01*
X163707831Y-50650858D01*
X163712815Y-50581166D01*
X163754687Y-50525233D01*
X163820151Y-50500816D01*
X163828997Y-50500500D01*
X184375500Y-50500500D01*
X184442539Y-50520185D01*
G37*
%TD.AperFunction*%
%TA.AperFunction,Conductor*%
G36*
X105902104Y-130768881D02*
G01*
X105958038Y-130810752D01*
X105961873Y-130816172D01*
X106000537Y-130874038D01*
X106000540Y-130874041D01*
X106514750Y-131388249D01*
X106640179Y-131513678D01*
X106640180Y-131513679D01*
X106787660Y-131612223D01*
X106787673Y-131612230D01*
X106882044Y-131651319D01*
X106951548Y-131680108D01*
X106951550Y-131680108D01*
X106951555Y-131680110D01*
X107125518Y-131714713D01*
X107125521Y-131714714D01*
X107125523Y-131714714D01*
X109375638Y-131714714D01*
X109442677Y-131734399D01*
X109463319Y-131751033D01*
X110011752Y-132299466D01*
X110051309Y-132325895D01*
X110063935Y-132334332D01*
X110070822Y-132338933D01*
X110070825Y-132338936D01*
X110159236Y-132398011D01*
X110159239Y-132398013D01*
X110241179Y-132431953D01*
X110323120Y-132465895D01*
X110437248Y-132488596D01*
X110497089Y-132500499D01*
X110497093Y-132500500D01*
X122831663Y-132500500D01*
X122898702Y-132520185D01*
X122944457Y-132572989D01*
X122954401Y-132642147D01*
X122925376Y-132705703D01*
X122919344Y-132712181D01*
X120518345Y-135113181D01*
X120457022Y-135146666D01*
X120430664Y-135149500D01*
X120274500Y-135149500D01*
X120207461Y-135129815D01*
X120161706Y-135077011D01*
X120150500Y-135025500D01*
X120150499Y-133702129D01*
X120150498Y-133702123D01*
X120150497Y-133702116D01*
X120144091Y-133642517D01*
X120093796Y-133507669D01*
X120093795Y-133507668D01*
X120093793Y-133507664D01*
X120007547Y-133392455D01*
X120007544Y-133392452D01*
X119892335Y-133306206D01*
X119892328Y-133306202D01*
X119757482Y-133255908D01*
X119757483Y-133255908D01*
X119697883Y-133249501D01*
X119697881Y-133249500D01*
X119697873Y-133249500D01*
X119697864Y-133249500D01*
X117902129Y-133249500D01*
X117902123Y-133249501D01*
X117842516Y-133255908D01*
X117707671Y-133306202D01*
X117707664Y-133306206D01*
X117592455Y-133392452D01*
X117592452Y-133392455D01*
X117506206Y-133507664D01*
X117506202Y-133507671D01*
X117455908Y-133642517D01*
X117449501Y-133702116D01*
X117449501Y-133702123D01*
X117449500Y-133702135D01*
X117449501Y-135025500D01*
X117429816Y-135092539D01*
X117377013Y-135138294D01*
X117325501Y-135149500D01*
X113901578Y-135149500D01*
X113707173Y-135180290D01*
X113519969Y-135241117D01*
X113344594Y-135330476D01*
X113259293Y-135392452D01*
X113185354Y-135446172D01*
X113185352Y-135446174D01*
X113185351Y-135446174D01*
X110118345Y-138513181D01*
X110057022Y-138546666D01*
X110030664Y-138549500D01*
X104799717Y-138549500D01*
X104732678Y-138529815D01*
X104686923Y-138477011D01*
X104676979Y-138407853D01*
X104678100Y-138401309D01*
X104700499Y-138288696D01*
X104700500Y-138288693D01*
X104700500Y-138111307D01*
X104700499Y-138111303D01*
X104665895Y-137937334D01*
X104604909Y-137790102D01*
X104598014Y-137773455D01*
X104499462Y-137625961D01*
X102886819Y-136013318D01*
X102853334Y-135951995D01*
X102850500Y-135925637D01*
X102850500Y-135901577D01*
X102819709Y-135707173D01*
X102781821Y-135590568D01*
X102758884Y-135519975D01*
X102758882Y-135519972D01*
X102758882Y-135519970D01*
X102669523Y-135344594D01*
X102659266Y-135330476D01*
X102553828Y-135185354D01*
X102414646Y-135046172D01*
X102255405Y-134930476D01*
X102080029Y-134841117D01*
X101892826Y-134780290D01*
X101698422Y-134749500D01*
X101698417Y-134749500D01*
X98918336Y-134749500D01*
X98851297Y-134729815D01*
X98805542Y-134677011D01*
X98795598Y-134607853D01*
X98824623Y-134544297D01*
X98830655Y-134537819D01*
X101281655Y-132086819D01*
X101342978Y-132053334D01*
X101369336Y-132050500D01*
X104098422Y-132050500D01*
X104292826Y-132019709D01*
X104480026Y-131958884D01*
X104655405Y-131869524D01*
X104814646Y-131753828D01*
X105771092Y-130797380D01*
X105832413Y-130763897D01*
X105902104Y-130768881D01*
G37*
%TD.AperFunction*%
%TA.AperFunction,Conductor*%
G36*
X85705703Y-110121070D02*
G01*
X85712181Y-110127102D01*
X85769283Y-110184204D01*
X85769289Y-110184209D01*
X87963181Y-112378101D01*
X87996666Y-112439424D01*
X87999500Y-112465782D01*
X87999500Y-130125500D01*
X87979815Y-130192539D01*
X87927011Y-130238294D01*
X87875500Y-130249500D01*
X86102129Y-130249500D01*
X86102123Y-130249501D01*
X86042516Y-130255908D01*
X85907671Y-130306202D01*
X85907664Y-130306206D01*
X85792455Y-130392452D01*
X85792452Y-130392455D01*
X85723766Y-130484208D01*
X85667832Y-130526079D01*
X85598141Y-130531063D01*
X85536818Y-130497577D01*
X85503334Y-130436254D01*
X85500500Y-130409897D01*
X85500500Y-110214783D01*
X85520185Y-110147744D01*
X85572989Y-110101989D01*
X85642147Y-110092045D01*
X85705703Y-110121070D01*
G37*
%TD.AperFunction*%
%TA.AperFunction,Conductor*%
G36*
X130943678Y-97120185D02*
G01*
X130989433Y-97172989D01*
X130999377Y-97242147D01*
X130970352Y-97305703D01*
X130964320Y-97312181D01*
X122500538Y-105775960D01*
X122500537Y-105775961D01*
X122461064Y-105835039D01*
X122461063Y-105835040D01*
X122401988Y-105923449D01*
X122386108Y-105961789D01*
X122334106Y-106087331D01*
X122334103Y-106087341D01*
X122304179Y-106237783D01*
X122304179Y-106237784D01*
X122299500Y-106261306D01*
X122299500Y-106775500D01*
X122279815Y-106842539D01*
X122227011Y-106888294D01*
X122175500Y-106899500D01*
X118111306Y-106899500D01*
X117937341Y-106934103D01*
X117937332Y-106934106D01*
X117773459Y-107001983D01*
X117773447Y-107001990D01*
X117626183Y-107100390D01*
X117625962Y-107100538D01*
X117220257Y-107506241D01*
X117205466Y-107518874D01*
X117194132Y-107527109D01*
X117194130Y-107527111D01*
X117148752Y-107577506D01*
X117144285Y-107582213D01*
X115948999Y-108777501D01*
X115887676Y-108810986D01*
X115861318Y-108813820D01*
X109711197Y-108813820D01*
X109537235Y-108848423D01*
X109537223Y-108848426D01*
X109455286Y-108882365D01*
X109455287Y-108882366D01*
X109373349Y-108916305D01*
X109284934Y-108975383D01*
X109270263Y-108985185D01*
X109225855Y-109014857D01*
X109225854Y-109014858D01*
X108112181Y-110128532D01*
X108050858Y-110162017D01*
X107981166Y-110157033D01*
X107925233Y-110115161D01*
X107900816Y-110049697D01*
X107900500Y-110040851D01*
X107900500Y-108424361D01*
X107920185Y-108357322D01*
X107936819Y-108336680D01*
X116649460Y-99624039D01*
X116649463Y-99624036D01*
X116748012Y-99476547D01*
X116815894Y-99312666D01*
X116850500Y-99138692D01*
X116850500Y-98961309D01*
X116847990Y-98948690D01*
X116854219Y-98879099D01*
X116897082Y-98823922D01*
X116962972Y-98800678D01*
X116969608Y-98800500D01*
X124875638Y-98800500D01*
X124942677Y-98820185D01*
X124963319Y-98836819D01*
X125425960Y-99299460D01*
X125425964Y-99299463D01*
X125573446Y-99398008D01*
X125573452Y-99398011D01*
X125573453Y-99398012D01*
X125737334Y-99465894D01*
X125911303Y-99500498D01*
X125911307Y-99500499D01*
X125911308Y-99500499D01*
X126088692Y-99500499D01*
X126088693Y-99500498D01*
X126262666Y-99465894D01*
X126426546Y-99398012D01*
X126574035Y-99299463D01*
X126699463Y-99174035D01*
X126798012Y-99026546D01*
X126865894Y-98862666D01*
X126900499Y-98688691D01*
X126900499Y-98511308D01*
X126865894Y-98337334D01*
X126798012Y-98173453D01*
X126798011Y-98173452D01*
X126798008Y-98173446D01*
X126699463Y-98025964D01*
X126699460Y-98025960D01*
X125985682Y-97312181D01*
X125952197Y-97250858D01*
X125957181Y-97181166D01*
X125999053Y-97125233D01*
X126064517Y-97100816D01*
X126073363Y-97100500D01*
X130876639Y-97100500D01*
X130943678Y-97120185D01*
G37*
%TD.AperFunction*%
%TA.AperFunction,Conductor*%
G36*
X96638041Y-50520185D02*
G01*
X96683796Y-50572989D01*
X96693740Y-50642147D01*
X96664715Y-50705703D01*
X96658683Y-50712181D01*
X94892721Y-52478143D01*
X94892715Y-52478150D01*
X94802388Y-52595868D01*
X94745238Y-52670346D01*
X94733072Y-52686202D01*
X94706012Y-52733074D01*
X94706011Y-52733076D01*
X94601958Y-52913300D01*
X94601954Y-52913309D01*
X94501602Y-53155580D01*
X94433728Y-53408887D01*
X94416618Y-53538856D01*
X94399501Y-53668870D01*
X94399500Y-53668886D01*
X94399500Y-58520004D01*
X94379815Y-58587043D01*
X94363181Y-58607685D01*
X91807685Y-61163181D01*
X91746362Y-61196666D01*
X91720004Y-61199500D01*
X90368872Y-61199500D01*
X90137772Y-61229926D01*
X90108884Y-61233730D01*
X89855581Y-61301602D01*
X89855571Y-61301605D01*
X89613309Y-61401953D01*
X89613299Y-61401958D01*
X89386196Y-61533075D01*
X89178148Y-61692718D01*
X88992718Y-61878148D01*
X88833075Y-62086196D01*
X88701958Y-62313299D01*
X88701953Y-62313309D01*
X88601605Y-62555571D01*
X88601602Y-62555581D01*
X88538274Y-62791928D01*
X88533730Y-62808885D01*
X88499500Y-63068872D01*
X88499500Y-63331127D01*
X88524889Y-63523963D01*
X88514124Y-63592999D01*
X88467744Y-63645255D01*
X88400475Y-63664140D01*
X88365072Y-63657536D01*
X88365035Y-63657693D01*
X88361747Y-63656916D01*
X88358626Y-63656334D01*
X88357489Y-63655910D01*
X88357483Y-63655908D01*
X88297883Y-63649501D01*
X88297881Y-63649500D01*
X88297873Y-63649500D01*
X88297864Y-63649500D01*
X86502129Y-63649500D01*
X86502123Y-63649501D01*
X86442516Y-63655908D01*
X86307671Y-63706202D01*
X86307664Y-63706206D01*
X86192455Y-63792452D01*
X86192452Y-63792455D01*
X86106206Y-63907664D01*
X86106202Y-63907671D01*
X86055908Y-64042517D01*
X86049501Y-64102116D01*
X86049500Y-64102135D01*
X86049500Y-65897870D01*
X86049501Y-65897871D01*
X86055908Y-65957483D01*
X86106202Y-66092328D01*
X86106206Y-66092335D01*
X86192452Y-66207544D01*
X86192455Y-66207547D01*
X86307664Y-66293793D01*
X86307671Y-66293797D01*
X86442517Y-66344091D01*
X86442516Y-66344091D01*
X86449444Y-66344835D01*
X86502127Y-66350500D01*
X88297872Y-66350499D01*
X88357483Y-66344091D01*
X88492331Y-66293796D01*
X88607546Y-66207546D01*
X88693796Y-66092331D01*
X88744091Y-65957483D01*
X88750500Y-65897873D01*
X88750499Y-64571476D01*
X88770184Y-64504438D01*
X88822987Y-64458683D01*
X88892146Y-64448739D01*
X88955702Y-64477764D01*
X88972874Y-64495990D01*
X88992718Y-64521851D01*
X88992726Y-64521860D01*
X89178140Y-64707274D01*
X89178148Y-64707281D01*
X89386196Y-64866924D01*
X89613299Y-64998041D01*
X89613309Y-64998046D01*
X89855571Y-65098394D01*
X89855581Y-65098398D01*
X90108884Y-65166270D01*
X90368880Y-65200500D01*
X90968880Y-65200500D01*
X91831120Y-65200500D01*
X92168880Y-65200500D01*
X92731120Y-65200500D01*
X93510218Y-65200500D01*
X93577257Y-65220185D01*
X93623012Y-65272989D01*
X93632956Y-65342147D01*
X93603931Y-65405703D01*
X93597899Y-65412181D01*
X88962180Y-70047899D01*
X88900857Y-70081384D01*
X88831165Y-70076400D01*
X88775232Y-70034528D01*
X88750815Y-69969064D01*
X88750499Y-69960218D01*
X88750499Y-68702129D01*
X88750498Y-68702123D01*
X88750497Y-68702116D01*
X88744091Y-68642517D01*
X88716217Y-68567784D01*
X88693797Y-68507671D01*
X88693793Y-68507664D01*
X88607547Y-68392455D01*
X88607544Y-68392452D01*
X88492335Y-68306206D01*
X88492328Y-68306202D01*
X88357482Y-68255908D01*
X88357483Y-68255908D01*
X88297883Y-68249501D01*
X88297881Y-68249500D01*
X88297873Y-68249500D01*
X88297864Y-68249500D01*
X86502129Y-68249500D01*
X86502123Y-68249501D01*
X86442516Y-68255908D01*
X86307671Y-68306202D01*
X86307664Y-68306206D01*
X86192455Y-68392452D01*
X86192452Y-68392455D01*
X86106206Y-68507664D01*
X86106202Y-68507671D01*
X86055908Y-68642517D01*
X86049501Y-68702116D01*
X86049501Y-68702123D01*
X86049500Y-68702135D01*
X86049500Y-70497870D01*
X86049501Y-70497876D01*
X86055908Y-70557483D01*
X86106202Y-70692328D01*
X86106206Y-70692335D01*
X86192452Y-70807544D01*
X86192455Y-70807547D01*
X86307664Y-70893793D01*
X86307671Y-70893797D01*
X86442517Y-70944091D01*
X86442516Y-70944091D01*
X86449444Y-70944835D01*
X86502127Y-70950500D01*
X87760217Y-70950499D01*
X87827256Y-70970184D01*
X87873011Y-71022987D01*
X87882955Y-71092146D01*
X87853930Y-71155702D01*
X87847898Y-71162180D01*
X85762221Y-73247858D01*
X85762217Y-73247862D01*
X85712180Y-73297898D01*
X85650857Y-73331382D01*
X85581165Y-73326397D01*
X85525232Y-73284525D01*
X85500816Y-73219061D01*
X85500500Y-73210216D01*
X85500500Y-55721288D01*
X88749500Y-55721288D01*
X88781161Y-55961785D01*
X88843947Y-56196104D01*
X88914433Y-56366271D01*
X88936776Y-56420212D01*
X89058064Y-56630289D01*
X89058066Y-56630292D01*
X89058067Y-56630293D01*
X89205733Y-56822736D01*
X89205739Y-56822743D01*
X89377256Y-56994260D01*
X89377262Y-56994265D01*
X89569711Y-57141936D01*
X89779788Y-57263224D01*
X90003900Y-57356054D01*
X90238211Y-57418838D01*
X90415264Y-57442147D01*
X90478711Y-57450500D01*
X90478712Y-57450500D01*
X90721289Y-57450500D01*
X90784736Y-57442147D01*
X90961789Y-57418838D01*
X91196100Y-57356054D01*
X91420212Y-57263224D01*
X91630289Y-57141936D01*
X91822738Y-56994265D01*
X91994265Y-56822738D01*
X92141936Y-56630289D01*
X92263224Y-56420212D01*
X92356054Y-56196100D01*
X92418838Y-55961789D01*
X92450500Y-55721288D01*
X92450500Y-55478712D01*
X92418838Y-55238211D01*
X92356054Y-55003900D01*
X92263224Y-54779788D01*
X92141936Y-54569711D01*
X91994265Y-54377262D01*
X91994260Y-54377256D01*
X91822743Y-54205739D01*
X91822736Y-54205733D01*
X91630293Y-54058067D01*
X91630292Y-54058066D01*
X91630289Y-54058064D01*
X91420212Y-53936776D01*
X91420205Y-53936773D01*
X91196104Y-53843947D01*
X90961785Y-53781161D01*
X90721289Y-53749500D01*
X90721288Y-53749500D01*
X90478712Y-53749500D01*
X90478711Y-53749500D01*
X90238214Y-53781161D01*
X90003895Y-53843947D01*
X89779794Y-53936773D01*
X89779785Y-53936777D01*
X89569706Y-54058067D01*
X89377263Y-54205733D01*
X89377256Y-54205739D01*
X89205739Y-54377256D01*
X89205733Y-54377263D01*
X89058067Y-54569706D01*
X89058064Y-54569710D01*
X89058064Y-54569711D01*
X89044933Y-54592454D01*
X88936777Y-54779785D01*
X88936773Y-54779794D01*
X88843947Y-55003895D01*
X88781161Y-55238214D01*
X88749500Y-55478711D01*
X88749500Y-55721288D01*
X85500500Y-55721288D01*
X85500500Y-50624500D01*
X85520185Y-50557461D01*
X85572989Y-50511706D01*
X85624500Y-50500500D01*
X96571002Y-50500500D01*
X96638041Y-50520185D01*
G37*
%TD.AperFunction*%
%TD*%
%TA.AperFunction,Conductor*%
%TO.N,/VBUS*%
G36*
X98273389Y-60499011D02*
G01*
X98292635Y-60506957D01*
X98998545Y-60798400D01*
X99002361Y-60800951D01*
X99558201Y-61358182D01*
X99561618Y-61366460D01*
X99558959Y-61373872D01*
X98650092Y-62480234D01*
X98642192Y-62484451D01*
X98633624Y-62481848D01*
X98632778Y-62481080D01*
X97939495Y-61787797D01*
X97936068Y-61779524D01*
X97936424Y-61776660D01*
X98257581Y-60506956D01*
X98262932Y-60499777D01*
X98271793Y-60498483D01*
X98273389Y-60499011D01*
G37*
%TD.AperFunction*%
%TD*%
%TA.AperFunction,Conductor*%
%TO.N,/IO/SC_Voltage_MCU*%
G36*
X107177925Y-115339528D02*
G01*
X107181170Y-115345744D01*
X107312419Y-116080758D01*
X107310500Y-116089505D01*
X107302958Y-116094333D01*
X107300929Y-116094515D01*
X107017927Y-116095184D01*
X107013408Y-116094288D01*
X106747314Y-115983672D01*
X106740990Y-115977332D01*
X106740551Y-115969669D01*
X106822847Y-115680151D01*
X106825825Y-115675082D01*
X107161380Y-115339527D01*
X107169652Y-115336101D01*
X107177925Y-115339528D01*
G37*
%TD.AperFunction*%
%TD*%
%TA.AperFunction,Conductor*%
%TO.N,/MCU/RESET*%
G36*
X102696187Y-114496348D02*
G01*
X102697633Y-114497568D01*
X102900707Y-114699293D01*
X102900762Y-114699348D01*
X103102431Y-114902366D01*
X103105830Y-114910651D01*
X103102376Y-114918913D01*
X103100930Y-114920133D01*
X102625222Y-115259924D01*
X102616499Y-115261944D01*
X102610149Y-115258676D01*
X102341323Y-114989850D01*
X102337896Y-114981577D01*
X102340074Y-114974778D01*
X102679868Y-114499067D01*
X102687464Y-114494328D01*
X102696187Y-114496348D01*
G37*
%TD.AperFunction*%
%TD*%
%TA.AperFunction,Conductor*%
%TO.N,/MCU/BOOT*%
G36*
X103696187Y-115096348D02*
G01*
X103697633Y-115097568D01*
X103900707Y-115299293D01*
X103900762Y-115299348D01*
X104102431Y-115502366D01*
X104105830Y-115510651D01*
X104102376Y-115518913D01*
X104100930Y-115520133D01*
X103625222Y-115859924D01*
X103616499Y-115861944D01*
X103610149Y-115858676D01*
X103341323Y-115589850D01*
X103337896Y-115581577D01*
X103340074Y-115574778D01*
X103679868Y-115099067D01*
X103687464Y-115094328D01*
X103696187Y-115096348D01*
G37*
%TD.AperFunction*%
%TD*%
%TA.AperFunction,Conductor*%
%TO.N,/MCU/MCU_TEST*%
G36*
X104696187Y-115696348D02*
G01*
X104697633Y-115697568D01*
X104900707Y-115899293D01*
X104900762Y-115899348D01*
X105102431Y-116102366D01*
X105105830Y-116110651D01*
X105102376Y-116118913D01*
X105100930Y-116120133D01*
X104625222Y-116459924D01*
X104616499Y-116461944D01*
X104610149Y-116458676D01*
X104341323Y-116189850D01*
X104337896Y-116181577D01*
X104340074Y-116174778D01*
X104679868Y-115699067D01*
X104687464Y-115694328D01*
X104696187Y-115696348D01*
G37*
%TD.AperFunction*%
%TD*%
M02*
