%TF.GenerationSoftware,KiCad,Pcbnew,8.0.0*%
%TF.CreationDate,2024-03-30T16:18:18+01:00*%
%TF.ProjectId,schematic-main,73636865-6d61-4746-9963-2d6d61696e2e,rev?*%
%TF.SameCoordinates,Original*%
%TF.FileFunction,Soldermask,Top*%
%TF.FilePolarity,Negative*%
%FSLAX46Y46*%
G04 Gerber Fmt 4.6, Leading zero omitted, Abs format (unit mm)*
G04 Created by KiCad (PCBNEW 8.0.0) date 2024-03-30 16:18:18*
%MOMM*%
%LPD*%
G01*
G04 APERTURE LIST*
G04 Aperture macros list*
%AMRoundRect*
0 Rectangle with rounded corners*
0 $1 Rounding radius*
0 $2 $3 $4 $5 $6 $7 $8 $9 X,Y pos of 4 corners*
0 Add a 4 corners polygon primitive as box body*
4,1,4,$2,$3,$4,$5,$6,$7,$8,$9,$2,$3,0*
0 Add four circle primitives for the rounded corners*
1,1,$1+$1,$2,$3*
1,1,$1+$1,$4,$5*
1,1,$1+$1,$6,$7*
1,1,$1+$1,$8,$9*
0 Add four rect primitives between the rounded corners*
20,1,$1+$1,$2,$3,$4,$5,0*
20,1,$1+$1,$4,$5,$6,$7,0*
20,1,$1+$1,$6,$7,$8,$9,0*
20,1,$1+$1,$8,$9,$2,$3,0*%
G04 Aperture macros list end*
%ADD10R,1.220000X1.120000*%
%ADD11R,1.120000X1.220000*%
%ADD12RoundRect,0.050000X-0.387500X-0.050000X0.387500X-0.050000X0.387500X0.050000X-0.387500X0.050000X0*%
%ADD13RoundRect,0.050000X-0.050000X-0.387500X0.050000X-0.387500X0.050000X0.387500X-0.050000X0.387500X0*%
%ADD14R,5.600000X5.600000*%
%ADD15R,1.475000X0.450000*%
%ADD16R,2.173999X3.200400*%
%ADD17R,1.700000X1.700000*%
%ADD18R,0.800000X0.700000*%
%ADD19R,0.680000X0.700000*%
%ADD20R,4.320000X4.510000*%
%ADD21RoundRect,0.250000X0.625000X-0.312500X0.625000X0.312500X-0.625000X0.312500X-0.625000X-0.312500X0*%
%ADD22R,1.500000X1.000000*%
%ADD23RoundRect,0.250000X0.375000X0.625000X-0.375000X0.625000X-0.375000X-0.625000X0.375000X-0.625000X0*%
%ADD24RoundRect,0.250000X-1.000000X1.950000X-1.000000X-1.950000X1.000000X-1.950000X1.000000X1.950000X0*%
%ADD25RoundRect,0.250000X-0.312500X-0.625000X0.312500X-0.625000X0.312500X0.625000X-0.312500X0.625000X0*%
%ADD26RoundRect,0.250000X0.312500X0.625000X-0.312500X0.625000X-0.312500X-0.625000X0.312500X-0.625000X0*%
%ADD27R,2.000000X2.000000*%
%ADD28C,2.000000*%
%ADD29RoundRect,0.250000X-0.650000X0.325000X-0.650000X-0.325000X0.650000X-0.325000X0.650000X0.325000X0*%
%ADD30RoundRect,0.112500X0.237500X-0.112500X0.237500X0.112500X-0.237500X0.112500X-0.237500X-0.112500X0*%
%ADD31RoundRect,0.150000X0.825000X0.150000X-0.825000X0.150000X-0.825000X-0.150000X0.825000X-0.150000X0*%
%ADD32RoundRect,0.250000X0.650000X-0.325000X0.650000X0.325000X-0.650000X0.325000X-0.650000X-0.325000X0*%
%ADD33R,0.750000X1.350000*%
%ADD34C,5.000000*%
%ADD35C,2.700000*%
%ADD36RoundRect,0.249999X1.425001X-0.450001X1.425001X0.450001X-1.425001X0.450001X-1.425001X-0.450001X0*%
%ADD37RoundRect,0.250000X-0.625000X0.312500X-0.625000X-0.312500X0.625000X-0.312500X0.625000X0.312500X0*%
%ADD38RoundRect,0.250000X0.325000X0.650000X-0.325000X0.650000X-0.325000X-0.650000X0.325000X-0.650000X0*%
%ADD39RoundRect,0.250000X-0.325000X-0.650000X0.325000X-0.650000X0.325000X0.650000X-0.325000X0.650000X0*%
%ADD40C,3.200000*%
%ADD41R,1.350000X0.750000*%
%ADD42RoundRect,0.250000X1.000000X-1.950000X1.000000X1.950000X-1.000000X1.950000X-1.000000X-1.950000X0*%
%ADD43R,0.450000X1.475000*%
%ADD44R,3.550000X2.460000*%
%ADD45R,1.100000X3.200000*%
%ADD46C,3.000000*%
%ADD47R,2.300000X2.300000*%
%ADD48C,2.300000*%
%ADD49R,1.000000X0.400000*%
%ADD50R,1.200000X0.950000*%
%ADD51C,2.280000*%
%ADD52C,2.850000*%
%ADD53R,0.300000X1.100000*%
%ADD54R,1.400000X0.300000*%
%ADD55RoundRect,0.250001X1.599999X-1.099999X1.599999X1.099999X-1.599999X1.099999X-1.599999X-1.099999X0*%
%ADD56O,3.700000X2.700000*%
%ADD57RoundRect,0.250000X-1.950000X-1.000000X1.950000X-1.000000X1.950000X1.000000X-1.950000X1.000000X0*%
%ADD58R,6.710000X2.730000*%
%ADD59RoundRect,0.250000X-0.362500X-1.425000X0.362500X-1.425000X0.362500X1.425000X-0.362500X1.425000X0*%
%ADD60RoundRect,0.147500X-0.172500X0.147500X-0.172500X-0.147500X0.172500X-0.147500X0.172500X0.147500X0*%
%ADD61RoundRect,0.249999X0.450001X1.425001X-0.450001X1.425001X-0.450001X-1.425001X0.450001X-1.425001X0*%
%ADD62RoundRect,0.050000X-0.285000X-0.100000X0.285000X-0.100000X0.285000X0.100000X-0.285000X0.100000X0*%
%ADD63R,2.000000X4.000000*%
%ADD64R,4.000000X4.000000*%
%ADD65R,1.060000X2.600000*%
%ADD66R,5.632000X5.700000*%
%ADD67C,1.500000*%
%ADD68RoundRect,0.250001X1.099999X1.599999X-1.099999X1.599999X-1.099999X-1.599999X1.099999X-1.599999X0*%
%ADD69O,2.700000X3.700000*%
%ADD70R,0.375000X0.500000*%
%ADD71R,0.300000X0.650000*%
%ADD72RoundRect,0.250000X-0.550000X1.500000X-0.550000X-1.500000X0.550000X-1.500000X0.550000X1.500000X0*%
G04 APERTURE END LIST*
D10*
%TO.C,D11*%
X139500000Y-79500000D03*
X139500000Y-82700000D03*
%TD*%
D11*
%TO.C,D9*%
X127100000Y-73400000D03*
X130300000Y-73400000D03*
%TD*%
%TO.C,D12*%
X124200000Y-79000000D03*
X127400000Y-79000000D03*
%TD*%
%TO.C,D10*%
X141600000Y-79900000D03*
X144800000Y-79900000D03*
%TD*%
%TO.C,D8*%
X137800000Y-72700000D03*
X141000000Y-72700000D03*
%TD*%
%TO.C,D7*%
X144100000Y-72400000D03*
X147300000Y-72400000D03*
%TD*%
D12*
%TO.C,U3*%
X108862500Y-112600000D03*
X108862500Y-113000000D03*
X108862500Y-113400000D03*
X108862500Y-113800000D03*
X108862500Y-114200000D03*
X108862500Y-114600000D03*
X108862500Y-115000000D03*
X108862500Y-115400000D03*
X108862500Y-115800000D03*
X108862500Y-116200000D03*
X108862500Y-116600000D03*
X108862500Y-117000000D03*
X108862500Y-117400000D03*
X108862500Y-117800000D03*
D13*
X109700000Y-118637500D03*
X110100000Y-118637500D03*
X110500000Y-118637500D03*
X110900000Y-118637500D03*
X111300000Y-118637500D03*
X111700000Y-118637500D03*
X112100000Y-118637500D03*
X112500000Y-118637500D03*
X112900000Y-118637500D03*
X113300000Y-118637500D03*
X113700000Y-118637500D03*
X114100000Y-118637500D03*
X114500000Y-118637500D03*
X114900000Y-118637500D03*
D12*
X115737500Y-117800000D03*
X115737500Y-117400000D03*
X115737500Y-117000000D03*
X115737500Y-116600000D03*
X115737500Y-116200000D03*
X115737500Y-115800000D03*
X115737500Y-115400000D03*
X115737500Y-115000000D03*
X115737500Y-114600000D03*
X115737500Y-114200000D03*
X115737500Y-113800000D03*
X115737500Y-113400000D03*
X115737500Y-113000000D03*
X115737500Y-112600000D03*
D13*
X114900000Y-111762500D03*
X114500000Y-111762500D03*
X114100000Y-111762500D03*
X113700000Y-111762500D03*
X113300000Y-111762500D03*
X112900000Y-111762500D03*
X112500000Y-111762500D03*
X112100000Y-111762500D03*
X111700000Y-111762500D03*
X111300000Y-111762500D03*
X110900000Y-111762500D03*
X110500000Y-111762500D03*
X110100000Y-111762500D03*
X109700000Y-111762500D03*
D14*
X112300000Y-115200000D03*
%TD*%
D15*
%TO.C,IC2*%
X123938000Y-102950000D03*
X123938000Y-102300000D03*
X123938000Y-101650000D03*
X123938000Y-101000000D03*
X123938000Y-100350000D03*
X123938000Y-99700000D03*
X123938000Y-99050000D03*
X118062000Y-99050000D03*
X118062000Y-99700000D03*
X118062000Y-100350000D03*
X118062000Y-101000000D03*
X118062000Y-101650000D03*
X118062000Y-102300000D03*
X118062000Y-102950000D03*
%TD*%
D16*
%TO.C,D1*%
X118640002Y-83600000D03*
X112385998Y-83600000D03*
%TD*%
D17*
%TO.C,TP3*%
X112600000Y-58900000D03*
%TD*%
%TO.C,D_P_W*%
X87000000Y-131600000D03*
%TD*%
D18*
%TO.C,Q1*%
X174251000Y-79005000D03*
X174251000Y-77735000D03*
X174251000Y-76465000D03*
X174251000Y-75195000D03*
D19*
X168736000Y-75195000D03*
X168736000Y-76465000D03*
X168736000Y-77735000D03*
X168736000Y-79005000D03*
D20*
X171236000Y-77100000D03*
%TD*%
D21*
%TO.C,R14*%
X93000000Y-125862500D03*
X93000000Y-122937500D03*
%TD*%
D22*
%TO.C,BOOT*%
X87668750Y-120450000D03*
X87668750Y-119150000D03*
%TD*%
D23*
%TO.C, D6*%
X125000000Y-110000000D03*
X122200000Y-110000000D03*
%TD*%
D24*
%TO.C,C9*%
X134400000Y-56000000D03*
X134400000Y-63400000D03*
%TD*%
D21*
%TO.C,R5*%
X109400000Y-79462500D03*
X109400000Y-76537500D03*
%TD*%
D25*
%TO.C,R21*%
X99937500Y-122800000D03*
X102862500Y-122800000D03*
%TD*%
%TO.C,R27*%
X159937500Y-118200000D03*
X162862500Y-118200000D03*
%TD*%
D26*
%TO.C,R31*%
X174637500Y-117200000D03*
X171712500Y-117200000D03*
%TD*%
D25*
%TO.C,R46*%
X119937500Y-76600000D03*
X122862500Y-76600000D03*
%TD*%
D17*
%TO.C,D_Pot_A*%
X87000000Y-136600000D03*
%TD*%
D18*
%TO.C,Q3*%
X174351000Y-89105000D03*
X174351000Y-87835000D03*
X174351000Y-86565000D03*
X174351000Y-85295000D03*
D19*
X168836000Y-85295000D03*
X168836000Y-86565000D03*
X168836000Y-87835000D03*
X168836000Y-89105000D03*
D20*
X171336000Y-87200000D03*
%TD*%
D25*
%TO.C,R25*%
X108937500Y-128000000D03*
X111862500Y-128000000D03*
%TD*%
D27*
%TO.C,C45*%
X156567677Y-105600000D03*
D28*
X151567677Y-105600000D03*
%TD*%
D29*
%TO.C,C28*%
X119400000Y-88255000D03*
X119400000Y-91205000D03*
%TD*%
D30*
%TO.C,D3*%
X105300000Y-91845000D03*
X105300000Y-90545000D03*
X103300000Y-91195000D03*
%TD*%
D22*
%TO.C,TEST*%
X87800000Y-125250000D03*
X87800000Y-123950000D03*
%TD*%
D31*
%TO.C,U4*%
X116475000Y-92505000D03*
X116475000Y-91235000D03*
X116475000Y-89965000D03*
X116475000Y-88695000D03*
X111525000Y-88695000D03*
X111525000Y-89965000D03*
X111525000Y-91235000D03*
X111525000Y-92505000D03*
%TD*%
D17*
%TO.C,TP5*%
X140900000Y-60800000D03*
%TD*%
D25*
%TO.C,R9*%
X113437500Y-62000000D03*
X116362500Y-62000000D03*
%TD*%
D32*
%TO.C,C13*%
X90068750Y-115675000D03*
X90068750Y-112725000D03*
%TD*%
D33*
%TO.C,IC3*%
X165505000Y-107375000D03*
X164235000Y-107375000D03*
X162965000Y-107375000D03*
X161695000Y-107375000D03*
X161695000Y-113025000D03*
X162965000Y-113025000D03*
X164235000Y-113025000D03*
X165505000Y-113025000D03*
%TD*%
D17*
%TO.C,I/O3*%
X97200000Y-130800000D03*
%TD*%
%TO.C,TP_SC*%
X178200000Y-128400000D03*
%TD*%
D34*
%TO.C,J6*%
X179600000Y-133837500D03*
D35*
X182750000Y-139837500D03*
D34*
X172400000Y-133837500D03*
D35*
X169250000Y-139837500D03*
%TD*%
D25*
%TO.C,R23*%
X104137500Y-128400000D03*
X107062500Y-128400000D03*
%TD*%
D36*
%TO.C,(R50)*%
X150300000Y-72850000D03*
X150300000Y-66750000D03*
%TD*%
D37*
%TO.C,R40*%
X130900000Y-89937500D03*
X130900000Y-92862500D03*
%TD*%
%TO.C,R55*%
X115800000Y-128137500D03*
X115800000Y-131062500D03*
%TD*%
D28*
%TO.C,PS1*%
X117960000Y-58500000D03*
X120500000Y-58500000D03*
X123040000Y-58500000D03*
%TD*%
D25*
%TO.C,R7*%
X116237500Y-67600000D03*
X119162500Y-67600000D03*
%TD*%
D38*
%TO.C,C27*%
X109995000Y-94920000D03*
X107045000Y-94920000D03*
%TD*%
D23*
%TO.C,MCU D5*%
X126200000Y-116200000D03*
X123400000Y-116200000D03*
%TD*%
D39*
%TO.C,C3*%
X112825000Y-64700000D03*
X115775000Y-64700000D03*
%TD*%
D40*
%TO.C,REF\u002A\u002A*%
X179600000Y-105600000D03*
%TD*%
D38*
%TO.C,C42*%
X135975000Y-72700000D03*
X133025000Y-72700000D03*
%TD*%
D26*
%TO.C,R54*%
X112842500Y-130580000D03*
X109917500Y-130580000D03*
%TD*%
D41*
%TO.C,IC4*%
X143575000Y-121870000D03*
X143575000Y-123140000D03*
X143575000Y-124410000D03*
X143575000Y-125680000D03*
X149225000Y-125680000D03*
X149225000Y-124410000D03*
X149225000Y-123140000D03*
X149225000Y-121870000D03*
%TD*%
D29*
%TO.C,C40*%
X136900000Y-82025000D03*
X136900000Y-84975000D03*
%TD*%
D39*
%TO.C,C16*%
X104025000Y-136500000D03*
X106975000Y-136500000D03*
%TD*%
D42*
%TO.C,C19*%
X91200000Y-107500000D03*
X91200000Y-100100000D03*
%TD*%
D17*
%TO.C,TP22*%
X137900000Y-87700000D03*
%TD*%
D38*
%TO.C,C34*%
X162875000Y-115400000D03*
X159925000Y-115400000D03*
%TD*%
D43*
%TO.C,IC1*%
X110050000Y-73706500D03*
X110700000Y-73706500D03*
X111350000Y-73706500D03*
X112000000Y-73706500D03*
X112650000Y-73706500D03*
X113300000Y-73706500D03*
X113950000Y-73706500D03*
X114600000Y-73706500D03*
X114600000Y-67830500D03*
X113950000Y-67830500D03*
X113300000Y-67830500D03*
X112650000Y-67830500D03*
X112000000Y-67830500D03*
X111350000Y-67830500D03*
X110700000Y-67830500D03*
X110050000Y-67830500D03*
D44*
X112325000Y-70768500D03*
%TD*%
D37*
%TO.C,R49*%
X138400000Y-90637500D03*
X138400000Y-93562500D03*
%TD*%
D39*
%TO.C,C29*%
X123525000Y-96200000D03*
X126475000Y-96200000D03*
%TD*%
D25*
%TO.C,R22*%
X101037500Y-125400000D03*
X103962500Y-125400000D03*
%TD*%
D26*
%TO.C,R28*%
X154622500Y-122275000D03*
X151697500Y-122275000D03*
%TD*%
D32*
%TO.C,C21*%
X103200000Y-108275000D03*
X103200000Y-105325000D03*
%TD*%
D17*
%TO.C,I/O4*%
X101200000Y-128400000D03*
%TD*%
%TO.C,TP17*%
X126350000Y-87150000D03*
%TD*%
D40*
%TO.C,REF\u002A\u002A*%
X90600000Y-144400000D03*
%TD*%
D25*
%TO.C,R13*%
X92406250Y-120200000D03*
X95331250Y-120200000D03*
%TD*%
D26*
%TO.C,R53*%
X92922500Y-137500000D03*
X89997500Y-137500000D03*
%TD*%
D21*
%TO.C,R42*%
X128400000Y-108262500D03*
X128400000Y-105337500D03*
%TD*%
%TO.C,R32*%
X112300000Y-97562500D03*
X112300000Y-94637500D03*
%TD*%
D40*
%TO.C,REF\u002A\u002A*%
X179600000Y-55400000D03*
%TD*%
D45*
%TO.C,L1*%
X164350000Y-58000000D03*
X166450000Y-58000000D03*
%TD*%
D25*
%TO.C,R52*%
X90137500Y-134600000D03*
X93062500Y-134600000D03*
%TD*%
D34*
%TO.C,J5*%
X159100000Y-133837500D03*
D35*
X162250000Y-139837500D03*
D34*
X151900000Y-133837500D03*
D35*
X148750000Y-139837500D03*
%TD*%
D38*
%TO.C,C15*%
X108975000Y-108100000D03*
X106025000Y-108100000D03*
%TD*%
D17*
%TO.C,5V*%
X140900000Y-55800000D03*
%TD*%
D21*
%TO.C,R1*%
X110700000Y-139762500D03*
X110700000Y-136837500D03*
%TD*%
D29*
%TO.C,C41*%
X134300000Y-82025000D03*
X134300000Y-84975000D03*
%TD*%
D39*
%TO.C,C5*%
X165925000Y-51800000D03*
X168875000Y-51800000D03*
%TD*%
D46*
%TO.C,J2*%
X91712900Y-84915750D03*
X91712900Y-93315750D03*
D47*
X99012900Y-93315750D03*
D48*
X99012900Y-89115750D03*
X99012900Y-84915750D03*
%TD*%
D25*
%TO.C,R33*%
X107034664Y-97538027D03*
X109959664Y-97538027D03*
%TD*%
%TO.C,R15*%
X105537500Y-88000000D03*
X108462500Y-88000000D03*
%TD*%
%TO.C,R37*%
X128637500Y-65900000D03*
X131562500Y-65900000D03*
%TD*%
%TO.C,R8*%
X108137500Y-62400000D03*
X111062500Y-62400000D03*
%TD*%
D17*
%TO.C,FC_C*%
X157600000Y-124075000D03*
%TD*%
D39*
%TO.C,C33*%
X167625000Y-114800000D03*
X170575000Y-114800000D03*
%TD*%
D38*
%TO.C,C22*%
X105875000Y-113100000D03*
X102925000Y-113100000D03*
%TD*%
D29*
%TO.C,C8*%
X160800000Y-56125000D03*
X160800000Y-59075000D03*
%TD*%
D17*
%TO.C,TP1*%
X97600000Y-102600000D03*
%TD*%
D29*
%TO.C,C26*%
X100500000Y-110325000D03*
X100500000Y-113275000D03*
%TD*%
D49*
%TO.C,IC8*%
X97500000Y-134650000D03*
X97500000Y-134000000D03*
X97500000Y-133350000D03*
X95500000Y-133350000D03*
X95500000Y-134000000D03*
X95500000Y-134650000D03*
%TD*%
D29*
%TO.C,C36*%
X151800000Y-124600000D03*
X151800000Y-127550000D03*
%TD*%
D25*
%TO.C,R41*%
X126137500Y-100400000D03*
X129062500Y-100400000D03*
%TD*%
D32*
%TO.C,C24*%
X116500000Y-109375000D03*
X116500000Y-106425000D03*
%TD*%
D18*
%TO.C,Q4*%
X155551000Y-89205000D03*
X155551000Y-87935000D03*
X155551000Y-86665000D03*
X155551000Y-85395000D03*
D19*
X150036000Y-85395000D03*
X150036000Y-86665000D03*
X150036000Y-87935000D03*
X150036000Y-89205000D03*
D20*
X152536000Y-87300000D03*
%TD*%
D32*
%TO.C,C49*%
X136500000Y-79575000D03*
X136500000Y-76625000D03*
%TD*%
D27*
%TO.C,C32*%
X127467677Y-123200000D03*
D28*
X122467677Y-123200000D03*
%TD*%
D25*
%TO.C,R19*%
X127137500Y-110600000D03*
X130062500Y-110600000D03*
%TD*%
D37*
%TO.C,R30*%
X169380000Y-117157500D03*
X169380000Y-120082500D03*
%TD*%
D50*
%TO.C,Y1*%
X112600000Y-103525000D03*
X110400000Y-103525000D03*
X110400000Y-105275000D03*
X112600000Y-105275000D03*
%TD*%
D26*
%TO.C,R3*%
X102362500Y-139200000D03*
X99437500Y-139200000D03*
%TD*%
D33*
%TO.C,IC5*%
X169095000Y-128025000D03*
X170365000Y-128025000D03*
X171635000Y-128025000D03*
X172905000Y-128025000D03*
X172905000Y-122375000D03*
X171635000Y-122375000D03*
X170365000Y-122375000D03*
X169095000Y-122375000D03*
%TD*%
D32*
%TO.C,C50*%
X100000000Y-136975000D03*
X100000000Y-134025000D03*
%TD*%
D29*
%TO.C,C6*%
X153800000Y-54925000D03*
X153800000Y-57875000D03*
%TD*%
D51*
%TO.C,P1*%
X98280000Y-144240000D03*
D52*
X98280000Y-148240000D03*
D53*
X100550000Y-143090000D03*
D51*
X109520000Y-144240000D03*
D52*
X109520000Y-148240000D03*
D53*
X101350000Y-143090000D03*
X102650000Y-143090000D03*
X103650000Y-143090000D03*
X104150000Y-143090000D03*
X105150000Y-143090000D03*
X106450000Y-143090000D03*
X107250000Y-143090000D03*
X106950000Y-143090000D03*
X106150000Y-143090000D03*
X105650000Y-143090000D03*
X104650000Y-143090000D03*
X103150000Y-143090000D03*
X102150000Y-143090000D03*
X101650000Y-143090000D03*
X100850000Y-143090000D03*
%TD*%
D38*
%TO.C,C39*%
X112475000Y-100000000D03*
X109525000Y-100000000D03*
%TD*%
D32*
%TO.C,C25*%
X98200000Y-108275000D03*
X98200000Y-105325000D03*
%TD*%
D26*
%TO.C,R43*%
X91262500Y-128400000D03*
X88337500Y-128400000D03*
%TD*%
D38*
%TO.C,C47*%
X121775000Y-70300000D03*
X118825000Y-70300000D03*
%TD*%
D25*
%TO.C,R2*%
X105437500Y-139100000D03*
X108362500Y-139100000D03*
%TD*%
D17*
%TO.C,TP8*%
X87400000Y-69600000D03*
%TD*%
%TO.C,TP18*%
X130150000Y-87200000D03*
%TD*%
D32*
%TO.C,C30*%
X103000000Y-86475000D03*
X103000000Y-83525000D03*
%TD*%
D25*
%TO.C,R24*%
X106237500Y-125400000D03*
X109162500Y-125400000D03*
%TD*%
D17*
%TO.C,MC_C*%
X168700000Y-111800000D03*
%TD*%
D54*
%TO.C,IC7*%
X133600000Y-78700000D03*
X133600000Y-78200000D03*
X133600000Y-77700000D03*
X133600000Y-77200000D03*
X133600000Y-76700000D03*
X129200000Y-76700000D03*
X129200000Y-77200000D03*
X129200000Y-77700000D03*
X129200000Y-78200000D03*
X129200000Y-78700000D03*
%TD*%
D21*
%TO.C,R29*%
X154580000Y-127517500D03*
X154580000Y-124592500D03*
%TD*%
D46*
%TO.C,J1*%
X91975000Y-75900000D03*
D55*
X99275000Y-75900000D03*
D56*
X104775000Y-75900000D03*
%TD*%
D17*
%TO.C,3.3V*%
X87400000Y-65000000D03*
%TD*%
%TO.C,I/O2*%
X97200000Y-127000000D03*
%TD*%
D57*
%TO.C,C12*%
X91750000Y-67500000D03*
X99150000Y-67500000D03*
%TD*%
D37*
%TO.C,R12*%
X92668750Y-114937500D03*
X92668750Y-117862500D03*
%TD*%
D32*
%TO.C,C18*%
X90200000Y-126075000D03*
X90200000Y-123125000D03*
%TD*%
D26*
%TO.C,R11*%
X158262500Y-51400000D03*
X155337500Y-51400000D03*
%TD*%
D25*
%TO.C,R16*%
X105537500Y-85000000D03*
X108462500Y-85000000D03*
%TD*%
D58*
%TO.C,F2*%
X180000000Y-124690000D03*
X180000000Y-117710000D03*
%TD*%
D29*
%TO.C,C35*%
X166600000Y-120525000D03*
X166600000Y-123475000D03*
%TD*%
D38*
%TO.C,C48*%
X122275000Y-73600000D03*
X119325000Y-73600000D03*
%TD*%
D25*
%TO.C,R17*%
X128537500Y-113100000D03*
X131462500Y-113100000D03*
%TD*%
D59*
%TO.C,R47*%
X125737500Y-82700000D03*
X131662500Y-82700000D03*
%TD*%
D26*
%TO.C,R39*%
X128762500Y-90200000D03*
X125837500Y-90200000D03*
%TD*%
D32*
%TO.C,C10*%
X163600000Y-54275000D03*
X163600000Y-51325000D03*
%TD*%
D59*
%TO.C,R34*%
X141337500Y-68000000D03*
X147262500Y-68000000D03*
%TD*%
D21*
%TO.C,R4*%
X96300000Y-139862500D03*
X96300000Y-136937500D03*
%TD*%
D29*
%TO.C,C7*%
X118700000Y-62325000D03*
X118700000Y-65275000D03*
%TD*%
D32*
%TO.C,C37*%
X157500000Y-120475000D03*
X157500000Y-117525000D03*
%TD*%
D59*
%TO.C,R45*%
X140337500Y-76400000D03*
X146262500Y-76400000D03*
%TD*%
D26*
%TO.C,R44*%
X93062500Y-131200000D03*
X90137500Y-131200000D03*
%TD*%
D29*
%TO.C,C11*%
X128400000Y-58325000D03*
X128400000Y-61275000D03*
%TD*%
D26*
%TO.C,R48*%
X135962500Y-90800000D03*
X133037500Y-90800000D03*
%TD*%
D18*
%TO.C,Q2*%
X155351000Y-79305000D03*
X155351000Y-78035000D03*
X155351000Y-76765000D03*
X155351000Y-75495000D03*
D19*
X149836000Y-75495000D03*
X149836000Y-76765000D03*
X149836000Y-78035000D03*
X149836000Y-79305000D03*
D20*
X152336000Y-77400000D03*
%TD*%
D17*
%TO.C,TP_FC*%
X118800000Y-134600000D03*
%TD*%
D39*
%TO.C,C31*%
X122725000Y-106000000D03*
X125675000Y-106000000D03*
%TD*%
D60*
%TO.C,L2*%
X103300000Y-110415000D03*
X103300000Y-111385000D03*
%TD*%
D61*
%TO.C,(R51)*%
X167850000Y-102600000D03*
X161750000Y-102600000D03*
%TD*%
D29*
%TO.C,C23*%
X111600000Y-121525000D03*
X111600000Y-124475000D03*
%TD*%
D62*
%TO.C,U1*%
X156660000Y-53850000D03*
X156660000Y-54850000D03*
X156660000Y-55350000D03*
X158140000Y-55350000D03*
X158140000Y-54850000D03*
X158140000Y-54350000D03*
X158140000Y-53850000D03*
%TD*%
D22*
%TO.C,RESET*%
X87668750Y-114850000D03*
X87668750Y-113550000D03*
%TD*%
D40*
%TO.C,REF\u002A\u002A*%
X90600000Y-55600000D03*
%TD*%
D39*
%TO.C,C14*%
X111325000Y-108100000D03*
X114275000Y-108100000D03*
%TD*%
%TO.C,C46*%
X126125000Y-103000000D03*
X129075000Y-103000000D03*
%TD*%
D21*
%TO.C,R10*%
X160800000Y-54062500D03*
X160800000Y-51137500D03*
%TD*%
D63*
%TO.C,L3*%
X180900000Y-69300000D03*
X175900000Y-69300000D03*
X170900000Y-69300000D03*
D64*
X165900000Y-69300000D03*
X160900000Y-69300000D03*
X155900000Y-69300000D03*
D63*
X180900000Y-94300000D03*
X175900000Y-94300000D03*
X170900000Y-94300000D03*
D64*
X165900000Y-94300000D03*
X160900000Y-94300000D03*
X155900000Y-94300000D03*
%TD*%
D65*
%TO.C,D2*%
X100714000Y-61079500D03*
X105286000Y-61079500D03*
D66*
X103000000Y-54529500D03*
%TD*%
D17*
%TO.C,12V*%
X108900000Y-58900000D03*
%TD*%
D59*
%TO.C,R38*%
X124337500Y-69600000D03*
X130262500Y-69600000D03*
%TD*%
D67*
%TO.C,J3*%
X133900000Y-140137500D03*
D46*
X130900000Y-135137500D03*
D67*
X122900000Y-140137500D03*
D46*
X125900000Y-135137500D03*
%TD*%
D25*
%TO.C,R18*%
X128487500Y-116200000D03*
X131412500Y-116200000D03*
%TD*%
D17*
%TO.C,SC_C*%
X162200000Y-121200000D03*
%TD*%
D39*
%TO.C,C1*%
X112325000Y-78600000D03*
X115275000Y-78600000D03*
%TD*%
D46*
%TO.C,J4*%
X141912500Y-143500000D03*
D68*
X141912500Y-136200000D03*
D69*
X141912500Y-130700000D03*
%TD*%
D25*
%TO.C,R20*%
X98537500Y-120200000D03*
X101462500Y-120200000D03*
%TD*%
D21*
%TO.C,R26*%
X165200000Y-118262500D03*
X165200000Y-115337500D03*
%TD*%
D17*
%TO.C,TP21*%
X134000000Y-87700000D03*
%TD*%
D54*
%TO.C,IC6*%
X139300000Y-70100000D03*
X139300000Y-69600000D03*
X139300000Y-69100000D03*
X139300000Y-68600000D03*
X139300000Y-68100000D03*
X134900000Y-68100000D03*
X134900000Y-68600000D03*
X134900000Y-69100000D03*
X134900000Y-69600000D03*
X134900000Y-70100000D03*
%TD*%
D25*
%TO.C,R6*%
X112537500Y-76200000D03*
X115462500Y-76200000D03*
%TD*%
D39*
%TO.C,C38*%
X171725000Y-119800000D03*
X174675000Y-119800000D03*
%TD*%
D23*
%TO.C,CAN D4*%
X126100000Y-113100000D03*
X123300000Y-113100000D03*
%TD*%
D70*
%TO.C,U2*%
X104137500Y-132650000D03*
D71*
X103600000Y-132575000D03*
D70*
X103062500Y-132650000D03*
X103062500Y-134350000D03*
D71*
X103600000Y-134425000D03*
D70*
X104137500Y-134350000D03*
%TD*%
D24*
%TO.C,C4*%
X147400000Y-54300000D03*
X147400000Y-61700000D03*
%TD*%
D17*
%TO.C,I/O1*%
X97200000Y-123200000D03*
%TD*%
D58*
%TO.C,F1*%
X134200000Y-129890000D03*
X134200000Y-122910000D03*
%TD*%
D17*
%TO.C,TP2*%
X101400000Y-102600000D03*
%TD*%
D72*
%TO.C,C2*%
X105400000Y-64900000D03*
X105400000Y-70300000D03*
%TD*%
D32*
%TO.C,C17*%
X90068750Y-121075000D03*
X90068750Y-118125000D03*
%TD*%
%TO.C,C20*%
X100700000Y-108275000D03*
X100700000Y-105325000D03*
%TD*%
M02*
