%TF.GenerationSoftware,KiCad,Pcbnew,8.0.0*%
%TF.CreationDate,2024-03-30T16:18:18+01:00*%
%TF.ProjectId,schematic-main,73636865-6d61-4746-9963-2d6d61696e2e,rev?*%
%TF.SameCoordinates,Original*%
%TF.FileFunction,Soldermask,Bot*%
%TF.FilePolarity,Negative*%
%FSLAX46Y46*%
G04 Gerber Fmt 4.6, Leading zero omitted, Abs format (unit mm)*
G04 Created by KiCad (PCBNEW 8.0.0) date 2024-03-30 16:18:18*
%MOMM*%
%LPD*%
G01*
G04 APERTURE LIST*
G04 Aperture macros list*
%AMRoundRect*
0 Rectangle with rounded corners*
0 $1 Rounding radius*
0 $2 $3 $4 $5 $6 $7 $8 $9 X,Y pos of 4 corners*
0 Add a 4 corners polygon primitive as box body*
4,1,4,$2,$3,$4,$5,$6,$7,$8,$9,$2,$3,0*
0 Add four circle primitives for the rounded corners*
1,1,$1+$1,$2,$3*
1,1,$1+$1,$4,$5*
1,1,$1+$1,$6,$7*
1,1,$1+$1,$8,$9*
0 Add four rect primitives between the rounded corners*
20,1,$1+$1,$2,$3,$4,$5,0*
20,1,$1+$1,$4,$5,$6,$7,0*
20,1,$1+$1,$6,$7,$8,$9,0*
20,1,$1+$1,$8,$9,$2,$3,0*%
G04 Aperture macros list end*
%ADD10R,1.700000X1.700000*%
%ADD11R,2.000000X2.000000*%
%ADD12C,2.000000*%
%ADD13C,5.000000*%
%ADD14C,2.700000*%
%ADD15C,3.200000*%
%ADD16C,3.000000*%
%ADD17R,2.300000X2.300000*%
%ADD18C,2.300000*%
%ADD19RoundRect,0.250000X-1.425000X0.362500X-1.425000X-0.362500X1.425000X-0.362500X1.425000X0.362500X0*%
%ADD20C,2.280000*%
%ADD21C,2.850000*%
%ADD22RoundRect,0.250001X1.599999X-1.099999X1.599999X1.099999X-1.599999X1.099999X-1.599999X-1.099999X0*%
%ADD23O,3.700000X2.700000*%
%ADD24R,2.000000X4.000000*%
%ADD25R,4.000000X4.000000*%
%ADD26C,1.500000*%
%ADD27RoundRect,0.250001X1.099999X1.599999X-1.099999X1.599999X-1.099999X-1.599999X1.099999X-1.599999X0*%
%ADD28O,2.700000X3.700000*%
%ADD29RoundRect,0.250000X-0.325000X-0.650000X0.325000X-0.650000X0.325000X0.650000X-0.325000X0.650000X0*%
G04 APERTURE END LIST*
D10*
%TO.C,TP3*%
X112600000Y-58900000D03*
%TD*%
%TO.C,D_P_W*%
X87000000Y-131600000D03*
%TD*%
%TO.C,D_Pot_A*%
X87000000Y-136600000D03*
%TD*%
D11*
%TO.C,C45*%
X156567677Y-105600000D03*
D12*
X151567677Y-105600000D03*
%TD*%
D10*
%TO.C,TP5*%
X140900000Y-60800000D03*
%TD*%
%TO.C,I/O3*%
X97200000Y-130800000D03*
%TD*%
%TO.C,TP_SC*%
X178200000Y-128400000D03*
%TD*%
D13*
%TO.C,J6*%
X179600000Y-133837500D03*
D14*
X182750000Y-139837500D03*
D13*
X172400000Y-133837500D03*
D14*
X169250000Y-139837500D03*
%TD*%
D12*
%TO.C,PS1*%
X117960000Y-58500000D03*
X120500000Y-58500000D03*
X123040000Y-58500000D03*
%TD*%
D15*
%TO.C,REF\u002A\u002A*%
X179600000Y-105600000D03*
%TD*%
D10*
%TO.C,TP22*%
X137900000Y-87700000D03*
%TD*%
%TO.C,I/O4*%
X101200000Y-128400000D03*
%TD*%
%TO.C,TP17*%
X126350000Y-87150000D03*
%TD*%
D15*
%TO.C,REF\u002A\u002A*%
X90600000Y-144400000D03*
%TD*%
%TO.C,REF\u002A\u002A*%
X179600000Y-55400000D03*
%TD*%
D13*
%TO.C,J5*%
X159100000Y-133837500D03*
D14*
X162250000Y-139837500D03*
D13*
X151900000Y-133837500D03*
D14*
X148750000Y-139837500D03*
%TD*%
D10*
%TO.C,5V*%
X140900000Y-55800000D03*
%TD*%
D16*
%TO.C,J2*%
X91712900Y-84915750D03*
X91712900Y-93315750D03*
D17*
X99012900Y-93315750D03*
D18*
X99012900Y-89115750D03*
X99012900Y-84915750D03*
%TD*%
D10*
%TO.C,FC_C*%
X157600000Y-124075000D03*
%TD*%
%TO.C,TP1*%
X97600000Y-102600000D03*
%TD*%
D19*
%TO.C,R35*%
X165400000Y-103737500D03*
X165400000Y-109662500D03*
%TD*%
D11*
%TO.C,C32*%
X127467677Y-123200000D03*
D12*
X122467677Y-123200000D03*
%TD*%
D20*
%TO.C,P1*%
X98280000Y-144240000D03*
D21*
X98280000Y-148240000D03*
D20*
X109520000Y-144240000D03*
D21*
X109520000Y-148240000D03*
%TD*%
D10*
%TO.C,TP8*%
X87400000Y-69600000D03*
%TD*%
%TO.C,TP18*%
X130150000Y-87200000D03*
%TD*%
%TO.C,MC_C*%
X168700000Y-111800000D03*
%TD*%
D16*
%TO.C,J1*%
X91975000Y-75900000D03*
D22*
X99275000Y-75900000D03*
D23*
X104775000Y-75900000D03*
%TD*%
D10*
%TO.C,3.3V*%
X87400000Y-65000000D03*
%TD*%
%TO.C,I/O2*%
X97200000Y-127000000D03*
%TD*%
%TO.C,TP_FC*%
X118800000Y-134600000D03*
%TD*%
D15*
%TO.C,REF\u002A\u002A*%
X90600000Y-55600000D03*
%TD*%
D24*
%TO.C,L3*%
X180900000Y-69300000D03*
X175900000Y-69300000D03*
X170900000Y-69300000D03*
D25*
X165900000Y-69300000D03*
X160900000Y-69300000D03*
X155900000Y-69300000D03*
D24*
X180900000Y-94300000D03*
X175900000Y-94300000D03*
X170900000Y-94300000D03*
D25*
X165900000Y-94300000D03*
X160900000Y-94300000D03*
X155900000Y-94300000D03*
%TD*%
D10*
%TO.C,12V*%
X108900000Y-58900000D03*
%TD*%
D26*
%TO.C,J3*%
X133900000Y-140137500D03*
D16*
X130900000Y-135137500D03*
D26*
X122900000Y-140137500D03*
D16*
X125900000Y-135137500D03*
%TD*%
D10*
%TO.C,SC_C*%
X162200000Y-121200000D03*
%TD*%
D16*
%TO.C,J4*%
X141912500Y-143500000D03*
D27*
X141912500Y-136200000D03*
D28*
X141912500Y-130700000D03*
%TD*%
D10*
%TO.C,TP21*%
X134000000Y-87700000D03*
%TD*%
%TO.C,I/O1*%
X97200000Y-123200000D03*
%TD*%
%TO.C,TP2*%
X101400000Y-102600000D03*
%TD*%
D29*
%TO.C,C43*%
X157625000Y-113200000D03*
X160575000Y-113200000D03*
%TD*%
D19*
%TO.C,R36*%
X169000000Y-83337500D03*
X169000000Y-89262500D03*
%TD*%
D29*
%TO.C,C44*%
X162525000Y-88600000D03*
X165475000Y-88600000D03*
%TD*%
M02*
